<?xml version="1.0" encoding="utf-8"?>
<!-- Generator: Adobe Illustrator 23.0.5, SVG Export Plug-In . SVG Version: 6.00 Build 0)  -->
<svg version="1.1" id="Capa_1" xmlns="http://www.w3.org/2000/svg" xmlns:xlink="http://www.w3.org/1999/xlink" x="0px" y="0px"
	 viewBox="0 0 611.1 327.8" style="enable-background:new 0 0 611.1 327.8;" xml:space="preserve">
<style type="text/css">
	.st0{fill:url(#SVGID_1_);}
	.st1{fill:url(#SVGID_2_);}
	.st2{fill:url(#SVGID_3_);}
	.st3{fill:url(#SVGID_4_);}
	.st4{fill:#FFFFFF;}
	.st5{fill:#1E2F57;}
	.st6{fill:#8D271B;}
	.st7{fill:#211C1E;}
	.st8{fill:none;stroke:#8D271B;stroke-miterlimit:10;}
	.st9{fill:url(#SVGID_5_);}
	.st10{fill:url(#SVGID_6_);}
	.st11{fill:url(#SVGID_7_);}
	.st12{fill:url(#SVGID_8_);}
	.st13{fill:url(#SVGID_9_);}
	.st14{fill:url(#SVGID_10_);}
	.st15{fill:url(#SVGID_11_);}
	.st16{fill:url(#SVGID_12_);}
	.st17{fill:none;}
	.st18{font-family:'Montserrat-Bold';}
	.st19{font-size:40px;}
	.st20{letter-spacing:4;}
	.st21{font-family:'Montserrat-Medium';}
	.st22{font-size:19px;}
	.st23{letter-spacing:7;}
</style>
<g>
	<g>
		<linearGradient id="SVGID_1_" gradientUnits="userSpaceOnUse" x1="255.5289" y1="36.125" x2="255.8051" y2="36.7576">
			<stop  offset="1.582485e-02" style="stop-color:#07892F"/>
			<stop  offset="0.209" style="stop-color:#F2C000"/>
			<stop  offset="0.4441" style="stop-color:#EC7710"/>
			<stop  offset="0.6341" style="stop-color:#DB121A"/>
			<stop  offset="0.815" style="stop-color:#752C64"/>
			<stop  offset="0.9763" style="stop-color:#0E47AE"/>
		</linearGradient>
		<path class="st0" d="M256,36.2c0.2,0.1-0.1,0.2-0.8,0.2c-0.2,0-0.3,0-0.6,0c-0.1,0-0.2,0-0.3,0c0.1,0,0.3,0,0.4,0
			C256.8,36.4,257.6,36.3,256,36.2z"/>
		<linearGradient id="SVGID_2_" gradientUnits="userSpaceOnUse" x1="253.7327" y1="36.5047" x2="253.8503" y2="36.7742">
			<stop  offset="1.582485e-02" style="stop-color:#07892F"/>
			<stop  offset="0.209" style="stop-color:#F2C000"/>
			<stop  offset="0.4441" style="stop-color:#EC7710"/>
			<stop  offset="0.6341" style="stop-color:#DB121A"/>
			<stop  offset="0.815" style="stop-color:#752C64"/>
			<stop  offset="0.9763" style="stop-color:#0E47AE"/>
		</linearGradient>
		<path class="st1" d="M253.2,36.7c0.3-0.1,0.6-0.1,0.9-0.2c0,0,0.2,0,0.3,0c0,0,0,0,0,0c0,0,0,0,0,0c-0.1,0-0.3,0-0.3,0
			c-0.2,0-0.3,0.1-0.5,0.1C253.5,36.7,253.3,36.7,253.2,36.7C253.1,36.7,253.2,36.7,253.2,36.7C253.2,36.7,253.2,36.7,253.2,36.7z"
			/>
		<linearGradient id="SVGID_3_" gradientUnits="userSpaceOnUse" x1="256.6145" y1="44.6036" x2="316.3552" y2="181.4292">
			<stop  offset="1.582485e-02" style="stop-color:#07892F"/>
			<stop  offset="0.209" style="stop-color:#F2C000"/>
			<stop  offset="0.4441" style="stop-color:#EC7710"/>
			<stop  offset="0.6341" style="stop-color:#DB121A"/>
			<stop  offset="0.815" style="stop-color:#752C64"/>
			<stop  offset="0.9763" style="stop-color:#0E47AE"/>
		</linearGradient>
		<path class="st2" d="M371.8,120.4c-0.3-0.4-0.6-0.7-0.9-1c-0.3-0.3-0.7-0.7-1-1c-0.7-0.6-1.5-1.2-2.4-1.7
			c-0.9-0.5-1.8-0.9-2.8-1.2c-1-0.3-1.9-0.5-2.8-0.6c-0.5-0.1-0.9-0.1-1.3-0.1c-0.4,0-0.9,0-1.3,0l-0.6,0l-0.2,0l-0.2,0l-1,0.1
			c-1.3,0.1-2.6,0.2-3.9,0.3c-2.6,0.2-5.2,0.4-7.8,0.6c-5.2,0.4-10.3,0.8-15.3,1.3c0.4,0,0.7,0,1,0c-10.6,0.8-18.7-0.3-29.1,0.2
			c0,0.2-0.4,0.3-0.9,0.4c-0.2,0-0.5,0.1-0.8,0.1c-0.1,0-0.3,0-0.3,0.1c0,0-0.1,0-0.1,0.1c-0.2-0.4-1.3-0.4-3.4-0.1
			c-2,0.3-5.2,0.7-9.3,1.2c-4.1,0.4-9.1,0.9-13.2,1.1c-2,0.1-3.8,0.2-5,0.2c-1.2,0-1.8-0.1-1.5-0.2c-0.9,0-1.7,0-2.5-0.1
			c-0.6-0.2-1-0.5-1.3-0.9c-0.2-0.2-0.3-0.4-0.3-0.7c0-0.3,0.1-0.7,0.5-1.1c0.4-0.4,1-0.6,1.5-0.8l1.8-0.6c1.2-0.4,2.3-0.8,3.5-1.1
			c4.7-1.3,9-2.3,12.5-2.9c4.9-0.9,7.9-1.1,9.7-1.7c-0.3-0.8,0.4-1.7,1-2.7c1,0.2,1.2-0.1,1.5-0.4c0.2-0.3,0.8-0.7,1.9-0.8
			c2.5,1.2,7.7,0.7,9.5,0.3c2.1-0.5,2.1-1.1-0.6-1.2c8.2-2,16.6-3.1,24.1-4.6c3.4-0.9,6.8-1.8,10.2-2.7c1.5-0.4,2.6-0.6,3.7-0.6
			c0.2,0,0.5,0,0.7,0c0.2,2.3,0.1,1.8,0,0c0.3,0,0.5,0,0.8,0.1c0.2,0,0.4,0.1,0.7,0.1l0.3,0.1l0.2,0l0.1,0c0,0,0,0,0.2,0
			c2.1-0.5,4.2-1.4,5.9-2.9c0.8-0.7,1.5-1.5,2.1-2.3c0.5-0.8,1-1.6,1.2-2.3c1.1-3.1,0.7-5.6,0-7.6c-0.8-2-2.1-3.7-3.7-5
			c-0.8-0.6-1.7-1.2-2.6-1.6c-0.9-0.4-1.8-0.7-2.7-0.9c-0.4-0.1-0.9-0.2-1.4-0.3c-0.4-0.1-0.8-0.1-1.3-0.1c-0.4,0-0.9,0-1.3,0
			c-0.2,0-0.2,0-0.4,0c-0.4,0-0.8-0.1-1.4-0.1c-1-0.1-2.4-0.1-4.4,0c-2-1.1-20,3.1-22.3,2.9l1.3-0.3c-6.7,0.3-11.9-0.6-17.7-1
			l6.1-1.9c2.7-0.9,5.2-1.8,7.9-2.8c2.4-0.9,4.5-1.8,6.8-2.8c0.3-0.1,0.5-0.2,0.7-0.3l0.6-0.3l1.2-0.7l2.5-1.4
			c1.3-0.9,2.3-1.7,3.3-2.6c1-0.6,2-1.3,3-1.9c0.5-0.3,1-0.6,1.4-0.8c0.4-0.2,0.7-0.4,1-0.6c2-2.1-0.3-1.2,0.7-2.7l1.9-0.4
			c-0.2-0.5,0-1,0.2-1.4c0.2-0.4,0.5-0.9,0.8-1.3c0.2-0.2,0.3-0.4,0.4-0.6c0.1-0.2,0.2-0.4,0.3-0.8c0.1-0.7,0.1-1.9-0.4-3
			c-0.3-0.1-0.6-0.6-0.8-1c-0.1-0.2-0.2-0.4-0.3-0.6c-0.1-0.1-0.1-0.2-0.2-0.3c0.7-0.1,0.6-0.4,0.4-0.6c-0.1-0.1-0.2-0.2-0.2-0.3
			c0-0.1,0.2-0.2,0.6-0.3l-0.1,0c-0.1-0.3-0.3-0.4-0.1-0.8c-0.3-0.1-1-0.4-2.1-0.8c-0.6-0.2-1.2-0.4-2-0.6c-0.8-0.3-1.8-0.5-2.7-0.8
			c-0.5-0.1-1.1-0.3-1.6-0.4c-0.6-0.1-1.1-0.3-1.7-0.4c-1.1-0.2-2.1-0.4-3.4-0.7c-2.4-0.4-4.2-0.6-4.9-0.7c-0.1-0.1-0.3-0.3-0.5-0.4
			c-3-0.8-6.4-0.3-5.3,0.4l-1.7-0.5l-0.4-0.1l-0.7-0.1l-1.3-0.1l0.8,0l-2.4-0.2l-3.3,0c-0.9-0.1-1.2-0.6,1.8-1.1
			c-4.6,0.4-8.8,0.6-12,0.3c3.8,0.4,8.1,0.8,12.5,1.2c0.9,0.2,1.8,0.4,2.7,0.6c0.6,0.3,1,0.6,1.5,1c0.4,0.3,0.9,0.6,1.3,0.9l0.3,0.2
			c0.1,0.1,0.1,0.2,0.2,0.2l0.3,0.5c-0.3,0-0.7-0.1-1-0.1c-0.3-0.1-0.6-0.1-1-0.2c-0.8-0.2-1.5-0.4-2.2-0.6
			c-0.7-0.2-1.5-0.4-2.2-0.7c-0.9-0.1-2-0.2-3-0.2c-0.1,0-0.2-0.1-0.4-0.1c-0.8-0.2-2-0.3-3.5-0.5c-1.4-0.2-3-0.4-4.8-0.5
			c-0.9-0.1-1.8-0.2-2.7-0.3c-0.9-0.1-1.8-0.2-2.7-0.3c-1.9-0.2-3.7-0.4-5.4-0.6c-0.9,0-2,0.3-3.3,0.5c-1.3,0.2-2.6,0.3-4.2-0.1
			c-0.5-0.5-1.6-0.5-2.8-0.6c-1.2,0-2.6-0.1-3.9-0.5c1.9-0.1,3.8,0,5.6,0.1c1.8,0.1,3.6,0.2,5.4,0.4c0.3-0.5-1.8-0.8-4.4-1
			c-2.5-0.3-5.4-0.5-6.8-0.7c-0.8,0.1-3-0.1-5.5-0.3c-2.5-0.2-5.4-0.5-7.7-0.6c0.5-0.2,0.6-0.4,0.3-0.5c-0.1-0.1-0.4-0.1-0.6-0.2
			c-0.1,0-0.3-0.1-0.5-0.1c-0.1,0-0.2,0-0.2,0l-0.1,0c-0.2-0.1-0.5-0.1-0.8-0.2c-0.3,0.1-0.6,0.1-1,0.1c0.1,0,0.2,0,0.3,0
			c0.2,0,0.4-0.1,0.6-0.1c-0.6-0.1-1.3-0.3-1.8-0.5c-1.6-0.3-2.8,0-2.2,0.4c-0.2,0.2,0.1,0.4,0.5,0.6c-0.5,0.1-1,0.1-1.5,0.2
			c-3.7,0.4-7.2,0.7-6.4,0.8c0.5,0.2,0.5,0.3,0.4,0.5c-0.2,0-0.4,0.1-0.3,0.3c-0.3,0.2-0.5,0.4,0.2,0.6l0.7-0.2
			c3.6,0.6,1.9,1.8,0.2,3.1c-1.8,1.4-3.7,2.8,0.8,3.5c-3.5-1.8,1.5-1.2,5.4-0.9c0.2,0.2,0.6,0.6,1.5,0.9c0.8,0.4,1.8,0.7,3.5,1.1
			c2.8,0.2,1.8-0.3,2.5-0.6c1.5,0.4,4.4,1,3.6,1.6c1.3-0.3,2.1-0.1,2.9,0.2c0.8,0.3,1.5,0.6,2.9,0.6c2.7-0.2,0.2-0.4,2.2-0.6
			c3.4,0.3,8.1,0.8,10.8,1c0,0.3,0.2,0.8-0.2,1.3c-0.4,0.5-1.2,1-3.1,1.4c-2-0.2-1-0.5,0-0.8c1-0.3,2.1-0.6-0.6-0.6
			c-0.2,0.8-1.4,0.8-2.9,0.7c-1.5,0-3.3-0.2-4.4,0.3c0.6,0.7,3.2,0.9,5.9,0.9l-0.1-0.2c1.4,0,3.5,0,5.3,0.1c1.3,0.1,2.4,0.3,2.6,0.6
			c-1.7,0.4-1.7,0.8-3.4,0.8l2.4,0.2c0.7-0.1,1.5-0.3,1-0.4c2.3-0.3,3-0.1,3.2,0.2c-0.6,0.2,4.4-0.1,10.1-0.6c5.6-0.4,11.9-1,11-0.9
			c1.1,0,1.1,0.1,1.2,0.2c-2.5,0.1-6.3,0.4-9.8,0.6c-6.4,0.4-11.8,0.7-10.3,0.7c0,0.1,1.8,0.1,4.6-0.1c2.8-0.1,6.8-0.4,10.9-0.7
			c4.1-0.3,8.2-0.6,11.4-0.8c0.8,0,1.5-0.1,2,0c0.6,0.1,1,0.4,1.2,0.7c0.4,0.6,0.1,1.1-0.4,1.3c0.1,0.3,0.1,0.7,0,1
			c-0.1,0.3-0.2,0.5-0.2,0.7c-0.1,0.3,0.3,0.3,1.7,0.1c-1.8,0.7-2.8,0.7-3.8,0.8c-1,0-2.2,0-4.1,0.6c0.3,0,1.4-0.2,0.7,0.1l-4.5,1.1
			c0.1,0.3-0.5,0.7-1.4,1.2c-0.5,0.2-1,0.5-1.5,0.7c-0.6,0.2-1.2,0.5-1.8,0.7c-2.4,0.9-4.6,1.7-4.6,2.4c-0.8-0.4-3.2-0.7-3.1-1.4
			l1.5-0.2c-0.3-0.1,0.7-0.7-1.5-0.6c-1.7,0.4-2.8,0.8-3.5,1.1c-0.7,0.3-1.1,0.6-1.2,1c-0.9,0.2-1.8,0.3-2.6,0.4c0.2,0,0.5,0,0.7,0
			c-1.8,0.2-1.9,0.2-2.4,0.1c-0.1,0-0.2,0-0.3,0c-3.2,0.2-4,0.8-5.1,1.5c-1,0.7-2.5,1.6-5.2,2c-0.5,0.4,0.5,0.1-0.1,0.6
			c-5.1,0.9-8.2-1.6-12-0.6c-0.2,0.8-0.1,1.1,2.3,1c-1.1,0.3-2.1,0.6-3.1,0.9c0.3-1.2-1.5-0.9-2.9-0.8c-0.7,0.1-1.4,0.1-1.9,0
			c-0.5-0.1-0.7-0.4-0.4-1c-0.5,0-1.1,0.1-1.7,0.3c-0.3,0.1-0.6,0.3-0.9,0.4l-0.2,0.1l-0.3,0.2c-0.3,0.2-6.9,2.3-7.2,2.5
			c0,0.5,0.1,1.4-2.7,2.9c-2.1,0.8-2.9,1.2-3.6,1.5c-0.7,0.3-1.4,0.5-3.1,1.4c-1.2,0-0.2-1-0.7-1.3c-1.1,1-1.9,1.6-2.7,2.1
			c-0.4,0.2-0.7,0.4-1.1,0.5c0,0-0.2,0.1-0.3,0.2l-0.4,0.3c-0.3,0.2-0.5,0.4-0.8,0.7c-0.5,0.5-1,1-1.4,1.5c-1.7,2.2-2.8,5.2-2.2,8.6
			c0.3,1.7,1.1,3.6,2.8,5.4c0.8,0.9,1.9,1.8,3.2,2.6c1,0.6,2.1,1,3.4,1.4l5.8,1.2c-8.4-2.7-18.5-12.2-14.3-19.3
			c0.5-0.8,1.1-1.6,1.8-2.3c0.3-0.3,0.7-0.6,1-1l0.5-0.4l0.1-0.1l1-0.7l2.1-1.4c1.4-1,2.8-1.7,4.2-2.5l2.1-1.2
			c0.7-0.4,1.4-0.7,2.2-1.1c-0.8,0.3-1.7,0.6-2.5,0.9c-0.8,0.4-1.7,0.7-2.5,1.1c-0.8,0.4-1.7,0.8-2.6,1.2c-0.8,0.5-1.7,0.9-2.5,1.4
			c-0.8,0.5-1.7,0.9-2.5,1.4c0,0-0.1,0.1-0.2,0.2l-0.3,0.3c-0.2,0.2-0.4,0.4-0.7,0.6c-0.4,0.4-0.8,0.8-1.2,1.3c-0.8,0.9-1.5,2-2,3.1
			c-1.1,2.2-1.5,4.7-1.2,7c0.3,2.3,1.1,4.5,2.6,6.5c1.4,2,9.8,4.7,12.3,5.9c0.1,0,0.1,0.1,0.2,0.1c-1.2,0.4-2.5,0.9-3.6,1.3
			l-4.1,1.7l-4.2,1.7c-1.4,0.6-2.7,1.2-4.1,1.8c-0.2,0.1-0.4,0.2-0.8,0.4c-1.2,0.7-2.5,1.4-3.9,2.2c-1,0.8-2,1.7-3.1,2.7
			c-0.5,0.5-1.1,1-1.7,1.5c-0.4,0.5-0.8,1-1.2,1.5c-0.4,0.5-0.8,1-1.1,1.5c-0.3,0.5-0.9,1.1-1,1.6c-0.5,1-1,2.1-1.5,3.2
			c-0.1,0.3-0.2,0.5-0.3,1c0,0.5,0,1.1,0.1,1.7c0.1,0.6,0.2,1.2,0.4,1.6c0.2,0.4,0.3,0.9,0.5,1.2c0.7,1.6,1.6,2.7,2.4,3.6
			c0.4,0.5,0.8,0.9,1.2,1.3c0.4,0.4,0.8,0.7,1.3,1.1c1.1,0.7,2.1,1.5,3.1,2.2c1.5,0.8,3,1.6,4.4,2.3c0.3,0.2,0.9,0.4,1.5,0.5
			c0.6,0.2,1.1,0.4,1.7,0.5c1.1,0.4,2.2,0.7,3.3,1.1l0.8,0.3l0.4,0.1l0.2,0.1c0.1,0,0.2,0,0.3,0c0.8,0.1,1.6,0.2,2.4,0.3
			c1.6,0.2,3.2,0.4,4.8,0.6c0.8,0.1,1.6,0.2,2.4,0.3c0.8,0.1,1.5,0.2,2.4,0.2c1.8,0.1,3.5,0.2,5.2,0.3c3.4,0.2,6.6,0.4,9.9,0.5
			c6.2,0.2,11.7,0.5,16.5,0.7c-2.4,0.7-4.9,1.3-7.4,2c-1,0.3-2.1,0.6-3.1,0.9c0.2-1,0.2-0.8,0,0c-0.5,0.1-1,0.3-1.5,0.4l-2.3,0.6
			l-1.2,0.3l-0.6,0.2l-0.5,0.2c-0.4,0.1-0.8,0.3-1.2,0.4c-1.6,0.6-3.2,1.7-4.3,3.1c-1.1,1.3-1.8,2.9-2.1,4.4
			c-0.2,1.5-0.1,3.1,0.4,4.6c0.6,1.5,1.5,2.9,2.9,4.1c1.4,1.1,3.1,2,4.7,2.3l0.6,0.1l0.2,0l0.3,0l0.6,0.1l2.5,0.4
			c0.7,0.1,1.4,0.2,2.1,0.3c0.4,1.3,0.5,1.6,0,0c2.6,0.4,5.3,0.7,7.9,1c1.7,0.2,3.3,0.3,5,0.5l1.3,0.1l0.6,0l0.3,0l1.4,0.1
			c3.7,0.1,7.7,0.2,12.2,0.1c5.2-0.1,10.9-0.3,17.5-0.6l0.8-0.4c1.5-0.1,2.9-0.2,4.3-0.3c0.8-0.1,1.6,0,2.2,0.2
			c0.7,0.3,1.2,0.7,1.4,1.1c0.3,0.4,0.3,0.9,0.2,1.1c-0.2,0.2-0.4,0.4-0.6,0.6c-0.4,0.4-0.9,0.9-1.5,1.3c-1.2,1-2.7,2-4.8,3.3
			c-2.1,1.2-4.7,2.5-7.7,3.9c-2.2,2.1-6.3,4.9-10.3,7.8c-3.9,2.8-8,5.9-8.9,7.9c-5,2.8-8.3,4.9-11.6,7.1c-1.6,1.1-3.3,2.2-5.1,3.4
			c-0.2,0.1-0.5,0.3-0.7,0.4c-0.1,0.1-0.1,0.1-0.2,0.2c-0.1,0.1-0.2,0.2-0.2,0.3c-0.1,0.1-0.2,0.2-0.3,0.3c-0.4,0.5-0.7,1.1-0.8,1.5
			c0.4-0.1,0.6,0.2,0.8,0.3l1.2,0.4c0.5,0.2,1.1,0.4,1.5,0.6c0.1,0,0,0,0.1,0c0,0,0.1,0,0.1-0.1c0,0,0.1-0.1,0.1-0.1
			c0.5,0.8,0.1,0.2,0,0c0,0,0,0,0,0c0,0,0.1,0.1,0.1,0.2l0,0l0,0l0.1,0c0.6-0.2,1.3-0.4,2.1-0.6l-0.4-0.3l10.2-4.5l5.1-2.3l2.5-1.1
			l1.3-0.6l0.6-0.3l0.9-0.4c11.1-5.3,33.2-10.8,45-16.6l2.2-1.1l1.1-0.5l1-0.6c0.6-0.4,1.4-0.7,1.9-1.1l1.5-1.1l0.7-0.5
			c0.2-0.2,0.4-0.4,0.6-0.5l1.1-1c0.8-0.7,1.3-1.3,1.9-2l0.8-1c0.3-0.3,0.4-0.6,0.7-0.9l1.2-1.7c0.7-1,1.2-2,1.8-3l0.7-1.3l0.3-0.6
			c0.1-0.2,0.2-0.4,0.2-0.8c0.1-0.8-0.1-1.9-0.4-2.9c-0.4-1-0.8-1.7-1.1-1.9c-0.6-0.6-1.2-1.1-1.9-1.7c-0.4-0.3-0.7-0.6-1.1-1
			l-1.4-1.1c-0.6-0.4-1.7-0.9-2.6-1.3l-1.4-0.7l-1.8-0.7l-1.9-0.7l-0.5-0.2l-0.2-0.1c-0.1,0-0.2,0-0.3-0.1l-1.4-0.2l-2.7-0.5
			l-1.4-0.2c-0.2,0-0.4-0.1-0.7-0.1l-0.9,0c-3.3,0-17.1-0.1-20.3-0.2c4.9-1.5,9.6-3,14-4.4c4.4-1.5,8-1.3,12-1.8
			c4.3-1.3,8.9-2.5,13.7-3.8c2.4-0.6,4.8-1.3,7.3-2l1.9-0.5l0.9-0.2c-0.1,0,1-0.3,1.8-0.6c0.4-0.2,0.8-0.3,1.2-0.5
			c0.4-0.2,0.8-0.4,1.2-0.7c0.4-0.2,0.8-0.5,1.2-0.8c0.4-0.3,0.8-0.6,1.1-0.9c0.7-0.6,1.4-1.4,1.9-2.1c1.1-1.6,1.8-3.3,2.1-4.9
			C374.7,126.4,373.9,123.3,371.8,120.4z M246.1,41.1c-1-0.1-0.7-0.4,0.2-0.7C246.5,40.7,246.4,41,246.1,41.1z M253.8,39
			c-0.5,0-1,0-1.5,0c0.3-0.1,0.6-0.1,0.8-0.2c-0.9-0.5-3.8-0.7-5.4-0.8c-0.1,0.4,0.5,0.5,0.4,0.7c-0.5,0.1-1.3,0.1-2,0.1
			c-0.2,0-0.5,0-0.7,0l-0.4-0.1c-0.5,0-1.1,0-1.6,0c-0.4-0.1-0.7-0.2-0.9-0.4c0.4-0.1,1.2,0.1,1.8,0.2c-1.3-0.2,2.2-0.7,5.7-1.2
			c1.4,0.5,4.3,0.9,3.9,1.4c0,0,0.1,0,0.1,0c0.1,0,0.3,0,0.4,0c0.1,0,0.1,0,0.1,0l1.7,0.4C255.6,39,254.7,39,253.8,39z M269.4,208.7
			l-0.2-0.4l-0.1-0.1l0,0l0,0C269.2,208.4,269.3,208.5,269.4,208.7C269.4,208.7,269.4,208.7,269.4,208.7z M270.7,210.3L270.7,210.3
			C270.7,210.3,270.7,210.3,270.7,210.3C270.7,210.3,270.7,210.3,270.7,210.3z M273.1,143.5c1,0,1.9-0.1,2.8-0.1
			c-0.3,0.1-0.5,0.1-0.8,0.2C274.5,143.6,273.8,143.5,273.1,143.5z"/>
		<linearGradient id="SVGID_4_" gradientUnits="userSpaceOnUse" x1="253.3951" y1="38.6682" x2="253.4668" y2="38.8324">
			<stop  offset="1.582485e-02" style="stop-color:#07892F"/>
			<stop  offset="0.209" style="stop-color:#F2C000"/>
			<stop  offset="0.4441" style="stop-color:#EC7710"/>
			<stop  offset="0.6341" style="stop-color:#DB121A"/>
			<stop  offset="0.815" style="stop-color:#752C64"/>
			<stop  offset="0.9763" style="stop-color:#0E47AE"/>
		</linearGradient>
		<path class="st3" d="M253.8,38.6c-0.1,0-0.1,0-0.2,0c-0.2,0-0.3,0.1-0.5,0.1c0.1,0,0.1,0.1,0.2,0.1
			C253.5,38.8,253.7,38.7,253.8,38.6z"/>
	</g>
</g>
<rect x="-46.4" y="234.6" class="st17" width="685.1" height="37.3"/>
<text transform="matrix(1 0 0 1 11.149 264.3263)" class="st6 st18 st19 st20">pueblos originarios</text>
<g>
	<rect x="94.6" y="283.2" class="st17" width="403.1" height="44.6"/>
	<text transform="matrix(1 0 0 1 108.2149 297.3142)" class="st7 st21 st22 st23">memorias &amp; sociedad</text>
</g>
<line class="st8" x1="14.4" y1="289.8" x2="101.5" y2="289.8"/>
<line class="st8" x1="14.4" y1="284.5" x2="101.5" y2="284.5"/>
<line class="st8" x1="490.3" y1="289.8" x2="577.5" y2="289.8"/>
<line class="st8" x1="490.3" y1="284.5" x2="577.5" y2="284.5"/>
<g>
	
		<image style="overflow:visible;opacity:0.55;" width="141" height="132" xlink:href="5A571DF29D2217CC.png"  transform="matrix(1 0 0 1 215.0116 67.7552)">
	</image>
	<g>
		<g>
			<g>
				<path class="st4" d="M266,82.1l0.3,0.1c0,0,0.3,0,0.5-0.1c0.2-0.1,0.4-0.2,0.5-0.2c0.1,0,0.2-0.3,0.2-0.3l0-0.3l0.4-0.2
					c0,0,0.3,0,0.4-0.1c0.1,0,0.5-0.3,0.5-0.3l0.4-0.3c0,0,0.3-0.2,0.4-0.1c0.1,0,0.2,0.4,0.2,0.4s0,0.2,0.3,0.2
					c0.3,0,1.1-0.2,1.1-0.2l0.4-0.2c0,0,0.9,0,0.9,0.1c0,0,0.3,0.3,0.3,0.3l0.5,0.3l0.8,0l0.4,0l0.1,0.4l0.2,0.4l0.6,0l1.2-0.3
					l0.1,0l0.2,0.4l-0.1,0.1l-0.4,0.4c0,0-0.1,0-0.1,0.2c-0.1,0.2,0,0.3,0,0.3l0.5,0.1l0.5-0.3c0,0,0.3-0.2,0.5-0.3
					c0.2,0,0.5-0.1,0.9-0.1c0.4,0,0.8,0,1.1-0.1c0.3,0,0.7,0,0.8-0.2c0.1-0.2,0.2-0.3,0.4-0.4c0.2-0.1,0.4-0.3,0.4-0.3l-0.1-0.3
					l-0.8-0.1l-0.9,0c0,0-0.1-0.2-0.1-0.3c0-0.1-0.1-0.3-0.1-0.3l-0.7-0.1l-1,0.1l-0.8-0.3l-1-0.5c0,0-0.6-0.3-0.7-0.3
					c-0.1,0-0.5,0.1-0.5,0.1s-0.6,0-0.8,0c-0.1,0-0.8-0.2-1-0.2c-0.2-0.1-0.7-0.2-1-0.2c-0.3,0-1,0.1-1,0.1l-0.6-0.1l-1.1,0.1
					l-1,0.5l-0.9,0.3l-0.4,0.5l-0.3,0.4c0,0,0,0.3,0.1,0.3c0,0-0.2,0.2-0.3,0.2c-0.1,0-0.6,0.2-0.6,0.2S265.9,82.1,266,82.1z"/>
				<g>
					<path class="st5" d="M266,82.4c0.4,0.1,0.6,0.1,1-0.1c0.2-0.1,0.3-0.1,0.4-0.3c0.1-0.1,0.1-0.3,0.1-0.3
						c0.3-0.3,0.9-0.4,1.3-0.6c0.2-0.1,0.5-0.4,0.7-0.4c0.4,0,0.2,0.4,0.4,0.6c0.2,0.2,0.9,0,1.2-0.1c0.2-0.1,0.4-0.2,0.6-0.3
						c0.2,0,0.7,0,0.9,0.1c0.3,0.1,0.4,0.4,0.7,0.5c0.3,0.1,0.5,0.1,0.8,0c0.1,0,0.2,0,0.3,0c0.3,0.1,0.1-0.1,0.2,0.2
						c0.2,0.2,0.1,0.5,0.4,0.6c0.2,0.1,0.5,0,0.7,0c0.3,0,0.7-0.2,0.9-0.2c0.2,0,0.3,0.2,0.4,0.4c0-0.2,0-0.3,0-0.5
						c-0.3,0.3-0.7,0.6-0.7,0.9c0,0.2,0,0.4,0,0.6c0,0,0,0,0,0c0.3,0.1,0.4,0.1,0.7,0c0.4-0.2,0.6-0.5,1-0.5c0.7-0.1,1.3-0.1,2-0.1
						c0.6-0.1,0.9-0.5,1.3-0.9c0,0,0-0.4,0-0.5c-0.1-0.3-0.1-0.3-0.5-0.4c-0.3,0-0.5-0.1-0.8-0.1c-0.4,0-0.5,0.1-0.7-0.2
						c0-0.1,0-0.3-0.1-0.4c-0.1-0.1-0.5-0.1-0.6-0.1c-0.5,0-1,0.1-1.5-0.1c-0.5-0.2-1-0.4-1.5-0.7c-0.3-0.1-0.6-0.3-0.9-0.2
						c-0.3,0-0.7,0.1-1,0.1c-0.9-0.1-1.6-0.4-2.5-0.3c-0.6,0.1-1.1,0-1.7,0c-0.6,0.1-1,0.3-1.6,0.5c-0.3,0.1-0.6,0.1-0.9,0.3
						c-0.2,0.1-0.3,0.4-0.4,0.6c-0.3,0.4-0.3,0.7-0.2,1.2c0-0.2,0-0.3,0-0.5c-0.3,0.4-0.8,0.2-0.9,0.7C265.9,82,265.9,82.3,266,82.4
						c-0.1-0.1,0.1-0.4,0-0.5c0,0,0,0-0.1-0.1C266,82,266,82.1,266,82.4c0-0.6,0.7-0.4,0.9-0.8c0.1-0.2,0-0.6-0.1-0.8
						c0,0.2,0,0.3,0,0.5c0.2-0.4,0.5-0.8,0.9-1c0.5-0.2,1-0.4,1.5-0.6c0.4-0.1,0.9-0.2,1.3-0.2c0.6,0,1.2-0.1,1.8,0
						c0.8,0,1.5,0.4,2.3,0.4c0.2,0,0.5-0.1,0.8-0.1c0.2,0,0.5,0.2,0.7,0.3c0.5,0.2,0.9,0.5,1.4,0.6c0.5,0.2,0.9,0,1.4,0
						c0.1,0,0.5,0,0.6,0.1c0.1,0.1,0.1,0.1,0.2,0.3c0.2,0.4,0.2,0.3,0.6,0.3c0.3,0,0.5,0,0.7,0.1c0.4,0.1,0.5,0,0.6,0.4
						c0-0.2,0-0.3,0-0.5c-0.4,0.3-0.7,0.8-1.2,0.9c-0.7,0.1-1.4,0.1-2.1,0.1c-0.4,0-0.6,0.3-1,0.5c-0.2,0.1-0.7,0.3-0.8-0.1
						c0,0.2,0,0.3,0,0.5c0.1-0.4,0.4-0.6,0.7-0.9c0,0,0-0.5,0-0.5c-0.1-0.2-0.2-0.4-0.4-0.4c-0.3,0-0.7,0.1-0.9,0.2
						c-0.2,0-0.5,0.1-0.7,0c-0.3-0.1-0.2-0.3-0.4-0.6c-0.2-0.2,0.1-0.1-0.2-0.2c-0.1,0-0.2,0-0.3,0c-0.3,0-0.5,0-0.8,0
						c-0.3-0.1-0.5-0.4-0.7-0.5c-0.2-0.1-0.7-0.1-0.9-0.1c-0.2,0-0.4,0.2-0.6,0.3c-0.3,0.1-0.9,0.3-1.2,0.1
						c-0.3-0.2-0.1-0.5-0.4-0.6c-0.2,0-0.5,0.3-0.7,0.4c-0.4,0.3-1.1,0.3-1.3,0.6c-0.1,0.1-0.1,0.3-0.1,0.3
						c-0.1,0.2-0.2,0.2-0.4,0.3c-0.4,0.2-0.6,0.2-1,0.1C266.1,81.9,266,82.4,266,82.4z"/>
				</g>
			</g>
			<g>
				<path class="st4" d="M282.4,84.7c0,0,1-0.1,1.1-0.1c0.1,0,0.4-0.1,0.7-0.2c0.3-0.1,1.2-0.1,1.2-0.1l0.1,0.2c0,0,0.3,0.3,0.4,0.3
					c0.1,0,0.4,0,0.6-0.2c0.2-0.2,0.5-0.5,0.5-0.5l0.3-0.4c0,0,0.5-0.1,0.7-0.1c0.1,0,0.5-0.4,0.5-0.4s0.1-0.1,0.5-0.2
					c0.4-0.1,0.8,0.1,0.8,0.1c0.1,0,0.2-0.1,0.2-0.2c0,0,0-0.1,0-0.2c0-0.1-0.3-0.6-0.5-0.6c-0.2,0-0.5-0.1-0.8-0.1
					c-0.3,0-0.5,0.1-0.4-0.1c0.1-0.2,0.2-0.4,0.2-0.4c0-0.1-0.2-0.4-0.2-0.4s-0.4,0-0.7,0.1c-0.3,0-0.8,0.1-0.8,0.1l-1.2,0
					c0,0-0.2,0-0.5,0c-0.3,0.1-1,0.6-1,0.6l-0.4,0l-0.4-0.1l-0.7,0l-0.5,0.3c0,0-0.2,0.2-0.1,0.4c0,0.2,0.1,0.3,0.1,0.4
					c-0.1,0.1-0.4,0.2-0.4,0.2s-0.1,0.1,0,0.2c0.1,0.1,0,0.2,0.3,0.3c0.3,0.1,0.6,0,0.6,0l0.3-0.1c0,0,0.4-0.3,0.7-0.3
					c0.3,0,0.1,0,0.5,0c0.4,0,0.4-0.2,0.5,0.1c0.1,0.3,0,0.4,0,0.4l-0.3,0.1c0,0-0.2,0.1-0.4,0.1c-0.3,0-0.6,0.1-0.6,0.1l-0.3,0
					l-0.4,0c0,0,0,0-0.3-0.1c-0.2-0.1-0.4-0.1-0.4-0.1l-0.4,0.1c-0.1,0.1-0.1,0.2-0.1,0.2l0,0.2L282.4,84.7z"/>
				<g>
					<path class="st5" d="M282.4,84.9c0.3,0,0.6-0.1,1-0.1c0.4-0.1,0.8-0.2,1.2-0.3c0.2,0,0.5-0.1,0.7-0.1c0.2,0,0.1,0.1,0.2,0.2
						c0.3,0.4,0.7,0.4,1.1,0.1c0.2-0.1,0.3-0.3,0.5-0.4c0.1-0.1,0.2-0.3,0.3-0.3c0.3-0.2,0.7-0.1,0.9-0.3c0.3-0.2,0.6-0.4,1-0.4
						c0.2,0,0.5,0.1,0.7,0.1c0.2-0.1,0.2-0.3,0.2-0.4c0-0.3,0-0.6-0.2-0.9c-0.2-0.2-0.4-0.2-0.6-0.2c-0.1,0-0.7,0-0.7,0
						c0,0.2,0,0.3,0,0.5c0.1-0.2,0.2-0.4,0.2-0.6c0-0.1,0-0.2,0-0.3c0-0.1,0-0.2,0-0.3c-0.1-0.2-0.1-0.2-0.3-0.2
						c-0.7,0.1-1.4,0.1-2.1,0.1c-0.3,0-0.6-0.1-0.8,0c-0.4,0.1-0.7,0.4-1,0.5c-0.2,0.1-0.5,0-0.8-0.1c-0.2,0-0.5,0-0.8,0
						c-0.8,0.2-0.7,0.9-0.6,1.5c0-0.2,0-0.3,0-0.5c-0.1,0.2-0.4,0.2-0.5,0.3c-0.1,0.1,0,0.3,0,0.4c0,0.1,0,0.3,0.1,0.4
						c0.2,0.2,0.6,0.2,0.8,0.1c0.4-0.1,0.6-0.4,1-0.4c0.2,0,0.4,0.1,0.7,0c0,0,0.2-0.1,0.3-0.1c0.1,0,0.1,0.3,0.1,0.4
						c0-0.1,0-0.2,0-0.3c0,0,0,0,0,0.1c0-0.1,0-0.1,0-0.2c0,0.3-1,0.4-1.1,0.4c-0.3,0.1-0.6,0.1-0.9,0.1c-0.3,0-0.7-0.2-1.1,0
						c-0.2,0.1-0.1,0.6-0.1,0.8c0,0,0,0.1,0,0.1C281.9,84.9,282.1,84.9,282.4,84.9c0,0,0-0.5,0-0.5c-0.2,0-0.4-0.1-0.5-0.1
						c-0.1,0-0.2,0-0.2,0c0,0,0,0,0,0c0,0,0-0.1,0-0.1c0,0,0-0.1,0-0.1c0,0.1,0,0.3,0,0.4c0.2-0.4,0.7-0.2,1-0.2c0.2,0,0.4,0,0.7,0
						c0.4-0.1,0.8-0.1,1.2-0.3c0.2-0.1,0.3-0.1,0.4-0.3c0-0.2,0.1-0.7-0.1-0.8c0,0-0.2,0.1-0.2,0.1c-0.1,0-0.2,0-0.4,0
						c-0.2,0-0.3,0-0.5,0c-0.3,0.1-0.5,0.3-0.8,0.4c-0.2,0-0.4,0-0.5,0c-0.3-0.1-0.4-0.1-0.4-0.4c0,0.2,0,0.3,0,0.5
						c0-0.3,0.4-0.2,0.5-0.5c0-0.3-0.1-0.5-0.1-0.8c0,0.2,0,0.3,0,0.5c0.1-0.6,0.8-0.7,1.3-0.7c0.3,0,0.5,0.2,0.8,0.1
						c0.3-0.1,0.6-0.3,0.8-0.5c0.5-0.3,1.2-0.1,1.8-0.1c0.3,0,0.6,0,0.9-0.1c0.2,0,0.5-0.1,0.7-0.1c0.1,0,0.2,0.3,0.2,0.3
						c0-0.2,0-0.3,0-0.5c0,0.2-0.2,0.4-0.2,0.7c0,0.1,0,0.4,0,0.5c0.1,0,0.4,0,0.5,0c0.2,0,0.4,0,0.6,0.1c0.2,0.1,0.5,0.3,0.5,0.6
						c0-0.2,0-0.3,0-0.5c0,0.2-0.1,0.4-0.3,0.4c-0.1,0-0.2,0-0.3-0.1c-0.2,0-0.4,0-0.5,0c-0.4,0.1-0.6,0.2-0.9,0.4
						c-0.3,0.2-0.7,0.1-0.9,0.3c-0.1,0.1-0.2,0.2-0.3,0.3c-0.1,0.2-0.3,0.3-0.5,0.4c-0.4,0.3-0.8,0.2-1-0.1
						c-0.1-0.1-0.1-0.2-0.2-0.2c-0.2,0-0.5,0-0.7,0.1c-0.4,0-0.8,0.2-1.2,0.3c-0.3,0-0.6,0.1-1,0.1
						C282.4,84.4,282.4,84.9,282.4,84.9z"/>
				</g>
			</g>
			<g>
				<path class="st4" d="M347,112.9c-0.2-0.4-0.3-0.7-0.2-0.9c0.1-0.2,0.2-0.3,0.1-0.6c-0.1-0.2-0.6-0.7-0.6-0.7l-0.4-0.8l-0.4-0.4
					l-0.7-0.3l-1.1,0.1c0,0-0.5,0.2-0.6,0.1c-0.2,0-0.8-0.3-0.8-0.3s-0.6-0.5-1-0.9c-0.4-0.5-1.1-0.9-1.1-0.9l-0.3,0.1l-0.7-0.2
					l-0.4-0.1l-2.3,0.5l-0.8,0l-0.8,0.1l-1.4-0.3l-0.8,0.5l-0.1,0.3l-0.5,0.1l-0.2,0.3l-0.2,0.4c0,0-0.6,0-0.6-0.1
					c0-0.1-0.3-0.4-0.2-0.6c0.1-0.1,0.6-0.4,0.6-0.4l0.2-0.3c0,0-0.2-0.4-0.3-0.6c-0.1-0.2-0.6-0.9-0.6-0.9l-0.5,0.1l-0.2,0.3
					c0,0-0.4-0.1-0.5-0.3c0-0.1-0.3-0.3-0.3-0.3l-1.3,0l-1.5,0l-0.6,0.2c0,0-0.2,0.3-0.2,0.4c0,0.1-0.8,0.8-0.8,0.8l-0.2,0.4
					l-0.5,0.3l-1.9,0.6l-1.6-0.1l-0.3-0.2l-0.8,0.1l0.3-0.8l0.4-0.6l0.2-0.8c0,0,0-0.4,0.3-0.7c0.2-0.2,0.6-0.6,0.6-0.6l0.9-0.7
					c0,0,0,0,0-0.2c0-0.2,0.1-0.5,0.1-0.6c0.1-0.1,0.1-0.6,0.1-0.6l-0.9-0.5l-0.6-0.7c0,0-0.3-0.8-0.4-0.9c-0.1-0.2-0.9-1.1-0.9-1.1
					l0-0.4l-0.2,0l-0.6,0l-0.4-0.3l-0.8-0.8L317,98c0,0-0.4,0.2-0.8,0c-0.2-0.1-0.4-0.1-0.6-0.2c-0.3-0.1-0.5-0.1-0.6-0.1
					c-0.2,0-0.8,0.1-0.8,0.1l-0.7,0.3l-1.4,0.2l-0.4-0.3l-0.3,0c0,0-0.2,0.1-0.4-0.1c0,0-0.1-0.1-0.1-0.1c-0.2-0.3-0.8-0.6-0.8-0.6
					l-0.7,0c0,0-0.4,0-0.5-0.2c-0.1-0.1-0.4-0.7-0.5-1c-0.1-0.3-0.3-0.5-0.5-0.7c-0.2-0.2-0.8-0.5-1-0.4c-0.1,0-0.4,0.1-0.5,0.2
					c-0.1,0.1-0.2,0.1-0.2,0.1l-0.7,0.1l-0.4-0.5l0.1-0.6l-1-0.6l-0.8-0.3l-0.8,0.2l-0.5,0l-0.6-0.5c0,0,0-0.1,0.2-0.2
					c0.1-0.1,0.2-0.1,0.3-0.2c0.1-0.1,0.2-0.2,0.2-0.2l-0.5-0.3c0,0-0.4,0-0.6,0.1c-0.3,0.1-0.8,0.2-0.8,0.2l-0.5,0.4l-0.9,0.1
					c0,0-0.1,0-0.1,0.1c0,0.1-0.2,0.3-0.3,0.4c-0.1,0.1-0.4,0.3-0.4,0.3l-0.8,0.1c0,0-0.5-0.3-0.6-0.4c-0.1-0.1-0.3-0.1-0.3-0.1
					l-1.3,0.2l-0.4,0.3l-0.7,0.2c0,0-0.3,0.3-0.4,0c-0.2-0.3-0.3-0.7-0.3-0.7l-0.5-0.4l-1.1,0.1L291,93c0,0-0.2-0.3-0.2-0.4
					c-0.1-0.1-0.5-0.2-0.5-0.2s-0.3,0.1-0.3,0.2c0,0.1,0,0.4,0.1,0.6c0,0.2-0.2,0.6-0.2,0.6l-0.6,0.4l0,0.3c0,0,0,0.6,0,0.7
					c0,0.1,0,0.4,0.3,0.5c0.2,0.2,0.4,0.3,0.4,0.3s0.1,0,0.1,0.3c0,0.2-0.1,0.3-0.1,0.4c0,0.1-0.5,0.5-0.6,0.4
					c-0.1,0-0.8-0.3-0.8-0.3l-0.2-0.7c0,0,0.1-0.3,0.2-0.4c0.1-0.1-0.1-0.8-0.1-0.9c0-0.1-0.4-0.4-0.4-0.4s-0.3-0.3,0.1-0.6
					c0.2-0.1,0.4-0.2,0.5-0.3c0.1,0,0.1-0.1,0.2-0.1c0.1-0.1,0.2-0.3,0.2-0.3l-0.1-0.3l-0.8-0.5l-0.6,0.4l-0.3,0.3l-0.1,0.4
					l-0.2,0.5c0,0-0.3,0.4-0.7,0.7c-0.4,0.3-0.8,0.5-0.8,0.5s-0.3,0-0.5,0.1c-0.1,0-0.3,0.2-0.3,0.2l-0.2,0.2l-0.4-0.2l0-0.2
					l-0.4,0.1l-0.2,0.3l-0.2,0.6l-0.2,0.7l0.3,0.8l-0.2,0.3l-0.5,0.3l0,0.5l-0.2,0.4l-0.3,0.2l0,0.3c0,0,0.2,0.4,0.2,0.5
					c0,0.1-0.1,0.3-0.1,0.3l-0.3,0l-0.3-0.4c0,0,0-0.2-0.1-0.4c0-0.1-0.1-0.1-0.2-0.2c-0.1-0.1-0.3-0.2-0.5-0.3
					c-0.3-0.2-0.6-0.5-0.8-0.6c-0.2-0.1-0.5-0.1-0.5-0.1l-1,0.2l-0.6,0.1l-0.3,0.3c0,0-0.4,0.3-0.9,0.5c-0.4,0.3-0.7,0.5-0.9,0.5
					c-0.2,0-1,0.2-1,0.2l-0.9,0.1c0,0,0.1-0.2-0.2-0.6c-0.1-0.1-0.2-0.2-0.3-0.3c-0.2-0.1-0.3-0.2-0.5-0.3c-0.2-0.2-0.7-0.2-1.1-0.4
					c-0.4-0.2-0.6-0.2-0.7-0.5c-0.1-0.1-0.1-0.3-0.2-0.5c0-0.1-0.1-0.2-0.1-0.2l0.3-0.5c0,0,0.1-0.3-0.1-0.6
					c-0.2-0.3-0.9-0.9-0.9-0.9l0.2-0.1c0,0,0.4,0,0.5-0.1c0.1-0.1,0.1,0,0.2-0.2c0-0.2-0.1-0.5-0.1-0.5l-0.3-0.4l-0.4-0.5
					c0,0-0.3-0.4,0-0.7c0.3-0.3,0.4-0.5,0.4-0.5l-0.1-0.7l-0.4-0.7l-0.1-0.2l-0.6,0l-0.4-0.3l-0.7-0.2l-0.8,0.1l-0.6,0.2l-0.7-0.1
					l-0.5,0.3l-0.9,0.2l-1.3,0.3l-0.2-0.1l-0.1-0.1l-0.5,0.4l-0.7,0.3l-0.4-0.2c0,0,0-0.1,0.1-0.2c0.1-0.1,0.1-0.2,0.2-0.3
					c0.2-0.2,0.4-0.4,0.4-0.4l-0.1-0.9l-0.4-1.4l0-0.7c0,0,0-0.1,0-0.2c0-0.1,0.1-0.1,0.1-0.1c0.1,0,0.4,0,0.4,0l0.4-0.1l0.2-0.4
					l0.1-0.8l-0.5-0.3c0,0-0.1,0.1-0.1-0.1c0.1-0.2,0.2-0.3,0.2-0.3s0-0.2-0.1-0.6c-0.1-0.3-0.3-0.3,0-0.6c0.3-0.3,0.4-0.4,0.4-0.4
					l-0.2-0.8c0,0-0.3-0.2-0.7-0.1c-0.4,0.1-1.4,0.4-1.4,0.4l-0.6,0.6l-1.2,0.4c0,0-0.3,0.1-0.2,0.2c0,0.1,0,0.3,0.1,0.3
					c0,0.1,0.1,0.3,0.1,0.3l-0.2,1.2l0.1,0.5l-0.1,0.4l-0.4,0.2l-0.3,0.2l0.2,0.5l0,0.3c0,0-0.1,0.1-0.5,0.3
					c-0.4,0.2-0.8,0.4-0.8,0.4l-0.1-0.2l-0.3-0.2l-0.6,0.1l-0.4,0.2l-1.4,0.6c0,0-0.2,0.2-0.5,0.1c-0.3,0-0.4-0.1-0.4-0.1l-0.2,0
					l-0.9-0.1l-1-0.3c0,0-0.2-0.1-0.4-0.3c-0.3-0.3-0.7-0.5-0.7-0.8c-0.1-0.3,0.2-0.3-0.1-0.6c-0.3-0.3-0.7-0.4-0.8-0.4
					c-0.1,0-0.4-0.1-0.4-0.1s0.1-0.4,0.2-0.6c0.1-0.2,0.2-0.4,0.2-0.4l-0.1-0.4l-0.3-0.5l-0.4-0.6c0,0-0.6-0.9-0.5-1.1
					c0-0.2,0.2-0.6,0.2-0.7c0-0.1-0.5-0.6-0.5-0.6l-0.2-0.6l0-0.6l0.4,0.1c0,0,0.4,0.1,0.5,0c0.1-0.1,0.1-0.3,0.1-0.3
					s0.2-0.3,0.2-0.5c0-0.1,0-0.1-0.1-0.2l0,0l-0.8-0.4l-1.2-0.2l-0.8-1.1l-2.5-2.7l-0.7-0.6l-1.3,0.1l-0.6,0.3l-0.4,0.6l-0.5,0.5
					l-0.5,0.2l-0.8-0.1l-0.6-0.6l-0.8-1l-2-1.3l-1.8,0.4l-0.4,0.5l-3.5,0.5l-4.9-0.6l-0.2-0.3l-2.8,0.6c0,0.1,0,0.1,0,0.2
					c0.1,0.3,0.2,0.9,0.2,0.9l0.4,1c0,0,0.4,1.5,0.8,1.7c0.3,0.2,0.9,0.3,1,0.4c0.1,0.1,1,0.4,1.2,0.7c0.2,0.3,0.4,0.5,0.5,0.6
					c0.1,0.1,0.1,0.8,0.1,0.8s0.1,0-0.1,0c-0.3,0-0.6,0-0.6,0l-0.7,0.2c0,0-0.3,0.1-0.1,0.3c0.2,0.2,0.4,0.4,0.5,0.4
					c0.2,0,0.7,0.3,0.7,0.3s0.5,0.3,0.7,0.3c0.2,0,0.5-0.1,0.5-0.1s0-0.2,0.3-0.1c0.3,0.1,0.3,0.1,0.5,0.2c0.3,0.1,0.6,0.2,0.7,0.3
					c0.1,0.1,0.4,0.2,0.4,0.4c0.1,0.3,0.2,0.7,0.2,0.7s-0.3-0.1-0.1,0.6c0.1,0.7,0.1,0.7,0.7,0.9c0.7,0.2,1.8,1.2,2,1.3
					c0.2,0.1,0.4,0.5,0.6,0.3c0.2-0.2,0.5-0.7,0.5-0.7s-0.6-0.6-0.7-0.6c-0.1-0.1-1.1-0.6-1.1-0.6s-0.3,0-0.3-0.2
					c-0.1-0.3-0.1-0.5-0.1-0.5s-0.1-0.2-0.2-0.4c-0.1-0.2-0.3-0.5-0.3-0.5s-0.1-0.3-0.2-0.8c-0.1-0.5-0.4-0.9-0.4-0.9l-0.8-0.3
					c0,0-0.2-0.1-0.6-0.6c-0.3-0.5-0.5-0.5-0.6-0.8c-0.1-0.2-0.1-0.5-0.3-0.7c-0.2-0.2-0.2-0.2-0.7-0.6c-0.5-0.4-0.7-0.6-1-0.9
					c-0.3-0.3-0.5,0-0.6-0.6c-0.1-0.6-0.1-0.5-0.2-1c-0.1-0.4,0.1-1.2,0.1-1.2s0.3,0.2,0.5,0.3c0.2,0,0.8,0,0.8-0.1
					c0.1,0,0.4,0,0.5,0.3c0.1,0.2,0.2,0.6,0.2,0.6s-0.5-0.3,0,0.4c0.6,0.7,1,1.2,1,1.2s0.8,1.3,1.1,1.5c0.4,0.2,0.4,0.2,0.9,0.5
					c0.5,0.3,1,0.1,0.6,0.4c-0.3,0.3-0.3,0.1-0.3,0.3c0,0.2,0.2,0.5,0.4,0.5c0.2,0,0.4,0,0.7,0.1c0.3,0,0.2-0.1,0.3,0
					c0.1,0.1-0.1,0.3,0.4,0.3c0.5,0,0.5,0,0.5,0c0.1,0.3,0.2,0.2,0,0.4c-0.1,0.2-0.4,0.5-0.5,0.6c0,0.1,0.1,0.6,0.1,0.6
					s0.2,0.1,0.5,0c0.3-0.1,0.8-0.2,1-0.1c0.2,0.1,0.7,0.6,0.7,0.6c0,0.1,0.3,0.6,0.5,0.7c0.2,0.1,0.6,0.3,0.6,0.3
					c0,0.1,0.5,0.6,0.6,0.8c0.1,0.1,0.7,0.7,0.8,0.8c0.2,0.1,1.3,0.6,1.4,0.7c0.1,0.1,0.2,0.6,0.2,0.9c-0.1,0.3-0.1,0.9-0.2,1
					c-0.1,0.1-0.3,0.7-0.3,0.7s0.2,0.7,0.3,0.7c0,0.1,0.2,0.5,0.3,0.6c0.2,0.1,1.8,0.9,1.8,0.9s0.6-0.1,0.8,0
					c0.1,0.1,0.6,0.5,0.6,0.5l1.1,0.2l0.8,0l1.4,0.4c0,0,1.6,0.2,1.6,0.2c0,0.1-0.1,0.4,1.1,0.6c1.2,0.2,2.3,0.3,2.5,0.4
					c0.2,0.1-0.4,0.5,0.7,0.3c1.1-0.2,1.4,0,1.9-0.3c0.5-0.2,0.8-0.2,1-0.5c0.3-0.3,0.5-0.5,0.7-0.6c0.1-0.1,1.9,0.1,1.9,0.1
					l1.3,0.8c0,0,0.1,0.2,0.2,0.4c0.1,0.2,0.3,0.5,0.4,0.6c0.2,0.2,0.3,0.4,0.9,0.7c0.6,0.3,1.1,0.4,1.3,0.3
					c0.2-0.1,0.4-0.3,0.7-0.2c0,0,0,0,0.1,0c0.3,0,0.9,0.2,0.9,0.2l0.5,0.3l1.5-0.1c0,0,0.2-0.1,0.6-0.3c0.1,0,0.2-0.1,0.3-0.1
					c0.3-0.1,0.5-0.1,0.6,0c0,0.1,0.1,0.3,0.2,0.4c0,0.1,0.1,0.2,0.1,0.2c0,0.1,0.3,0.8,0.3,0.8l0.6,0.4c0,0,0.4,0.3,0.8,0.8
					c0.2,0.2,0.4,0.4,0.5,0.6c0.1,0.2,0.2,0.3,0.2,0.3l0,0.5c0,0-0.2,0.2,0.1,0.4c0.4,0.2,0.8,0.4,0.8,0.4l0.4-0.1
					c0,0,0.2-0.4,0.2-0.4c0.1,0,0.5,0,0.5,0s0.2,0.3,0.3,0.4c0,0.1,0.5,0.3,0.5,0.3l0.6,0.3l0.2,0.7l0.2,0.2c0,0,0.2-0.1,0.3-0.2
					c0-0.1,0.1-0.2,0.1-0.1c0.1,0.1,0.3,0.2,0.3,0.3c0.1,0.1-0.2,0.4,0.2,0.4c0.1,0,0.3,0,0.4-0.1c0.3-0.1,0.5-0.1,0.7-0.1
					c0.3-0.1,1.4-0.1,1.4-0.1s0,0.1,0.2,0.2c0.2,0.1,0.6,0,0.6,0l0.4,0.4c0,0,0.7,0.3,0.8,0.2c0.1-0.1,0.2-0.2,0.2-0.3
					c0-0.1,0-0.3-0.2-0.5c-0.2-0.2-0.4-0.3-0.3-0.5c0.1-0.2,0.2-0.2,0.4-0.3c0.2-0.1,0.4-0.1,0.4-0.2c0-0.1-0.1-0.4-0.1-0.4
					s-0.2-0.1,0-0.3c0.2-0.2,0.6-0.4,0.7-0.4c0.2-0.1,0.6,0.1,0.8,0.1c0.1,0,0.3,0.1,0.4,0.2c0.1,0.1,0.3,0.2,0.3,0.3
					c0.1,0.1,0,0.4,0,0.4s0,0.4,0.1,0.5c0.1,0.1,0.4,0.5,0.5,0.8c0.1,0.1,0.1,0.2,0.1,0.2s0.1-0.1,0.2,0.2s0.1,0.5,0.2,0.4
					c0.1,0,0.3,0,0.4,0.1c0.1,0.1,0.5,0.6,0.5,0.8c0,0.1,0.2,1.1,0.2,1.2c0,0.1,0.2,0.5,0,0.8c-0.1,0.3-0.2,0.5-0.2,0.6
					s0.4,0.5,0.4,0.5l0.4,0.2l-0.3,0.4c0,0-0.4,0-0.5,0.4c0,0.4,0,0.6-0.1,0.7c-0.1,0.1-0.6,0.3-0.6,0.3s-0.4,0-0.6,0.3
					c-0.2,0.3-0.3,0.3-0.2,0.6c0.1,0.2,0.4,0.4,0.4,0.4s0.3,0.2,0.2,0.3c-0.1,0.1-0.2,0.3-0.3,0.4c-0.1,0.1-0.3,0-0.2,0.3
					c0,0.2,0.1,0.4,0.2,0.5s0,0.5-0.1,0.6c-0.1,0.1-0.4,0.4-0.4,0.4s-0.2,0.1-0.3,0c-0.1-0.1-0.3-0.1-0.3-0.1s-0.3,0-0.4,0.2
					c-0.1,0.2-0.1,0.3-0.2,0.6c0,0.2,0,0.7,0,0.7l-0.2,0.8l-0.4,0.7l0.3,1.5c0,0-0.2,0.1-0.1,0.5c0.1,0.4,0.2,0.4,0.2,0.4l0.5-0.1
					c0,0,0.3-0.3,0.5-0.3c0.1-0.1,0.4-0.2,0.5-0.1c0.1,0.1,0.3,0.6,0.3,0.6s-0.4,0.4-0.7,0.6c0,0,0,0,0,0c-0.3,0.2-1,0.7-1.1,0.9
					c-0.1,0.2-0.6,0.4-0.5,1c0.1,0.5,0.3,0.9,0.4,0.9c0.1,0,0.2,0,0.4,0.2c0.1,0.1,0.4,0.4,0.4,0.5c0.1,0.1,0.2,0.4,0.1,0.5
					c-0.1,0-0.4,0.1-0.4,0.3c-0.1,0.2-0.2,0.1-0.1,0.3c0.1,0.2,1.1,0.5,1.1,0.5l0.7,0.2l0.9,0.7c0,0,0.6,0.8,0.7,1
					c0.1,0.2,0.4,0.3,0.5,0.3c0.1,0.1,0.7,0.6,0.7,0.7c0,0.1,1.5,2.8,1.5,2.8s0.3,0.9,0.4,1c0.1,0.1,0.6,0.5,0.7,0.5
					c0.1,0.1,0.4,0.5,0.4,0.7s-0.1,0.5,0.1,0.5c0.2,0.1,1,0.6,1,0.6s0.5,0.5,0.5,0.7c0,0.2-0.1,0.3-0.2,0.4
					c-0.1,0.1-0.2,0.5-0.2,0.5s0.5,0.4,0.5,0.5c0,0.1,1.6,1.2,1.6,1.2l1.4,0.6l1.7,0.3l1.7,0.9l1.1,0.8l1.3,0.7c0,0,0,0.1,0,0.1
					c0,0.2,0.1,0.6,0.2,0.9c0.1,0.4,0.2,0.8,0.2,0.8l0.3,1l-0.1,1.4c0,0,0.2,0.9,0.2,1.2c0,0.2,0.1,0.8,0,1
					c-0.1,0.2-0.3,0.6-0.2,0.9c0.1,0.3,0.3,0.4,0.3,0.5c0,0.1,0.1,0.9,0.1,0.9l-0.2,0.8l0.3,0.9l0,0.5l-0.3,0.5l0.2,0.9l0,1
					l-0.6,0.6l0,0.6l-0.2,2c0,0,0.3,0.2,0.3,0.4c0,0.3-0.2,0.9-0.2,0.9l-0.4,0.5c0,0,0,0.4,0.2,1.3c0.2,0.9,0.6,2,0.6,2
					s0.3,0.4,0.1,0.9c-0.2,0.5-0.4,1.1-0.4,1.1s-1.3,2.4-1.2,2.5c0,0.1,0.1,0.4,0.1,0.5c0,0.1-0.5,0.9-0.5,0.9s0.1,0.5,0,0.6
					c-0.1,0.1-0.4,0.2-0.5,0.4c-0.1,0.1,0,0.3,0,0.8c0,0.5,0.1,0.9,0.2,1.3c0.1,0.4,0.5,0.7,0.5,0.9c0,0.1-0.2,0.9-0.2,0.9l-0.5,1.4
					c0,0,0.3,0.7,0.4,0.8c0.1,0,0.7,0.1,0.7,0.1l0.6,0.4l-0.1,1l-0.3,1.3l0,1.1l0.2,0.2c0,0-0.3,0.3-0.4,0.4c0,0.1-0.1,0.3-0.1,0.3
					l0.1,0.5l-0.3,0.6l0.1,0.9l-0.1,0.2c0,0-0.5,0.1-0.6-0.2c-0.1-0.3-0.4-0.7-0.4-0.7l-0.6,0.2l-0.2,0.3c0,0-0.4,0.4-0.4,0.5
					c0,0.1,0.1,0.3,0.2,0.2c0.2-0.1,0.5-0.3,0.5-0.3s0.3,0,0.5,0.2c0.2,0.1,0.6,0.3,0.6,0.3l-0.6,0.8l0.1,0.8c0,0-0.4,0.7-0.4,0.8
					c0,0.2-0.3,0.4-0.3,0.4l-0.2,0.2l0,0.7l0.3,0.1l0.5-0.1l0.4,0l-0.3,0.7l0.2,0.4c0,0,0.2-0.1,0.4-0.3c0.3-0.2,0.4-0.4,0.4-0.1
					c0,0.4-0.4,0.9-0.4,1c0,0.1,0.2,0.7,0.2,0.7s0.4,0.3,0.6,0.1c0.3-0.2,0.5-0.3,0.5-0.3s0.4,0,0.3,0.2c-0.1,0.2-1.2,0.9-1.1,1
					c0,0.1,0.3,0.5,0.3,0.5l0.9,0.2l0.3,0.4c0,0-0.3,0.3,0,0.5c0.3,0.2,1.1,0.4,1.2,0.4c0.1,0,1.4,0.1,1.4,0.1s0.6-0.2,1.1-0.3
					c0.2-0.1,0.4-0.1,0.5-0.1c0.4,0,1.6-0.1,1.8-0.2c0.2-0.1,0.4-0.2,0.4-0.3c0-0.1-0.3-0.3-0.5-0.3c-0.2,0-1.2-0.1-1.2-0.1
					s-0.8-0.4-0.8-0.6c0-0.2,0-0.1,0-0.4c0-0.2-0.4-0.4-0.6-0.5c-0.1,0-0.2-0.1-0.2-0.1s-0.7,0.2-0.5-0.1c0.1-0.1,0.1-0.2,0.1-0.2
					c0-0.1,0-0.1,0.3-0.3c0.3-0.2,0.5-0.1,0.4-0.4c-0.1-0.3-0.3-0.4-0.4-0.6c-0.1-0.2-0.2-0.2-0.2-0.3c0-0.1,0.5-0.5,0.7-0.8
					c0.2-0.3,0-0.1,0.5-0.6c0.5-0.5,0.4-1.3,0.4-1.3s0.2-0.2,0.7-0.6c0.5-0.4,0.5,0.2,1.3-1c0.9-1.1,0.9-1.3,0.9-1.3l-0.9-0.3
					l-1.3-1.1c0,0-0.2-0.4,0-0.7c0.2-0.3,0.5-0.7,0.5-0.7l1.5-0.7l0.7-1.1l0-0.9l0.4-0.9c0,0,0.2-0.4,0.6-0.5c0.4-0.1,0.4,0,0.5-0.2
					c0.1-0.2,0.1-0.8,0.1-0.8s-0.2-0.1-0.4-0.1c-0.1,0-0.1,0-0.3,0.2c-0.2,0.2-0.5,0.3-0.5,0.3s-0.4-0.2-0.4-0.3
					c0-0.1,0.1-0.3,0.2-0.4c0-0.1,0.1-0.1,0-0.4c-0.1-0.3-0.1-1-0.1-1l0.8,0c0,0,0.3,0.1,0.5,0.1c0.1,0,1-0.1,1-0.1s0.3-0.3,0.4-0.4
					c0.1-0.1,0.3-0.4,0.4-0.6c0.1-0.2,0.2-0.3,0.3-0.6c0.2-0.3,0.5-0.6,0.4-0.8c-0.1-0.2-0.5-0.7-0.5-0.7l0.2-0.3l0.2-0.1l1-0.1
					c0,0,1.5-0.5,1.9-0.7c0.4-0.3,1.3-0.4,1.6-0.6c0.3-0.3,0.5-0.4,0.8-0.8c0.2-0.4,0.2-0.7,0.4-0.9c0.3-0.3,0.3-0.2,0.5-0.4
					c0.2-0.2,0.4-0.6,0.4-0.6s0.1-0.2,0-0.3c-0.1-0.1-0.3-0.3-0.3-0.3s-0.3-0.3-0.3-0.5c0-0.2,0.1-0.4,0.1-0.4s0.1-0.4,0-0.5
					c-0.1-0.1-0.9-0.6-0.9-0.6l-0.7-0.4l0.3-0.2c0,0,0,0,0,0c0.1,0,0.2,0,0.5,0c0.4,0,1.3,0,1.3,0s1.3,0.1,1.7,0
					c0.4-0.1,1.3,0,1.8-0.5c0.5-0.5,0.5-0.3,1-1.1c0.4-0.7,0.3-1,0.7-1.6c0.1-0.1,0.2-0.3,0.4-0.5c0.8-0.9,0.9-1,1.2-1.3
					c0.3-0.3,0.6-0.7,0.9-1.1c0.3-0.4,0.4-1.3,0.7-1.7c0.3-0.4,0.8-0.8,1.2-1.2c0.5-0.5,1.8-2.2,1.8-2.2s0.3-0.8,0.2-1.4
					c-0.1-0.5-0.4-1.3-0.4-1.3s-1.1-0.1-0.1-1.1c1-1,1.1-1,1.2-1.3c0.2-0.3,0.7-1.2,0.9-1.3c0.2-0.2,0.1,0,0.9-0.3
					c0.8-0.3,0.7,0,1.1-0.5c0.4-0.4,0.9-1,0.9-1l1.5-1.1c0,0,0.9-0.1,1.3-0.2c0.4-0.1,1,0.3,1.4-0.3c0.4-0.6,0.5-0.9,0.8-1.1
					c0.2-0.2,0.5,0.1,0.6-0.7c0.1-0.8,0-0.9,0.3-1.4c0.4-0.5,0.5-0.5,0.7-0.9c0.1-0.3,0-0.6,0.1-0.9c0.1-0.3,0.6-0.8,0.7-1
					c0.1-0.2,0.3-0.4,0.2-0.9c-0.1-0.5-0.3-0.5-0.2-1c0.1-0.5,0.5-0.8,0.5-0.8s0.2-0.2,0.3-0.5c0.1-0.3,0.2-0.8,0.2-0.8l0.2-0.7
					c0,0-0.6-2.3-0.5-2.5c0.1-0.2,0.4-1.5,0.4-1.5l0-1.2c0,0-0.2-0.5,0.1-0.7c0.3-0.2,0.3-0.2,0.4-0.2c0.1,0,0.2,0.2,0.5-0.1
					c0.3-0.2,0.6-0.9,0.6-1c0.1-0.2,0.2-0.7,0.2-0.7l0.3-1c0,0,0.4-0.4,0.6-0.6c0.2-0.2,0.4-0.6,0.4-0.6l1.3-2.8c0,0,0.7-1,0.7-1.3
					C347.2,113.3,347.2,113.2,347,112.9z"/>
				<g>
					<path class="st5" d="M347,112.6c-0.1-0.2-0.2-0.4-0.2-0.7c0,0.2,0,0.3,0,0.5c0-0.4,0.2-0.6,0.1-1c-0.1-0.5-0.3-0.6-0.6-1
						c-0.2-0.3-0.2-0.6-0.4-0.8c-0.9-1.4-2.4-0.1-3.6-0.9c-0.6-0.4-1-1-1.5-1.4c-0.4-0.4-0.4-0.3-0.9-0.3c-0.7-0.1-1.1-0.3-1.8-0.1
						c-1.4,0.3-2.6,0.4-4,0.2c-0.7-0.1-1.2,0.4-1.6,0.7c-0.2,0.1-0.2,0.1-0.4,0.3c-0.1,0.1-0.1,0.3-0.2,0.4
						c-0.4,0.3-0.8-0.2-0.8-0.6c0,0.2,0,0.3,0,0.5c0.3-0.3,0.5-0.4,0.8-0.7c0,0,0-0.5,0-0.5c-0.2-0.4-0.4-0.9-0.7-1.2
						c-0.3-0.3-0.2-0.3-0.6-0.2c-0.1,0-0.1,0.3-0.2,0.3c-0.2,0-0.3-0.2-0.5-0.3c-0.2-0.2-0.3-0.3-0.5-0.3c-0.5-0.2-1.4,0-1.9,0
						c-0.7,0-1,0-1.4,0.6c-0.3,0.4-0.8,1-1.1,1.3c-0.4,0.4-1.2,0.5-1.7,0.6c-1.1,0.4-2.1-0.2-3.2,0c0,0.2,0,0.3,0,0.5
						c0.2-0.5,0.4-0.9,0.6-1.3c0.2-0.5,0.2-1,0.5-1.5c0.3-0.5,1.1-0.8,1.4-1.2c0.2-0.4,0.3-1,0.3-1.4c0-0.1,0-0.5,0-0.5
						c-0.6-0.3-1.1-0.6-1.5-1.2c-0.4-0.7-0.8-1.4-1.3-2c0,0.1,0,0.3,0,0.4c0-0.1,0-0.3,0-0.4c0,0,0-0.4,0-0.4
						c-0.6,0-0.9-0.1-1.4-0.5c-0.6-0.5-0.8-0.7-1.6-0.6c-0.9,0-1.8-0.4-2.8-0.2c-0.6,0.2-1.2,0.6-1.9,0.5c-0.3,0-0.3-0.2-0.6-0.3
						c-0.3-0.1-0.6,0-0.9-0.3c-0.4-0.2-0.5-0.4-0.9-0.5c-0.3,0-0.7,0.1-1-0.1c-0.7-0.6-0.7-2.2-2-2.1c-0.9,0-1.1,0.8-1.8-0.1
						c0,0.2,0,0.3,0,0.5c0-0.2,0-0.4,0.1-0.6c0-0.1,0-0.5,0-0.5c-0.5-0.3-1.2-0.9-1.8-0.9c-1,0-1,0.3-1.9-0.4c0,0.2,0,0.3,0,0.5
						c0.2-0.2,0.5-0.4,0.7-0.6c0,0,0-0.5,0-0.5c-0.8-0.4-1.5-0.1-2.2,0.3c-0.3,0.1-0.6,0.1-1,0.2c-0.4,0.1-0.3,0.2-0.6,0.5
						c-0.3,0.2-0.7,0.4-1,0.4c-0.3,0-0.5-0.3-0.9-0.4c-0.6-0.1-1.3,0.2-1.9,0.4c-0.2,0.1-0.6,0.3-0.8,0.3c-0.5,0-0.4-0.5-0.8-0.8
						c-0.5-0.6-1-0.1-1.6-0.3c-0.5-0.1-0.9-1.2-1.4-0.6c-0.1,0.2,0,1,0.1,1.1c0-0.2,0-0.3,0-0.5c-0.1,0.6-0.4,0.7-0.9,1
						c0,0,0,0.4,0,0.5c0,0.1,0,0.2,0,0.3c0-0.1,0-0.2,0-0.3c0,0.2,0,0.4,0,0.6c0,0.2,0,0.5,0.1,0.7c0.2,0.4,0.6,0.4,0.6,0.9
						c0-0.2,0-0.3,0-0.5c-0.1,0.6-0.5,0.9-1.1,0.7c-0.5-0.2-0.5-0.4-0.6-0.9c0,0.2,0,0.3,0,0.5c0.2-0.4,0.3-0.6,0.3-1
						c0-0.7-0.5-0.9-0.7-1.5c0,0.2,0,0.3,0,0.5c0.3-0.5,1-0.5,1-1.2c0-0.4-0.2-0.6-0.5-0.9c-0.5-0.3-1-0.1-1.3,0.4
						c-0.1,0.2-0.1,0.5-0.2,0.8c-0.3,0.4-0.8,0.8-1.2,1c-0.3,0.2-0.5,0.1-0.8,0.3c-0.5,0.2-0.3,0.5-0.9,0.3
						c-0.2-0.1-0.1-0.5-0.5-0.2c-0.2,0.1-0.3,0.6-0.4,0.8c-0.3,0.8-0.2,1.3,0.1,2.1c0-0.2,0-0.3,0-0.5c-0.2,0.3-0.5,0.5-0.7,0.8
						c-0.2,0.4,0,0.6-0.5,0.9c0,0,0,0.4,0,0.5c0,0.3,0.1,0.5,0.3,0.8c0-0.2,0-0.3,0-0.5c-0.1,0.6-0.4,0.3-0.7,0
						c-0.1-0.2-0.2-0.3-0.3-0.5c-0.2-0.2-0.5-0.3-0.8-0.5c-0.8-0.6-1.2-0.6-2.1-0.4c-0.8,0.2-1.4,0.9-2.2,1.3
						c-0.7,0.3-1.5,0.4-2.2,0.5c0,0.2,0,0.3,0,0.5c0.1-0.3,0-0.7-0.1-0.9c-0.4-0.7-1.2-0.8-1.8-1.1c-0.7-0.2-0.9-0.5-1.1-1.2
						c0,0.2,0,0.3,0,0.5c0.7-1.1,0.3-1.6-0.7-2.5c0,0.2,0,0.3,0,0.5c0.5-0.4,0.8-0.1,0.9-0.8c0-0.8-0.7-1.1-0.8-1.8
						c0,0.2,0,0.3,0,0.5c0.2-0.5,0.5-0.7,0.6-1.2c0-0.4-0.1-0.7-0.2-1.1c-0.3-0.7-0.6-0.6-1.3-0.9c-0.6-0.2-0.9-0.4-1.6-0.3
						c-0.2,0-0.5,0.2-0.8,0.2c-0.2,0-0.5-0.1-0.7-0.1c-0.5,0.1-1,0.4-1.5,0.5c-0.4,0.1-0.8,0.2-1.1,0.2c-0.1,0-0.2-0.2-0.3-0.1
						c-0.6,0.2-0.8,0.8-1.6,0.5c0,0.2,0,0.3,0,0.5c0.3-0.7,0.8-0.8,0.7-1.5c-0.1-1-0.5-1.9-0.5-2.9c0,0.2,0,0.3,0,0.5
						c0.1-0.5,0.7-0.1,1-0.4c0.3-0.3,0.2-0.9,0.2-1.2c0-0.1,0-0.5,0-0.5c-0.2-0.1-0.4-0.3-0.6-0.3c0,0.2,0,0.3,0,0.5
						c0-0.2,0.2-0.5,0.2-0.7c0-0.4-0.1-0.8-0.2-1.1c0,0.2,0,0.3,0,0.5c0.4-0.5,0.7-0.5,0.6-1.1c-0.1-0.4-0.1-0.9-0.6-1
						c-0.4-0.1-1.4,0.2-1.8,0.4c-0.3,0.2-0.5,0.5-0.8,0.6c-0.4,0.2-1,0.2-1.2,0.6c-0.1,0.3,0.1,0.9,0.2,1.2c0-0.2,0-0.3,0-0.5
						c-0.1,0.8-0.2,1.4-0.1,2.2c0-0.2,0-0.3,0-0.5c-0.1,0.5-0.3,0.6-0.7,0.8c0,0,0,0.5,0,0.5c0.1,0.3,0.2,0.5,0.2,0.8
						c0-0.2,0-0.3,0-0.5c-0.3,0.3-1,0.7-1.4,0.6c-0.4-0.1-0.2-0.5-0.8-0.3c-0.6,0.2-1.2,0.6-1.8,0.8c-1.3,0.5-3.7-0.2-4.3-1.5
						c0,0.2,0,0.3,0,0.5c0-1-0.1-1.2-1.3-1.6c0,0.2,0,0.3,0,0.5c0.1-0.6,0.5-1,0.3-1.6c-0.2-0.9-1.2-1.6-1.4-2.5c0,0.2,0,0.3,0,0.5
						c0.1-0.3,0.3-0.9,0.2-1.2c-0.1-0.3-0.4-0.5-0.5-0.7c-0.2-0.4-0.2-0.7-0.2-1.1c0,0.1,0,0.3,0,0.4c0.7,0.2,1,0.1,1.2-0.7
						c0-0.1,0-0.4,0-0.5c-0.2-0.4-0.7-0.6-1.2-0.7c-0.3-0.1-0.7,0-0.9-0.2c-0.2-0.1-0.4-0.5-0.5-0.7c-0.7-1-1.7-1.9-2.5-2.8
						c-0.3-0.3-0.6-0.7-0.9-0.9c-0.4-0.2-1.3,0-1.7,0.3c-0.4,0.3-0.5,0.8-1,1.1c-0.6,0.4-1.2,0.3-1.6-0.2c-0.9-0.9-1.6-1.8-2.8-2.4
						c-0.5-0.3-0.7-0.2-1.3,0c-0.2,0.1-0.7,0.1-0.9,0.2c-0.2,0.1-0.3,0.4-0.5,0.6c-0.4,0.2-1.2,0.2-1.7,0.3
						c-0.6,0.1-1.2,0.3-1.7,0.3c-0.6,0-1.3-0.2-2-0.2c-0.8-0.1-1.8-0.1-2.6-0.3c-0.5-0.1-0.5-0.3-1.1-0.2c-0.8,0.2-1.5,0.3-2.3,0.5
						c0,0,0,0.5,0,0.5c0.2,1,0.5,2.8,1.2,3.6c0.5,0.5,1.5,0.6,2,1c0.3,0.2,0.6,0.5,0.7,0.9c0,0.1,0.1,0.7,0.1,0.7c0-0.2,0-0.3,0-0.5
						c-0.1,0.2-1.3,0.1-1.6,0.3c0,0,0,0.4,0,0.5c0.2,0.8,1.8,1.2,2.5,1c0.1,0,0.1-0.1,0.3-0.1c0.2,0,0.8,0.3,0.9,0.4
						c0.7,0.3,0.8,0.6,0.9,1.3c0-0.2,0-0.3,0-0.5c-0.4,0,0,1.6,0,1.7c0.2,0.3,0.5,0.3,0.8,0.5c0.5,0.2,0.9,0.6,1.3,0.9
						c0.8,0.6,1,1,1.6,0c0,0,0-0.5,0-0.5c-0.4-0.4-0.7-0.7-1.1-0.9c-0.6-0.3-0.8-0.2-1-0.9c-0.2-0.5-0.5-1-0.6-1.5
						c-0.2-0.6-0.2-1.1-0.8-1.4c-0.5-0.3-0.6-0.2-1.1-0.7c-0.4-0.5-0.5-1.1-0.9-1.6c-0.5-0.6-1.2-0.9-1.8-1.4
						c-0.3-0.2-0.2,0-0.4-0.5c-0.1-0.3-0.2-0.9-0.2-1.2c0,0.2,0,0.3,0,0.5c0-0.1,0-0.9,0.1-0.9c0,0,0.7,0.3,0.8,0.3
						c0.7,0,0.9-0.1,1.2,0.8c0-0.2,0-0.3,0-0.5c-0.3-0.2-0.2,0-0.2,0.2c-0.1,0.5,0.6,1.1,0.9,1.4c0.4,0.5,0.6,1,1,1.5
						c0.5,0.7,1.4,0.9,2.1,1.2c0-0.2,0-0.3,0-0.5c-0.3,0.4-0.6,0.5-0.4,1c0.2,0.7,1,0.4,1.5,0.6c0.1,0,0,0.1,0.1,0.2
						c0.1,0.1,0.3,0,0.5,0.1c0.3,0.1,0.3-0.1,0.4,0.3c0-0.2,0-0.3,0-0.5c-0.3,0.6-0.7,0.8-0.5,1.4c0.1,0.6,0.3,0.4,0.9,0.3
						c0.6-0.1,1,0,1.4,0.5c0.4,0.4,0.6,0.7,1,1.1c0.3,0.2,0.6,0.6,0.8,1c0.7,0.8,2.1,1,2.3,2.1c0-0.2,0-0.3,0-0.5
						c0,1.3-0.8,1.8-0.3,3c0.3,0.8,1,1,1.8,1.4c0.4,0.2,0.4,0.1,0.8,0.2c0.5,0.1,0.6,0.3,1,0.6c0.6,0.3,1.2,0.1,1.8,0.2
						c0.6,0.1,1.1,0.3,1.7,0.4c0.4,0.1,0.9,0,1.2,0.2c0.1,0.1,0.1,0.3,0.2,0.3c0.5,0.4,1.4,0.4,2,0.5c0.3,0,1.3,0,1.4,0.3
						c0-0.2,0-0.3,0-0.5c0,0.2-0.1,0.6,0,0.7c0.2,0.2,1.6-0.1,1.9-0.1c0.6-0.1,1.2-0.3,1.6-0.7c0.6-0.5,0.6-0.6,1.3-0.6
						c0.4,0,0.9,0,1.3,0.1c0.3,0.1,0.8,0.4,1,0.6c0.4,0.3,0.6,0.8,1,1.2c0.4,0.5,1.2,0.9,1.8,0.9c0.5,0,0.9-0.3,1.4-0.2
						c0.5,0.1,0.7,0.4,1.1,0.5c0.3,0.1,1-0.1,1.3-0.1c0.4-0.1,1-0.6,1.5-0.5c0.5,0.1,0.5,0.8,0.7,1.2c0.5,0.9,1.7,1.4,2.3,2.3
						c0-0.2,0-0.3,0-0.5c0,0.3-0.2,0.8-0.1,1.1c0.1,0.3,0.6,0.6,1,0.7c0.5,0.1,0.4-0.3,0.7-0.5c0.5-0.3,0.6,0,0.9,0.3
						c0.3,0.3,0.8,0.3,1,0.6c0.2,0.2,0.1,0.7,0.4,0.9c0.4,0.2,0.3-0.5,0.8,0.1c0-0.2,0-0.3,0-0.5c0,0.2-0.2,0.7,0,0.8
						c0.2,0.2,1.5-0.2,1.9-0.3c0.5,0,0.8,0,1.3,0.2c0.3,0.1,0.5,0.3,0.8,0.5c0.4,0.2,0.7,0.2,0.8-0.2c0.2-0.5-0.2-1-0.5-1.3
						c0,0.2,0,0.3,0,0.5c0.1-0.5,0.7-0.4,0.8-0.9c0.1-0.3-0.1-0.6-0.1-0.8c0,0.2,0,0.3,0,0.5c0.5-0.7,2-0.7,2.4,0.1
						c0.2,0.3,0,0.6,0.2,1c0.1,0.3,0.5,0.6,0.6,0.8c0,0,0.2,0.5,0.2,0.5c0.1,0.1,0.2,0.1,0.3,0.2c0.8,0.8,0.9,1.6,1,2.7
						c0-0.2,0-0.3,0-0.5c-0.2,1.1-0.5,1.5,0.6,2.2c0-0.2,0-0.3,0-0.5c-0.1,0.2-0.3,0.3-0.4,0.5c-0.3,0.4-0.2,0.3-0.3,0.8
						c-0.2,0.5-0.4,0.4-0.9,0.6c-0.4,0.2-0.6,0.6-0.5,1.1c0.1,0.4,0.5,0.5,0.6,0.9c0-0.2,0-0.3,0-0.5c-0.3,0.4-0.4,0.4-0.5,0.8
						c0,0.4,0.2,0.7,0.2,1c0-0.2,0-0.3,0-0.5c-0.2,1.4-1.5,0.1-1.7,1.5c-0.1,0.4,0,0.8,0,1.2c0-0.2,0-0.3,0-0.5
						c-0.1,0.6-0.5,1.1-0.6,1.7c-0.1,0.6,0.2,1.2,0.3,1.7c0-0.2,0-0.3,0-0.5c-0.2,0.2-0.1,0.9,0,1.1c0.2,0.4,0.4,0.3,0.8,0.2
						c0.7-0.3,0.7-0.6,1.2,0.2c0-0.2,0-0.3,0-0.5c-0.7,0.7-2.1,1.3-2.4,2.3c0,0.2,0,0.5,0,0.7c0.2,1,1,1,1.3,1.9c0-0.2,0-0.3,0-0.5
						c0,0.4-0.7,0.5-0.6,1c0.1,0.5,0.7,0.6,1.2,0.8c0.6,0.2,1.2,0.4,1.6,0.9c0.3,0.3,0.4,0.7,0.7,1c0.4,0.4,0.9,0.5,1.2,0.9
						c0.8,1,1.2,2.4,1.8,3.6c0.2,0.4,0.5,0.5,0.8,0.8c0.3,0.3,0.3,0.5,0.5,0.8c0.3,0.6,1.3,0.8,1.6,1.6c0-0.2,0-0.3,0-0.5
						c-0.3,1.2-0.6,1.2,0.5,2.1c1.1,0.9,2.2,1.4,3.6,1.7c1.4,0.2,2.4,1,3.5,1.7c0.4,0.3,1.2,0.5,1.4,0.9c0.2,0.4,0.3,1.3,0.4,1.7
						c0.1,0.3,0.2,0.7,0.3,1c0-0.2,0-0.3,0-0.5c-0.1,0.8-0.2,1.6-0.1,2.4c0,0.2,0.1,0.5,0.1,0.7c0,0.5-0.2,0.7-0.3,1.1
						c0,0.1,0,0.2,0,0.2c0,0.7,0.4,1.2,0.4,1.9c0-0.2,0-0.3,0-0.5c-0.3,1.1,0,1.5,0.1,2.6c0-0.2,0-0.3,0-0.5
						c-0.6,0.9-0.2,1.8-0.1,2.9c0-0.2,0-0.3,0-0.5c-0.5,0.6-0.6,0.6-0.6,1.4c0,0.6-0.1,1.3-0.2,1.9c0,0.1,0,0.5,0,0.5
						c0.2,0.1,0.3,0.2,0.3,0.4c0-0.2,0-0.3,0-0.5c0,0.8-0.6,1.1-0.6,1.9c0,1.4,0.8,2.5,1,3.8c0-0.2,0-0.3,0-0.5
						c-0.2,1.3-1,2.4-1.5,3.6c-0.2,0.5-0.2,0.8-0.1,1.4c0-0.2,0-0.3,0-0.5c-0.3,0.8-0.5,0.9-0.5,1.7c0-0.2,0-0.3,0-0.5
						c-0.1,0.4-0.4,0.5-0.6,0.8c0,0.1,0,0.3,0,0.4c0,1.1,0.3,1.9,0.8,2.9c0-0.2,0-0.3,0-0.5c-0.1,0.9-0.7,1.7-0.7,2.5
						c0,0.3,0.1,0.6,0.3,0.9c0.3,0.3,0.5,0.2,0.8,0.3c0.2,0.1,0.4,0.3,0.6,0.4c0-0.2,0-0.3,0-0.5c-0.1,0.8-1,3.4-0.2,4
						c0-0.2,0-0.3,0-0.5c-0.6,0.5-0.5,1-0.4,1.7c0-0.2,0-0.3,0-0.5c-0.4,0.8-0.3,1.1-0.2,2c0-0.2,0-0.3,0-0.5
						c-0.1,0.2-0.3,0.3-0.6,0.2c-0.4-0.2-0.3-0.8-0.8-0.8c-0.3,0-0.9,0.7-1,1c0,0.1,0,0.4,0,0.5c0.2,0.4,0.3,0,0.7-0.1
						c0.4-0.1,0.8,0.3,1.1,0.5c0-0.2,0-0.3,0-0.5c-0.6,0.9-0.6,1-0.4,2.1c0-0.2,0-0.3,0-0.5c-0.2,0.3-0.3,0.7-0.4,1
						c-0.1,0.2-0.4,0.2-0.5,0.4c-0.1,0.3,0,0.9,0,1.1c0,0,0,0,0,0c0.4,0.1,0.8,0,1.2,0c0-0.2,0-0.3,0-0.5c-0.1,0.3-0.3,0.6-0.3,1
						c0,0.1,0,0.2,0.1,0.3c0.2,0.2,0,0.1,0.4,0c0.3-0.1,0.5-0.6,0.6-0.2c0-0.2,0-0.3,0-0.5c-0.1,0.6-0.4,0.9-0.4,1.4
						c0,0.3,0,0.7,0.3,0.8c0.5,0.3,1.1-0.6,1.3-0.1c0-0.2,0-0.3,0-0.5c-0.3,0.4-0.8,0.6-1.1,1c0,0.1,0,0.4,0,0.5
						c0.3,0.7,1,0.5,1.4,1.2c0-0.2,0-0.3,0-0.5c-0.7,0.9,0.8,1.3,1.5,1.4c1,0.1,1.3,0,2.3-0.2c0.8-0.2,2.2,0.2,2.7-0.6
						c0,0,0-0.4,0-0.5c-0.4-0.8-2.4-0.1-2.5-1.2c0,0.2,0,0.3,0,0.5c0-0.2,0.1-0.5,0-0.7c-0.3-0.8-0.8-0.4-1.3-0.6c0,0.2,0,0.3,0,0.5
						c0.2-0.6,0.8-0.6,0.9-1.2c0-0.5-0.4-0.8-0.5-1.3c0,0.2,0,0.3,0,0.5c0.4-0.6,1-0.9,1.3-1.5c0.4-0.6,0.2-1.1,0.7-1.5
						c0.5-0.4,1-0.4,1.4-0.9c0.4-0.5,0.9-1.1,1.2-1.6c0,0,0-0.5,0-0.5c-0.8-0.3-2.1-0.8-2.2-1.8c0,0.2,0,0.3,0,0.5
						c0.4-1.3,1.6-1.1,2.3-1.9c0.6-0.7,0.5-1.1,0.5-2c0,0.1,0,0.2,0,0.3c0.2-0.5,0.3-1.1,0.9-1.4c0.4-0.2,0.6,0,0.8-0.4
						c0.1-0.2,0.1-0.4,0.1-0.6c0-0.1,0-0.4,0-0.5c-0.7-0.3-1.1,0.8-1.6,0c0,0.2,0,0.3,0,0.5c0.1-0.4,0.2-0.6,0.2-1
						c0-0.6-0.3-0.8,0.5-0.8c0.5,0,0.9,0.2,1.3,0.1c0.8-0.2,1.8-1.6,1.9-2.4c0.1-0.5-0.2-0.8-0.5-1.2c0,0.2,0,0.3,0,0.5
						c0.4-0.6,1.2-0.4,1.9-0.7c0.6-0.2,1.2-0.5,1.9-0.8c0.7-0.2,1.2-0.4,1.7-1c0.2-0.3,0.2-0.7,0.5-1c0.1-0.2,0.3-0.3,0.5-0.5
						c0.3-0.3,0.5-0.5,0.6-0.9c0.1-0.6-0.5-0.9-0.6-1.4c0,0.2,0,0.3,0,0.5c0.1-0.3,0.2-0.9,0.1-1.3c-0.2-0.5-1.1-0.9-1.6-1.3
						c0,0.2,0,0.3,0,0.5c0.7-0.4,1.6-0.2,2.4-0.2c0.9,0,2.3,0.1,3.1-0.4c1.2-0.7,1.3-2,2.1-3.1c0.7-1,1.7-1.7,2.3-2.8
						c0.4-0.6,0.4-1.3,0.9-1.9c0.5-0.5,1-1,1.5-1.5c0.6-0.7,1.2-1.3,1.4-2.2c0.1-0.3,0.1-0.7,0.1-1.1c0-0.4-0.1-1.1-0.4-1.4
						c-0.2-0.2-0.5,0-0.5-0.4c0,0.2,0,0.3,0,0.5c0.2-0.9,1.2-1.4,1.7-2.1c0.3-0.4,0.5-1,0.9-1.2c0.4-0.2,0.9-0.2,1.3-0.4
						c0.7-0.3,1.1-1,1.8-1.5c0.8-0.7,1.3-0.9,2.4-1c0.6,0,1.1,0.2,1.5-0.4c0.3-0.4,0.6-0.8,1-1.2c0.4-0.5,0.3-0.8,0.4-1.4
						c0.1-0.6,0.6-0.9,0.9-1.3c0.2-0.4,0.1-0.7,0.2-1.1c0.1-0.3,0.4-0.5,0.5-0.8c0.2-0.3,0.3-0.5,0.4-0.8c0.1-0.5-0.1-1-0.2-1.4
						c0,0.2,0,0.3,0,0.5c0.1-0.8,0.7-1.5,0.9-2.4c0.1-0.3,0.2-0.6,0.2-1c0-0.9-0.4-1.8-0.5-2.8c0,0.2,0,0.3,0,0.5
						c0-0.6,0.3-1.2,0.4-1.8c0-0.6,0-1.2-0.1-1.7c0,0.2,0,0.3,0,0.5c0-0.5,0.4-0.5,0.6-0.6c0.3-0.1,0.5-0.1,0.7-0.5
						c0.3-0.5,0.4-1,0.6-1.6c0.3-1,1.1-1.6,1.6-2.6c0.5-0.9,0.9-1.9,1.4-2.8C347.4,113.7,347.3,113.3,347,112.6
						c0.1,0.1-0.1,0.4,0,0.5c0.1,0.2,0.2,0.4,0.2,0.7c0-0.2,0-0.3,0-0.5c-0.1,0.5-0.5,0.9-0.7,1.3c-0.3,0.6-0.6,1.2-0.9,1.8
						c-0.5,1-1.4,1.7-1.7,2.8c-0.2,0.6-0.3,1.3-0.7,1.7c-0.4,0.5-1,0.1-1.2,0.8c-0.1,0.6,0.1,1.4,0.1,2c0-0.2,0-0.3,0-0.5
						c-0.2,0.6-0.4,1.3-0.4,1.9c0,0.9,0.3,1.7,0.5,2.6c0-0.2,0-0.3,0-0.5c-0.1,0.4-0.2,0.9-0.3,1.3c-0.2,0.6-0.7,1.1-0.8,1.7
						c-0.1,0.6,0.2,1,0.2,1.6c0-0.2,0-0.3,0-0.5c-0.2,0.6-0.7,1-0.9,1.5c-0.2,0.4,0,0.8-0.2,1.2c-0.1,0.2-0.4,0.4-0.6,0.7
						c-0.3,0.5-0.1,1.3-0.4,1.7c-0.2,0.3-0.6,0.5-0.9,0.8c-0.6,0.8-0.6,0.9-1.6,1c-0.4,0-1.1,0-1.5,0.2c-0.7,0.2-1.4,1-1.9,1.5
						c-0.4,0.5-0.6,0.7-1.2,0.9c-0.4,0.2-1,0.2-1.4,0.5c-0.4,0.3-0.6,0.9-0.9,1.3c-0.2,0.3-0.5,0.5-0.8,0.8c-0.4,0.4-1,0.9-0.8,1.6
						c0.1,0.3,0.2,0.2,0.4,0.4c0.3,0.4,0.5,0.9,0.6,1.6c0-0.2,0-0.3,0-0.5c-0.2,1.6-1.6,2.8-2.7,3.9c-0.8,0.8-1,1.9-1.7,2.9
						c-0.5,0.6-1.1,1.2-1.6,1.8c-0.7,0.8-0.8,1.9-1.5,2.7c-0.7,0.7-1.3,0.9-2.3,1c-1.2,0.1-3-0.3-4,0.2c0,0,0,0.5,0,0.5
						c0.4,0.3,1.6,0.7,1.6,1.2c0-0.2,0-0.3,0-0.5c0,0.4-0.2,0.7-0.1,1.1c0.1,0.5,0.5,0.7,0.6,1.1c0-0.2,0-0.3,0-0.5
						c-0.1,0.3-0.4,0.6-0.6,0.8c-0.4,0.4-0.5,0.6-0.7,1.1c-0.5,1.1-1.5,1.2-2.5,1.6c-0.6,0.3-1.2,0.6-1.9,0.7
						c-0.6,0.1-1-0.1-1.4,0.5c0,0,0,0.5,0,0.5c0.2,0.2,0.3,0.5,0.5,0.7c0-0.2,0-0.3,0-0.5c-0.1,0.7-1.1,2.1-1.8,2.3
						c-0.6,0.2-1.5-0.1-2.2-0.1c0,0,0,0,0,0c0,0.6,0,1.2,0.1,1.7c0-0.2,0-0.3,0-0.5c-0.1,0.3-0.3,0.6-0.2,0.9c0.3,0.9,1-0.2,1.6,0.1
						c0-0.2,0-0.3,0-0.5c0,1.2-0.5,0.6-1.1,1.2c-0.2,0.2-0.4,0.8-0.5,1.1c-0.1,0.4,0,0.9,0,1.3c0-0.1,0-0.2,0-0.3
						c-0.5,0.8-0.7,1.1-1.6,1.5c-0.6,0.3-1.2,0.6-1.3,1.4c-0.2,1.2,1.3,1.9,2.2,2.2c0-0.2,0-0.3,0-0.5c-0.4,0.7-1,1.7-1.8,2.1
						c-0.3,0.2-0.7,0.2-1,0.6c-0.3,0.4-0.2,0.8-0.4,1.2c-0.3,0.6-1.2,1.1-1.4,1.7c-0.2,0.5,0.3,1,0.5,1.4c0-0.2,0-0.3,0-0.5
						c0,0.3-0.7,0.6-0.9,1c0,0,0,0.5,0,0.5c0.5,0.2,0.9-0.2,1.3,0.5c0-0.2,0-0.3,0-0.5c0,0.3-0.1,0.7,0,1c0.5,0.9,2,0.2,2.4,1
						c0-0.2,0-0.3,0-0.5c-0.4,0.5-1.2,0.5-1.8,0.5c-0.7,0-1.3,0.4-2,0.4c-0.7,0.1-2.4-0.1-2.8-0.7c0,0.2,0,0.3,0,0.5
						c0-0.1,0-0.2,0.1-0.3c0,0,0-0.5,0-0.5c-0.5-0.6-1.1-0.4-1.4-1.2c0,0.2,0,0.3,0,0.5c0.3-0.4,1.3-0.7,1.1-1.3
						c0-0.2,0-0.3-0.3-0.4c-0.4,0-0.5,0.6-1,0.3c-0.2-0.1-0.3-0.5-0.3-0.8c0,0.2,0,0.3,0,0.5c0.2-0.3,0.6-0.9,0.4-1.4
						c-0.1-0.2,0.1-0.2-0.2-0.2c-0.6,0-0.5,0.8-0.8,0c0,0.2,0,0.3,0,0.5c0.1-0.2,0.2-0.4,0.3-0.7c0,0,0-0.5,0-0.5
						c-0.8,0-1.2,0.4-1.2-0.6c0,0.2,0,0.3,0,0.5c1-0.7,0.9-1.6,0.8-2.7c0,0.2,0,0.3,0,0.5c0.2-0.3,0.4-0.5,0.6-0.8c0,0,0-0.5,0-0.5
						c-0.3-0.1-0.7-0.5-1.1-0.5c-0.3,0-0.6,0.6-0.7,0.1c0,0.2,0,0.3,0,0.5c0.1-0.3,0.6-1,1-1c0.4,0,0.3,0.3,0.6,0.6
						c0.2,0.2,0.5,0.3,0.7,0.1c0.2-0.3,0-1.3-0.1-1.5c0,0.2,0,0.3,0,0.5c0.3-0.6,0.4-0.9,0.2-1.6c0,0.2,0,0.3,0,0.5
						c0.1-0.3,0.2-0.5,0.5-0.7c0,0,0-0.5,0-0.5c-0.4-0.3-0.2-0.8-0.2-1.3c0,0.2,0,0.3,0,0.5c0.2-0.7,0.6-1.7,0.4-2.5
						c-0.1-0.3-0.1-0.4-0.5-0.6c-0.2-0.1-0.6-0.1-0.8-0.2c-0.3-0.2-0.4-0.5-0.5-0.8c0,0.2,0,0.3,0,0.5c0.3-0.8,1-1.9,0.7-2.8
						c-0.1-0.2-0.3-0.4-0.4-0.6c-0.2-0.3-0.2-0.7-0.3-1.1c-0.1-0.4-0.1-0.6,0-0.9c0.1-0.2,0.3-0.2,0.4-0.5c0.1-0.2,0-0.7,0-0.9
						c0,0.2,0,0.3,0,0.5c0.4-0.7,0.6-1,0.4-1.8c0,0.2,0,0.3,0,0.5c0.4-1.6,2-3,1.6-4.8c-0.2-0.7-0.5-1.3-0.7-2
						c-0.1-0.5-0.2-0.8,0-1.2c0.1-0.2,0.2-0.3,0.3-0.5c0.2-0.5,0.3-1.3-0.2-1.6c0,0.2,0,0.3,0,0.5c0.1-0.7,0.1-1.3,0.2-2
						c0-0.2,0-0.5,0-0.7c0.1-0.3,0.5-0.4,0.6-0.7c0.2-0.7-0.1-1.8-0.2-2.4c0,0.2,0,0.3,0,0.5c0.5-0.8,0.3-1.5,0-2.4
						c0,0.2,0,0.3,0,0.5c0.1-0.4,0.2-0.7,0.2-1.1c0-0.2,0-0.4,0-0.6c-0.1-0.5-0.3-0.8-0.4-1.3c0,0.2,0,0.3,0,0.5
						c0.4-1.2,0.3-2,0.1-3.3c0,0.2,0,0.3,0,0.5c0.1-1,0.2-1.7-0.1-2.7c-0.1-0.4-0.2-0.9-0.3-1.3c-0.1-0.7-0.1-0.7-0.7-1
						c-0.7-0.3-1.2-0.8-1.8-1.2c-0.5-0.3-1.1-0.7-1.7-0.9c-0.6-0.2-1.2-0.1-1.8-0.3c-1.4-0.4-2.5-1.3-3.5-2.2c0,0.2,0,0.3,0,0.5
						c0.1-0.4,0.4-0.7,0.3-1.2c-0.1-0.5-0.4-0.8-0.9-1.1c-0.2-0.1-0.5-0.2-0.6-0.3c-0.2-0.2,0-0.3-0.1-0.5c-0.1-0.3-0.3-0.5-0.6-0.8
						c-0.4-0.4-0.6-0.4-0.8-0.9c-0.1-0.2-0.2-0.5-0.3-0.7c-0.4-0.8-0.8-1.6-1.3-2.3c-0.4-0.6-1.1-0.9-1.6-1.5
						c-0.5-0.5-0.8-1.1-1.4-1.4c-0.5-0.2-1.7-0.2-1.9-0.8c0,0.2,0,0.3,0,0.5c0.2-0.2,0.3-0.3,0.6-0.4c0,0,0,0,0,0c0-0.2,0-0.5,0-0.7
						c-0.1-0.4-0.3-0.6-0.6-0.9c-0.4-0.4-0.5-0.3-0.7-1c0,0.1,0,0.2,0,0.3c0-0.9,1.8-1.7,2.4-2.3c0,0,0-0.5,0-0.5
						c-0.5-0.8-0.5-0.5-1.2-0.2c-0.6,0.3-0.8,0-0.8-0.6c0,0.2,0,0.3,0,0.5c0.3-0.7-0.1-1.5-0.2-2.2c0,0.2,0,0.3,0,0.5
						c0.5-0.9,0.5-1.5,0.5-2.5c0,0.1,0,0.2,0,0.3c0.2-1.3,1.4-0.2,1.7-1.5c0.1-0.4-0.1-0.8-0.2-1.2c0,0.2,0,0.3,0,0.5
						c0-0.4,0.5-0.5,0.5-0.9c0-0.4-0.4-0.6-0.6-0.9c0,0.2,0,0.3,0,0.5c0-1,1.1-0.7,1.4-1.3c0.1-0.2,0.1-0.6,0.3-0.9
						c0.1-0.1,0.4-0.3,0.5-0.5c0,0,0-0.5,0-0.5c-0.3-0.2-0.6-0.4-0.8-0.7c0,0.2,0,0.3,0,0.5c0-0.4,0.2-0.8,0.2-1.3
						c0-0.5-0.1-1.1-0.2-1.6c-0.1-0.4-0.2-0.7-0.4-1c-0.1-0.1-0.5-0.2-0.5-0.3c-0.1-0.1-0.1-0.2-0.2-0.4c-0.3-0.4-0.9-1-1-1.6
						c0,0.2,0,0.3,0,0.5c0-0.2,0-0.5,0-0.7c-0.1-0.6-1-1-1.6-0.9c-1.1,0.2-0.8,0.9-0.7,1.6c0-0.2,0-0.3,0-0.5
						c-0.3,0.3-0.8,0.3-0.8,0.9c0,0.5,0.4,0.6,0.5,1.1c0-0.2,0-0.3,0-0.5c-0.1,0.5-0.7,0.4-1,0.2c-0.1-0.1-0.2-0.3-0.3-0.4
						c-0.2-0.1-0.5,0-0.6,0c-0.2,0-0.1-0.2-0.3-0.2c-0.3,0-0.6,0-0.9,0.1c-0.3,0-1.6,0.4-1.7,0.1c0,0.2,0,0.3,0,0.5
						c0-0.2,0.1-0.6,0-0.7c-0.3-0.6-0.4,0-0.6,0c-0.4-0.1-0.3-0.3-0.5-0.7c-0.2-0.3-0.4-0.3-0.7-0.5c-0.3-0.2-0.5-0.6-0.8-0.7
						c-0.5-0.1-0.4,0.3-0.7,0.5c-0.5,0.2-1-0.2-1.3-0.5c0,0.2,0,0.3,0,0.5c0-0.3,0.2-0.8,0.1-1.1c-0.3-1-1.6-1.4-2.2-2.1
						c-0.3-0.4-0.2-0.9-0.5-1.3c-0.5-0.5-1,0.1-1.6,0.2c-0.3,0.1-1.1,0.2-1.4,0.1c-0.3-0.1-0.6-0.3-0.9-0.4
						c-0.7-0.2-0.9,0.1-1.5,0.2c-0.7,0.1-1.5-0.4-2-0.9c-0.3-0.4-0.5-0.9-0.9-1.2c-0.3-0.2-0.8-0.6-1.1-0.7
						c-0.4-0.1-0.9-0.1-1.3-0.1c-0.7,0-0.8,0.1-1.3,0.6c-0.4,0.3-3.4,1.3-3.6,0.7c0,0.2,0,0.3,0,0.5c0.4-1.9-3.5-0.2-3.6-1.8
						c0,0,0,0,0,0c-0.7-0.3-1.7-0.3-2.4-0.5c-0.8-0.2-1.5,0-2.3-0.3c-0.5-0.2-0.7-0.5-1.2-0.6c-0.4-0.1-0.5-0.1-1-0.3
						c-0.3-0.2-0.9-0.3-1.2-0.6c-0.3-0.3-0.4-0.9-0.6-1.3c0,0.2,0,0.3,0,0.5c0.3-0.7,0.6-1.4,0.6-2.2c-0.1-1-0.7-1-1.5-1.5
						c-0.5-0.3-0.8-0.7-1.2-1.1c-0.3-0.4-0.8-0.6-1.1-1c-0.3-0.4-0.5-1-1.1-1.2c-0.7-0.2-1.6,0.7-1.6-0.4c0,0.2,0,0.3,0,0.5
						c0.2-0.3,0.7-0.8,0.5-1.3c-0.2-0.3-0.1-0.1-0.4-0.2c-0.1-0.1-0.3,0-0.5-0.1c-0.1,0,0-0.2-0.1-0.2c-0.5-0.2-1.3,0.1-1.5-0.7
						c0,0.2,0,0.3,0,0.5c0.1-0.2,0.3-0.2,0.4-0.4c0,0,0-0.5,0-0.5c-1-0.5-1.8-0.6-2.4-1.7c-0.5-0.7-1.2-1.4-1.6-2.2
						c0,0.2,0,0.3,0,0.5c0.1-0.1,0.1,0,0.2,0c0,0,0-0.4,0-0.5c-0.1-0.4-0.2-0.7-0.7-0.8c-0.2,0-0.4,0.1-0.6,0.1
						c-0.1,0-0.6-0.2-0.6-0.2c-0.2,0.1-0.2,0.8-0.2,1.1c0,0.5,0,1.4,0.3,1.8c0.2,0.2,0.6,0.4,0.9,0.6c0.4,0.3,1,0.7,1.3,1.1
						c0.5,0.7,0.6,1.7,1.4,2.1c0.2,0.1,0.6,0.1,0.8,0.3c0.4,0.3,0.4,1.1,0.6,1.4c0.2,0.6,0.6,1.6,1,1.9c0.6,0.5,1.2,0.6,1.7,1.2
						c0-0.2,0-0.3,0-0.5c-0.3,0.5-0.4,0.8-1,0.5c-0.4-0.2-0.7-0.6-1-0.8c-0.5-0.3-1-0.5-1.4-0.8c-0.4-0.3-0.4-0.6-0.5-1.2
						c0,0.2,0,0.3,0,0.5c0-0.1,0-0.3,0.2-0.3c0,0,0-0.5,0-0.5c-0.2-0.7-0.3-1-0.9-1.3c-0.1-0.1-0.6-0.3-0.8-0.3
						c-0.2,0-0.3,0.1-0.4,0.1c-0.7,0.2-2.2-0.3-2.5-1c0,0.2,0,0.3,0,0.5c0.3-0.3,1.5-0.1,1.6-0.3c0,0,0-0.5,0-0.5
						c0.2,0-0.6-1.4-0.8-1.5c-0.6-0.5-1.6-0.5-2.2-1.1c-0.7-0.8-1-2.6-1.2-3.6c0,0.2,0,0.3,0,0.5c0.5-0.1,1.1-0.2,1.6-0.3
						c0.3-0.1,0.6-0.2,0.9-0.2c0.1,0,0.2-0.1,0.3-0.1c0.1,0,0.1,0.2,0.2,0.3c1.1,0.3,2.4,0.3,3.5,0.4c1,0.1,1.7,0.1,2.7,0
						c0.6-0.1,1.5-0.1,2-0.3c0.3-0.1,0.4-0.5,0.7-0.6c0.3-0.2,1.3-0.4,1.7-0.4c0.4,0.1,1.1,0.7,1.5,0.9c0.4,0.3,0.7,0.5,1,0.9
						c0.3,0.3,0.7,0.9,1,1.1c1.3,0.6,1.6-1,2.4-1.4c0.4-0.2,1.1-0.3,1.5-0.2c0.3,0.1,0.6,0.5,0.9,0.7c0.9,0.9,1.8,1.8,2.5,2.7
						c0.5,0.7,0.5,0.9,1.3,1c0.5,0.1,1.2,0.3,1.4,0.8c0-0.2,0-0.3,0-0.5c-0.1,0.8-0.5,0.8-1.2,0.7c0,0,0,0.4,0,0.4
						c0,0.9,0.3,1.2,0.7,2c0-0.2,0-0.3,0-0.5c-0.1,0.6-0.2,1-0.1,1.5c0.3,0.9,1,1.5,1.3,2.3c0-0.2,0-0.3,0-0.5
						c-0.1,0.4-0.3,0.7-0.4,1c0,0,0,0.5,0,0.5c0.5,0.2,1,0.3,1.3,0.7c0-0.2,0-0.3,0-0.5c-0.5,2.2,3,2.9,4.5,2.3
						c0.5-0.2,1-0.5,1.5-0.7c0.4-0.1,0.4,0,0.7,0.1c0.4,0.1,0,0.3,0.6,0.1c1.1-0.4,1-0.8,0.7-1.8c0,0.2,0,0.3,0,0.5
						c0.8-0.5,0.8-1,0.6-1.9c0,0.2,0,0.3,0,0.5c0.1-1,0.1-1.4,0-2.3c0,0.2,0,0.3,0,0.5c0.3-0.4,0.8-0.4,1.2-0.6
						c0.3-0.2,0.5-0.5,0.8-0.6c0.4-0.2,1.4-0.5,1.8-0.4c0.5,0.1,0.4,0.5,0.6,1c0-0.2,0-0.3,0-0.5c-0.2,0.4-0.5,0.4-0.6,0.8
						c-0.1,0.4,0.2,0.8,0.2,1.2c0-0.2,0-0.3,0-0.5c-0.1,0.1-0.2,0.3-0.2,0.4c0,0,0,0.5,0,0.5c0.2,0,0.4,0.2,0.6,0.3
						c0-0.2,0-0.3,0-0.5c-0.1,0.7,0,1.2-0.7,1.4c-0.5,0.2-0.5,0-0.5,0.6c0,1.1,0.4,2.1,0.5,3.2c0-0.2,0-0.3,0-0.5
						c-0.3,0.3-0.5,0.6-0.7,1c0,0,0,0.5,0,0.5c0.4,0.2,0.7,0.1,1.1-0.1c0.5-0.3,0.4-0.2,0.9-0.2c0.9,0,1.8-0.6,2.7-0.6
						c0.9,0,1.8-0.3,2.6,0.1c0.4,0.2,0.8,0.2,1.1,0.5c0.4,0.4,0.5,0.9,0.5,1.4c0-0.2,0-0.3,0-0.5c-0.3,0.5-0.7,0.7-0.6,1.3
						c0.1,0.7,0.8,1,0.8,1.8c0-0.2,0-0.3,0-0.5c-0.2,0.3-0.6,0.2-0.8,0.4c0,0,0,0.5,0,0.5c0.4,0.3,1,0.8,1,1.3c0-0.1,0-0.3,0-0.4
						c-0.1,0.5-0.4,0.6-0.4,1.1c0.2,1.7,2.8,1,3.1,2.6c0-0.2,0-0.3,0-0.5c0,0,0,0.1,0,0.1c0,0,0,0.5,0,0.5c1.3-0.2,2.2-0.4,3.3-1.2
						c0.6-0.4,1.4-0.8,2.2-0.7c0.5,0.1,1.6,0.8,1.9,1.2c0.2,0.3,0.4,1.2,0.8,0.5c0.2-0.4-0.2-1-0.3-1.4c0,0.2,0,0.3,0,0.5
						c0.5-0.3,0.3-0.5,0.5-0.9c0.1-0.3,0.6-0.5,0.7-0.9c0.1-0.4-0.2-0.9-0.3-1.3c0,0.2,0,0.3,0,0.5c0.1-0.4,0.3-1.8,1-1.7
						c0,0,0.2,0.4,0.4,0.4c0.2,0,0.1-0.1,0.3-0.2c0.4-0.1,0.8-0.3,1.1-0.5c0.5-0.3,1-0.7,1.3-1.2c0.1-0.3,0.1-0.6,0.4-0.8
						c0.6-0.6,1.3-0.3,1.6,0.4c0-0.2,0-0.3,0-0.5c-0.4,0.5-1.1,0.6-1,1.3c0,0.6,0.6,0.9,0.7,1.6c0-0.2,0-0.3,0-0.5
						c-0.1,0.4-0.3,0.6-0.3,1.1c0.1,0.5,0.1,0.7,0.6,0.9c0.4,0.1,0.8,0,1-0.5c0.1-0.2,0.1-0.8,0-1c-0.1-0.2-0.5-0.3-0.6-0.6
						c-0.1-0.2-0.1-0.5-0.1-0.8c0-0.2,0-0.3,0-0.5c0,0.2,0,0.3,0,0.5c1-0.6,0.9-1.1,0.8-2.1c0,0.2,0,0.3,0,0.5
						c0.6-0.6,0.9,0.3,1.4,0.5c0.5,0.2,1-0.1,1.4,0.1c0.3,0.2,0.3,0.3,0.5,0.6c0.4,0.5,0.3,0.5,0.8,0.3c0.6-0.2,1-0.5,1.6-0.5
						c0.3,0,0.5-0.1,0.8-0.1c0.3,0.1,0.5,0.4,0.8,0.4c0.2,0,0.6-0.1,0.8-0.2c0.3-0.2,0.4-0.6,0.7-0.7c0.2-0.1,0.6,0,0.8-0.1
						c0.3-0.1,0.4-0.2,0.7-0.4c0.6-0.3,1.3-0.4,2-0.1c0-0.2,0-0.3,0-0.5c-0.2,0.3-0.5,0.4-0.7,0.6c0,0,0,0.5,0,0.5
						c0.3,0.3,0.5,0.5,0.9,0.5c0.3,0,0.6-0.2,1-0.2c0.6,0,1.3,0.6,1.8,0.9c0-0.2,0-0.3,0-0.5c0,0.2-0.2,0.8-0.1,1
						c0.3,1,1.2,0.1,1.8,0.1c1.4-0.1,1.3,1.8,2.2,2.2c0.3,0.2,0.7-0.1,1.1,0c0.5,0.1,0.8,0.6,1.3,0.8c0.7,0.2,1.2,0.3,2,0.1
						c0.9-0.3,1.5-0.5,2.5-0.3c0.8,0.2,1.7-0.1,2.3,0.4c0.7,0.5,0.9,0.7,1.8,0.8c0-0.1,0-0.3,0-0.4c0,0.2-0.1,0.6,0,0.8
						c0.1,0.4,0.6,0.8,0.8,1.1c0.3,0.4,0.4,0.9,0.8,1.3c0.4,0.4,0.7,0.6,1.2,0.9c0-0.2,0-0.3,0-0.5c0,0.5-0.1,1.1-0.4,1.5
						c-0.4,0.5-1.1,0.8-1.4,1.4c-0.2,0.4-0.2,0.8-0.3,1.2c-0.2,0.5-0.4,0.8-0.6,1.3c0,0.1,0,0.5,0,0.5c1-0.2,2,0.3,3.1,0
						c1.3-0.4,2.1-0.8,2.9-1.9c0.4-0.5,0.6-0.6,1.3-0.6c0.6,0,1.3-0.1,1.9,0c0.4,0.1,0.3,0.1,0.6,0.3c0.5,0.3,0.3,0.1,0.6,0
						c0.4-0.1,0.4-0.2,0.7,0.1c0.3,0.3,0.5,0.9,0.7,1.2c0-0.2,0-0.3,0-0.5c-0.3,0.4-0.7,0.5-0.8,0.9c-0.1,0.4,0.2,1.2,0.8,0.9
						c0.2-0.1,0.2-0.5,0.4-0.7c0.1-0.1,0.3-0.1,0.4-0.1c0.1-0.1,0.1-0.2,0.2-0.3c0.8-0.6,1.2-0.2,2.1-0.2c0.5,0,1.2,0,1.7-0.1
						c0.7-0.1,1.5-0.5,2.2-0.4c0.5,0,1.5,0.2,1.9,0.5c0.7,0.6,1.5,1.9,2.6,1.9c0.8,0,1.5-0.5,2.2,0.1c0.3,0.2,0.4,0.5,0.6,0.8
						c0.3,0.5,0.7,0.9,0.8,1.4c0-0.2,0-0.3,0-0.5c-0.2,0.6-0.2,1.1,0.1,1.7C347,113,347.1,112.8,347,112.6z"/>
				</g>
			</g>
		</g>
	</g>
</g>
</svg>
