<?xml version="1.0" encoding="utf-8"?>
<!-- Generator: Adobe Illustrator 23.0.5, SVG Export Plug-In . SVG Version: 6.00 Build 0)  -->
<svg version="1.1" id="Capa_1" xmlns="http://www.w3.org/2000/svg" xmlns:xlink="http://www.w3.org/1999/xlink" x="0px" y="0px"
	 viewBox="0 0 812.4 215" style="enable-background:new 0 0 812.4 215;" xml:space="preserve">
<style type="text/css">
	.st0{fill:url(#SVGID_1_);}
	.st1{fill:url(#SVGID_2_);}
	.st2{fill:url(#SVGID_3_);}
	.st3{fill:url(#SVGID_4_);}
	.st4{fill:#FFFFFF;}
	.st5{fill:#1E2F57;}
	.st6{fill:#8D271B;}
	.st7{fill:#211C1E;}
	.st8{fill:none;stroke:#8D271B;stroke-miterlimit:10;}
	.st9{fill:url(#SVGID_5_);}
	.st10{fill:url(#SVGID_6_);}
	.st11{fill:url(#SVGID_7_);}
	.st12{fill:url(#SVGID_8_);}
	.st13{fill:url(#SVGID_9_);}
	.st14{fill:url(#SVGID_10_);}
	.st15{fill:url(#SVGID_11_);}
	.st16{fill:url(#SVGID_12_);}
</style>
<g>
	<g>
		<g>
			<path class="st6" d="M243.1,87.3c0,6.2-4.7,10.1-12.2,10.1h-5.6v7.7h-6.5v-28H231C238.5,77.1,243.1,81,243.1,87.3z M236.6,87.3
				c0-3.1-2-4.9-6-4.9h-5.3v9.7h5.3C234.6,92.1,236.6,90.3,236.6,87.3z"/>
			<path class="st6" d="M251.4,92.8V77.1h6.5v15.4c0,5.3,2.3,7.5,6.2,7.5c4,0,6.2-2.2,6.2-7.5V77.1h6.4v15.7
				c0,8.2-4.7,12.8-12.7,12.8S251.4,101.1,251.4,92.8z"/>
			<path class="st6" d="M308.8,99.9v5.2h-21.7v-28h21.2v5.2h-14.7v6.1h13v5h-13v6.5H308.8z"/>
			<path class="st6" d="M343.7,97.5c0,4.8-3.8,7.6-11.2,7.6H318v-28h13.7c7,0,10.6,2.9,10.6,7.3c0,2.8-1.4,5-3.7,6.2
				C341.7,91.6,343.7,94,343.7,97.5z M324.4,82v6.6h6.4c3.2,0,4.9-1.1,4.9-3.3c0-2.2-1.7-3.3-4.9-3.3H324.4z M337.1,96.8
				c0-2.4-1.8-3.5-5.2-3.5h-7.6v6.9h7.6C335.3,100.3,337.1,99.2,337.1,96.8z"/>
			<path class="st6" d="M352.6,77.1h6.5v22.7h14v5.3h-20.5V77.1z"/>
			<path class="st6" d="M378.5,91.1c0-8.3,6.5-14.5,15.3-14.5c8.8,0,15.3,6.1,15.3,14.5c0,8.4-6.5,14.5-15.3,14.5
				C385,105.6,378.5,99.5,378.5,91.1z M402.6,91.1c0-5.3-3.8-9-8.8-9c-5,0-8.8,3.6-8.8,9c0,5.3,3.8,9,8.8,9
				C398.8,100.1,402.6,96.5,402.6,91.1z"/>
			<path class="st6" d="M415.8,102.4l2.2-4.9c2.4,1.7,5.9,2.9,9.2,2.9c3.8,0,5.4-1.3,5.4-3c0-5.2-16.3-1.6-16.3-12
				c0-4.8,3.8-8.7,11.8-8.7c3.5,0,7.1,0.8,9.7,2.5l-2,4.9c-2.6-1.5-5.3-2.2-7.8-2.2c-3.8,0-5.3,1.4-5.3,3.2
				c0,5.2,16.3,1.6,16.3,11.9c0,4.7-3.9,8.7-11.9,8.7C422.8,105.6,418.3,104.3,415.8,102.4z"/>
			<path class="st6" d="M461.1,91.1c0-8.3,6.5-14.5,15.3-14.5c8.8,0,15.3,6.1,15.3,14.5c0,8.4-6.5,14.5-15.3,14.5
				C467.6,105.6,461.1,99.5,461.1,91.1z M485.2,91.1c0-5.3-3.8-9-8.8-9c-5,0-8.8,3.6-8.8,9c0,5.3,3.8,9,8.8,9
				C481.4,100.1,485.2,96.5,485.2,91.1z"/>
			<path class="st6" d="M518.5,105.1l-5.4-7.8h-0.3h-5.6v7.8h-6.5v-28h12.1c7.5,0,12.2,3.9,12.2,10.2c0,4.2-2.1,7.3-5.8,8.8l6.3,9
				H518.5z M512.4,82.4h-5.3v9.8h5.3c4,0,6-1.8,6-4.9C518.3,84.2,516.3,82.4,512.4,82.4z"/>
			<path class="st6" d="M534,77.1h6.5v28H534V77.1z"/>
			<path class="st6" d="M570.1,90.7h5.9v11.4c-3.1,2.3-7.3,3.6-11.3,3.6c-8.8,0-15.3-6-15.3-14.5c0-8.4,6.5-14.5,15.4-14.5
				c4.9,0,9,1.7,11.7,4.8l-4.2,3.8c-2-2.2-4.4-3.2-7.2-3.2c-5.4,0-9.2,3.6-9.2,9c0,5.2,3.7,9,9.1,9c1.8,0,3.4-0.3,5-1.2V90.7z"/>
			<path class="st6" d="M586,77.1h6.5v28H586V77.1z"/>
			<path class="st6" d="M628.8,77.1v28h-5.3l-14-17v17h-6.4v-28h5.4l13.9,17v-17H628.8z"/>
			<path class="st6" d="M657.9,99.1h-13l-2.5,6h-6.6l12.5-28h6.4l12.5,28h-6.8L657.9,99.1z M655.8,94.2l-4.4-10.7l-4.4,10.7H655.8z"
				/>
			<path class="st6" d="M691.9,105.1l-5.4-7.8h-0.3h-5.6v7.8h-6.5v-28h12.1c7.5,0,12.2,3.9,12.2,10.2c0,4.2-2.1,7.3-5.8,8.8l6.3,9
				H691.9z M685.8,82.4h-5.3v9.8h5.3c4,0,6-1.8,6-4.9C691.8,84.2,689.8,82.4,685.8,82.4z"/>
			<path class="st6" d="M707.5,77.1h6.5v28h-6.5V77.1z"/>
			<path class="st6" d="M722.8,91.1c0-8.3,6.5-14.5,15.3-14.5c8.8,0,15.3,6.1,15.3,14.5c0,8.4-6.5,14.5-15.3,14.5
				C729.3,105.6,722.8,99.5,722.8,91.1z M746.9,91.1c0-5.3-3.8-9-8.8-9c-5,0-8.8,3.6-8.8,9c0,5.3,3.8,9,8.8,9
				C743.1,100.1,746.9,96.5,746.9,91.1z"/>
			<path class="st6" d="M760.1,102.4l2.2-4.9c2.4,1.7,5.9,2.9,9.2,2.9c3.8,0,5.4-1.3,5.4-3c0-5.2-16.3-1.6-16.3-12
				c0-4.8,3.8-8.7,11.8-8.7c3.5,0,7.1,0.8,9.7,2.5l-2,4.9c-2.6-1.5-5.3-2.2-7.8-2.2c-3.8,0-5.3,1.4-5.3,3.2
				c0,5.2,16.3,1.6,16.3,11.9c0,4.7-3.9,8.7-11.9,8.7C767.1,105.6,762.6,104.3,760.1,102.4z"/>
		</g>
		<g>
			<g>
				<path class="st7" d="M326.5,138.1l0-9.7l-4.8,8.1h-0.9l-4.8-8v9.6h-1.8v-13.3h1.6l5.5,9.3l5.5-9.3h1.6l0,13.3H326.5z"/>
				<path class="st7" d="M349.6,136.5v1.7H340v-13.3h9.4v1.7h-7.5v4.1h6.7v1.6h-6.7v4.3H349.6z"/>
				<path class="st7" d="M372.6,138.1l0-9.7l-4.8,8.1h-0.9l-4.8-8v9.6h-1.8v-13.3h1.6l5.5,9.3l5.5-9.3h1.6l0,13.3H372.6z"/>
				<path class="st7" d="M384.9,131.5c0-3.9,3-6.8,7.1-6.8c4,0,7,2.9,7,6.8c0,3.9-3,6.8-7,6.8C387.9,138.3,384.9,135.4,384.9,131.5z
					 M397.2,131.5c0-2.9-2.2-5.1-5.1-5.1c-3,0-5.2,2.2-5.2,5.1c0,2.9,2.2,5.1,5.2,5.1C395,136.6,397.2,134.4,397.2,131.5z"/>
				<path class="st7" d="M418.5,138.1l-2.9-4.1c-0.3,0-0.6,0-0.8,0h-3.3v4h-1.9v-13.3h5.2c3.5,0,5.5,1.7,5.5,4.6
					c0,2.1-1.1,3.5-2.9,4.2l3.2,4.5H418.5z M418.4,129.5c0-1.9-1.3-3-3.7-3h-3.2v6h3.2C417.1,132.5,418.4,131.4,418.4,129.5z"/>
				<path class="st7" d="M431,124.8h1.9v13.3H431V124.8z"/>
				<path class="st7" d="M453,134.8h-7.1l-1.5,3.3h-2l6-13.3h1.9l6,13.3h-2L453,134.8z M452.3,133.3l-2.9-6.5l-2.9,6.5H452.3z"/>
				<path class="st7" d="M464.8,136.6l0.7-1.5c1,0.9,2.7,1.5,4.4,1.5c2.3,0,3.3-0.9,3.3-2.1c0-3.2-8.1-1.2-8.1-6.1
					c0-2.1,1.6-3.8,5.1-3.8c1.6,0,3.2,0.4,4.3,1.2l-0.6,1.5c-1.2-0.7-2.5-1.1-3.6-1.1c-2.3,0-3.2,0.9-3.2,2.1c0,3.2,8.1,1.2,8.1,6.1
					c0,2-1.6,3.8-5.1,3.8C467.8,138.3,465.8,137.6,464.8,136.6z"/>
				<path class="st7" d="M507.8,138.3l-1.8-1.8c-1.2,1.1-2.7,1.7-4.4,1.7c-2.7,0-4.7-1.4-4.7-3.5c0-1.6,0.9-2.8,3.2-4.1
					c-1.2-1.2-1.6-2.1-1.6-3c0-1.8,1.4-3,3.6-3c2,0,3.3,1,3.3,2.8c0,1.3-0.8,2.3-2.8,3.5l3.3,3.3c0.4-0.7,0.6-1.5,0.8-2.4l1.5,0.5
					c-0.2,1.2-0.6,2.2-1.2,3l1.8,1.8L507.8,138.3z M505,135.5l-3.8-3.8c-1.9,1-2.5,1.8-2.5,2.9c0,1.3,1.2,2.1,3,2.1
					C503,136.8,504.1,136.3,505,135.5z M500.3,127.7c0,0.7,0.3,1.2,1.3,2.3c1.7-1,2.3-1.6,2.3-2.4c0-0.9-0.6-1.5-1.8-1.5
					C501,126,500.3,126.7,500.3,127.7z"/>
				<path class="st7" d="M530.2,136.6l0.7-1.5c1,0.9,2.7,1.5,4.4,1.5c2.3,0,3.3-0.9,3.3-2.1c0-3.2-8.1-1.2-8.1-6.1
					c0-2.1,1.6-3.8,5.1-3.8c1.6,0,3.2,0.4,4.3,1.2l-0.6,1.5c-1.2-0.7-2.5-1.1-3.6-1.1c-2.3,0-3.2,0.9-3.2,2.1c0,3.2,8.1,1.2,8.1,6.1
					c0,2-1.6,3.8-5.1,3.8C533.3,138.3,531.3,137.6,530.2,136.6z"/>
				<path class="st7" d="M549.8,131.5c0-3.9,3-6.8,7.1-6.8c4,0,7,2.9,7,6.8c0,3.9-3,6.8-7,6.8C552.8,138.3,549.8,135.4,549.8,131.5z
					 M562,131.5c0-2.9-2.2-5.1-5.1-5.1c-3,0-5.2,2.2-5.2,5.1c0,2.9,2.2,5.1,5.2,5.1C559.8,136.6,562,134.4,562,131.5z"/>
				<path class="st7" d="M573.3,131.5c0-3.9,3-6.8,7-6.8c2.1,0,3.8,0.7,5.1,2.1l-1.2,1.2c-1-1.1-2.3-1.6-3.7-1.6
					c-3,0-5.2,2.2-5.2,5.1c0,2.9,2.2,5.1,5.2,5.1c1.5,0,2.7-0.5,3.7-1.6l1.2,1.2c-1.2,1.4-3,2.1-5.1,2.1
					C576.3,138.3,573.3,135.4,573.3,131.5z"/>
				<path class="st7" d="M595.7,124.8h1.9v13.3h-1.9V124.8z"/>
				<path class="st7" d="M618.9,136.5v1.7h-9.7v-13.3h9.4v1.7h-7.5v4.1h6.7v1.6h-6.7v4.3H618.9z"/>
				<path class="st7" d="M629.6,124.8h5.6c4.3,0,7.2,2.7,7.2,6.6c0,4-2.9,6.6-7.2,6.6h-5.6V124.8z M635.1,136.5c3.3,0,5.4-2,5.4-5
					c0-3-2.1-5-5.4-5h-3.6v10H635.1z"/>
				<path class="st7" d="M661.1,134.8h-7.1l-1.5,3.3h-2l6-13.3h1.9l6,13.3h-2L661.1,134.8z M660.5,133.3l-2.9-6.5l-2.9,6.5H660.5z"
					/>
				<path class="st7" d="M674.2,124.8h5.6c4.3,0,7.2,2.7,7.2,6.6c0,4-2.9,6.6-7.2,6.6h-5.6V124.8z M679.7,136.5c3.3,0,5.4-2,5.4-5
					c0-3-2.1-5-5.4-5h-3.6v10H679.7z"/>
			</g>
		</g>
		<line class="st8" x1="218.3" y1="130.7" x2="305.4" y2="130.7"/>
		<line class="st8" x1="218.3" y1="125.3" x2="305.4" y2="125.3"/>
		<line class="st8" x1="694.2" y1="130.7" x2="781.4" y2="130.7"/>
		<line class="st8" x1="694.2" y1="125.3" x2="781.4" y2="125.3"/>
	</g>
	<g>
		<g>
			<g>
				<linearGradient id="SVGID_1_" gradientUnits="userSpaceOnUse" x1="75.4354" y1="20.1713" x2="75.7115" y2="20.8038">
					<stop  offset="1.582485e-02" style="stop-color:#07892F"/>
					<stop  offset="0.209" style="stop-color:#F2C000"/>
					<stop  offset="0.4441" style="stop-color:#EC7710"/>
					<stop  offset="0.6341" style="stop-color:#DB121A"/>
					<stop  offset="0.815" style="stop-color:#752C64"/>
					<stop  offset="0.9763" style="stop-color:#0E47AE"/>
				</linearGradient>
				<path class="st0" d="M76,20.3c0.2,0.1-0.1,0.2-0.8,0.2c-0.2,0-0.3,0-0.6,0c-0.1,0-0.2,0-0.3,0c0.1,0,0.3,0,0.4,0
					C76.7,20.5,77.6,20.4,76,20.3z"/>
				<linearGradient id="SVGID_2_" gradientUnits="userSpaceOnUse" x1="73.6391" y1="20.551" x2="73.7568" y2="20.8205">
					<stop  offset="1.582485e-02" style="stop-color:#07892F"/>
					<stop  offset="0.209" style="stop-color:#F2C000"/>
					<stop  offset="0.4441" style="stop-color:#EC7710"/>
					<stop  offset="0.6341" style="stop-color:#DB121A"/>
					<stop  offset="0.815" style="stop-color:#752C64"/>
					<stop  offset="0.9763" style="stop-color:#0E47AE"/>
				</linearGradient>
				<path class="st1" d="M73.1,20.8c0.3-0.1,0.6-0.1,0.9-0.2c0,0,0.2,0,0.3,0c0,0,0,0,0,0c0,0,0,0,0,0c-0.1,0-0.3,0-0.3,0
					c-0.2,0-0.3,0.1-0.5,0.1C73.4,20.7,73.2,20.8,73.1,20.8C73.1,20.8,73.1,20.8,73.1,20.8C73.1,20.8,73.1,20.8,73.1,20.8z"/>
				<linearGradient id="SVGID_3_" gradientUnits="userSpaceOnUse" x1="76.5209" y1="28.6499" x2="136.2617" y2="165.4754">
					<stop  offset="1.582485e-02" style="stop-color:#07892F"/>
					<stop  offset="0.209" style="stop-color:#F2C000"/>
					<stop  offset="0.4441" style="stop-color:#EC7710"/>
					<stop  offset="0.6341" style="stop-color:#DB121A"/>
					<stop  offset="0.815" style="stop-color:#752C64"/>
					<stop  offset="0.9763" style="stop-color:#0E47AE"/>
				</linearGradient>
				<path class="st2" d="M191.7,104.5c-0.3-0.4-0.6-0.7-0.9-1c-0.3-0.3-0.7-0.7-1-1c-0.7-0.6-1.5-1.2-2.4-1.7
					c-0.9-0.5-1.8-0.9-2.8-1.2c-1-0.3-1.9-0.5-2.8-0.6c-0.5-0.1-0.9-0.1-1.3-0.1c-0.4,0-0.9,0-1.3,0l-0.6,0l-0.2,0l-0.2,0l-1,0.1
					c-1.3,0.1-2.6,0.2-3.9,0.3c-2.6,0.2-5.2,0.4-7.8,0.6c-5.2,0.4-10.3,0.8-15.3,1.3c0.4,0,0.7,0,1,0c-10.6,0.8-18.7-0.3-29.1,0.2
					c0,0.2-0.4,0.3-0.9,0.4c-0.2,0-0.5,0.1-0.8,0.1c-0.1,0-0.3,0-0.3,0.1c0,0-0.1,0-0.1,0.1c-0.2-0.4-1.3-0.4-3.4-0.1
					c-2,0.3-5.2,0.7-9.3,1.2c-4.1,0.4-9.1,0.9-13.2,1.1c-2,0.1-3.8,0.2-5,0.2c-1.2,0-1.8-0.1-1.5-0.2c-0.9,0-1.7,0-2.5-0.1
					c-0.6-0.2-1-0.5-1.3-0.9c-0.2-0.2-0.3-0.4-0.3-0.7c0-0.3,0.1-0.7,0.5-1.1c0.4-0.4,1-0.6,1.5-0.8l1.8-0.6
					c1.2-0.4,2.3-0.8,3.5-1.1c4.7-1.3,9-2.3,12.5-2.9c4.9-0.9,7.9-1.1,9.7-1.7c-0.3-0.8,0.4-1.7,1-2.7c1,0.2,1.2-0.1,1.5-0.4
					c0.2-0.3,0.8-0.7,1.9-0.8c2.5,1.2,7.7,0.7,9.5,0.3c2.1-0.5,2.1-1.1-0.6-1.2c8.2-2,16.6-3.1,24.1-4.6c3.4-0.9,6.8-1.8,10.2-2.7
					c1.5-0.4,2.6-0.6,3.7-0.6c0.2,0,0.5,0,0.7,0c0.2,2.3,0.1,1.8,0,0c0.3,0,0.5,0,0.8,0.1c0.2,0,0.4,0.1,0.7,0.1l0.3,0.1l0.2,0
					l0.1,0c0,0,0,0,0.2,0c2.1-0.5,4.2-1.4,5.9-2.9c0.8-0.7,1.5-1.5,2.1-2.3c0.5-0.8,1-1.6,1.2-2.3c1.1-3.1,0.7-5.6,0-7.6
					c-0.8-2-2.1-3.7-3.7-5c-0.8-0.6-1.7-1.2-2.6-1.6c-0.9-0.4-1.8-0.7-2.7-0.9c-0.4-0.1-0.9-0.2-1.4-0.3c-0.4-0.1-0.8-0.1-1.3-0.1
					c-0.4,0-0.9,0-1.3,0c-0.2,0-0.2,0-0.4,0c-0.4,0-0.8-0.1-1.4-0.1c-1-0.1-2.4-0.1-4.4,0c-2-1.1-20,3.1-22.3,2.9l1.3-0.3
					c-6.7,0.3-11.9-0.6-17.7-1l6.1-1.9c2.7-0.9,5.2-1.8,7.9-2.8c2.4-0.9,4.5-1.8,6.8-2.8c0.3-0.1,0.5-0.2,0.7-0.3l0.6-0.3l1.2-0.7
					l2.5-1.4c1.3-0.9,2.3-1.7,3.3-2.6c1-0.6,2-1.3,3-1.9c0.5-0.3,1-0.6,1.4-0.8c0.4-0.2,0.7-0.4,1-0.6c2-2.1-0.3-1.2,0.7-2.7
					l1.9-0.4c-0.2-0.5,0-1,0.2-1.4c0.2-0.4,0.5-0.9,0.8-1.3c0.2-0.2,0.3-0.4,0.4-0.6c0.1-0.2,0.2-0.4,0.3-0.8c0.1-0.7,0.1-1.9-0.4-3
					c-0.3-0.1-0.6-0.6-0.8-1c-0.1-0.2-0.2-0.4-0.3-0.6c-0.1-0.1-0.1-0.2-0.2-0.3c0.7-0.1,0.6-0.4,0.4-0.6c-0.1-0.1-0.2-0.2-0.2-0.3
					c0-0.1,0.2-0.2,0.6-0.3l-0.1,0c-0.1-0.3-0.3-0.4-0.1-0.8c-0.3-0.1-1-0.4-2.1-0.8c-0.6-0.2-1.2-0.4-2-0.6
					c-0.8-0.3-1.8-0.5-2.7-0.8c-0.5-0.1-1.1-0.3-1.6-0.4c-0.6-0.1-1.1-0.3-1.7-0.4c-1.1-0.2-2.1-0.4-3.4-0.7
					c-2.4-0.4-4.2-0.6-4.9-0.7c-0.1-0.1-0.3-0.3-0.5-0.4c-3-0.8-6.4-0.3-5.3,0.4l-1.7-0.5l-0.4-0.1l-0.7-0.1l-1.3-0.1l0.8,0
					l-2.4-0.2l-3.3,0c-0.9-0.1-1.2-0.6,1.8-1.1c-4.6,0.4-8.8,0.6-12,0.3c3.8,0.4,8.1,0.8,12.5,1.2c0.9,0.2,1.8,0.4,2.7,0.6
					c0.6,0.3,1,0.6,1.5,1c0.4,0.3,0.9,0.6,1.3,0.9l0.3,0.2c0.1,0.1,0.1,0.2,0.2,0.2l0.3,0.5c-0.3,0-0.7-0.1-1-0.1
					c-0.3-0.1-0.6-0.1-1-0.2c-0.8-0.2-1.5-0.4-2.2-0.6c-0.7-0.2-1.5-0.4-2.2-0.7c-0.9-0.1-2-0.2-3-0.2c-0.1,0-0.2-0.1-0.4-0.1
					c-0.8-0.2-2-0.3-3.5-0.5c-1.4-0.2-3-0.4-4.8-0.5c-0.9-0.1-1.8-0.2-2.7-0.3c-0.9-0.1-1.8-0.2-2.7-0.3c-1.9-0.2-3.7-0.4-5.4-0.6
					c-0.9,0-2,0.3-3.3,0.5c-1.3,0.2-2.6,0.3-4.2-0.1c-0.5-0.5-1.6-0.5-2.8-0.6c-1.2,0-2.6-0.1-3.9-0.5c1.9-0.1,3.8,0,5.6,0.1
					c1.8,0.1,3.6,0.2,5.4,0.4c0.3-0.5-1.8-0.8-4.4-1c-2.5-0.3-5.4-0.5-6.8-0.7c-0.8,0.1-3-0.1-5.5-0.3c-2.5-0.2-5.4-0.5-7.7-0.6
					c0.5-0.2,0.6-0.4,0.3-0.5c-0.1-0.1-0.4-0.1-0.6-0.2c-0.1,0-0.3-0.1-0.5-0.1c-0.1,0-0.2,0-0.2,0l-0.1,0c-0.2-0.1-0.5-0.1-0.8-0.2
					c-0.3,0.1-0.6,0.1-1,0.1c0.1,0,0.2,0,0.3,0c0.2,0,0.4-0.1,0.6-0.1c-0.6-0.1-1.3-0.3-1.8-0.5c-1.6-0.3-2.8,0-2.2,0.4
					c-0.2,0.2,0.1,0.4,0.5,0.6c-0.5,0.1-1,0.1-1.5,0.2c-3.7,0.4-7.2,0.7-6.4,0.8c0.5,0.2,0.5,0.3,0.4,0.5c-0.2,0-0.4,0.1-0.3,0.3
					c-0.3,0.2-0.5,0.4,0.2,0.6l0.7-0.2c3.6,0.6,1.9,1.8,0.2,3.1c-1.8,1.4-3.7,2.8,0.8,3.5c-3.5-1.8,1.5-1.2,5.4-0.9
					c0.2,0.2,0.6,0.6,1.5,0.9c0.8,0.4,1.8,0.7,3.5,1.1c2.8,0.2,1.8-0.3,2.5-0.6c1.5,0.4,4.4,1,3.6,1.6c1.3-0.3,2.1-0.1,2.9,0.2
					c0.8,0.3,1.5,0.6,2.9,0.6c2.7-0.2,0.2-0.4,2.2-0.6c3.4,0.3,8.1,0.8,10.8,1c0,0.3,0.2,0.8-0.2,1.3c-0.4,0.5-1.2,1-3.1,1.4
					c-2-0.2-1-0.5,0-0.8c1-0.3,2.1-0.6-0.6-0.6c-0.2,0.8-1.4,0.8-2.9,0.7c-1.5,0-3.3-0.2-4.4,0.3c0.6,0.7,3.2,0.9,5.9,0.9l-0.1-0.2
					c1.4,0,3.5,0,5.3,0.1c1.3,0.1,2.4,0.3,2.6,0.6c-1.7,0.4-1.7,0.8-3.4,0.8l2.4,0.2c0.7-0.1,1.5-0.3,1-0.4c2.3-0.3,3-0.1,3.2,0.2
					c-0.6,0.2,4.4-0.1,10.1-0.6c5.6-0.4,11.9-1,11-0.9c1.1,0,1.1,0.1,1.2,0.2c-2.5,0.1-6.3,0.4-9.8,0.6c-6.4,0.4-11.8,0.7-10.3,0.7
					c0,0.1,1.8,0.1,4.6-0.1c2.8-0.1,6.8-0.4,10.9-0.7c4.1-0.3,8.2-0.6,11.4-0.8c0.8,0,1.5-0.1,2,0c0.6,0.1,1,0.4,1.2,0.7
					c0.4,0.6,0.1,1.1-0.4,1.3c0.1,0.3,0.1,0.7,0,1c-0.1,0.3-0.2,0.5-0.2,0.7c-0.1,0.3,0.3,0.3,1.7,0.1c-1.8,0.7-2.8,0.7-3.8,0.8
					c-1,0-2.2,0-4.1,0.6c0.3,0,1.4-0.2,0.7,0.1l-4.5,1.1c0.1,0.3-0.5,0.7-1.4,1.2c-0.5,0.2-1,0.5-1.5,0.7c-0.6,0.2-1.2,0.5-1.8,0.7
					c-2.4,0.9-4.6,1.7-4.6,2.4c-0.8-0.4-3.2-0.7-3.1-1.4l1.5-0.2c-0.3-0.1,0.7-0.7-1.5-0.6c-1.7,0.4-2.8,0.8-3.5,1.1
					c-0.7,0.3-1.1,0.6-1.2,1c-0.9,0.2-1.8,0.3-2.6,0.4c0.2,0,0.5,0,0.7,0c-1.8,0.2-1.9,0.2-2.4,0.1c-0.1,0-0.2,0-0.3,0
					c-3.2,0.2-4,0.8-5.1,1.5c-1,0.7-2.5,1.6-5.2,2c-0.5,0.4,0.5,0.1-0.1,0.6c-5.1,0.9-8.2-1.6-12-0.6c-0.2,0.8-0.1,1.1,2.3,1
					c-1.1,0.3-2.1,0.6-3.1,0.9c0.3-1.2-1.5-0.9-2.9-0.8c-0.7,0.1-1.4,0.1-1.9,0c-0.5-0.1-0.7-0.4-0.4-1c-0.5,0-1.1,0.1-1.7,0.3
					c-0.3,0.1-0.6,0.3-0.9,0.4l-0.2,0.1L73,52.8c-0.3,0.2-6.9,2.3-7.2,2.5c0,0.5,0.1,1.4-2.7,2.9c-2.1,0.8-2.9,1.2-3.6,1.5
					c-0.7,0.3-1.4,0.5-3.1,1.4c-1.2,0-0.2-1-0.7-1.3c-1.1,1-1.9,1.6-2.7,2.1c-0.4,0.2-0.7,0.4-1.1,0.5c0,0-0.2,0.1-0.3,0.2l-0.4,0.3
					c-0.3,0.2-0.5,0.4-0.8,0.7c-0.5,0.5-1,1-1.4,1.5c-1.7,2.2-2.8,5.2-2.2,8.6c0.3,1.7,1.1,3.6,2.8,5.4c0.8,0.9,1.9,1.8,3.2,2.6
					c1,0.6,2.1,1,3.4,1.4l5.8,1.2c-8.4-2.7-18.5-12.2-14.3-19.3c0.5-0.8,1.1-1.6,1.8-2.3c0.3-0.3,0.7-0.6,1-1l0.5-0.4l0.1-0.1l1-0.7
					l2.1-1.4c1.4-1,2.8-1.7,4.2-2.5l2.1-1.2c0.7-0.4,1.4-0.7,2.2-1.1c-0.8,0.3-1.7,0.6-2.5,0.9c-0.8,0.4-1.7,0.7-2.5,1.1
					c-0.8,0.4-1.7,0.8-2.6,1.2c-0.8,0.5-1.7,0.9-2.5,1.4c-0.8,0.5-1.7,0.9-2.5,1.4c0,0-0.1,0.1-0.2,0.2l-0.3,0.3
					c-0.2,0.2-0.4,0.4-0.7,0.6c-0.4,0.4-0.8,0.8-1.2,1.3c-0.8,0.9-1.5,2-2,3.1c-1.1,2.2-1.5,4.7-1.2,7c0.3,2.3,1.1,4.5,2.6,6.5
					c1.4,2,9.8,4.7,12.3,5.9c0.1,0,0.1,0.1,0.2,0.1c-1.2,0.4-2.5,0.9-3.6,1.3l-4.1,1.7l-4.2,1.7c-1.4,0.6-2.7,1.2-4.1,1.8
					c-0.2,0.1-0.4,0.2-0.8,0.4c-1.2,0.7-2.5,1.4-3.9,2.2c-1,0.8-2,1.7-3.1,2.7c-0.5,0.5-1.1,1-1.7,1.5c-0.4,0.5-0.8,1-1.2,1.5
					c-0.4,0.5-0.8,1-1.1,1.5c-0.3,0.5-0.9,1.1-1,1.6c-0.5,1-1,2.1-1.5,3.2c-0.1,0.3-0.2,0.5-0.3,1c0,0.5,0,1.1,0.1,1.7
					c0.1,0.6,0.2,1.2,0.4,1.6c0.2,0.4,0.3,0.9,0.5,1.2c0.7,1.6,1.6,2.7,2.4,3.6c0.4,0.5,0.8,0.9,1.2,1.3c0.4,0.4,0.8,0.7,1.3,1.1
					c1.1,0.7,2.1,1.5,3.1,2.2c1.5,0.8,3,1.6,4.4,2.3c0.3,0.2,0.9,0.4,1.5,0.5c0.6,0.2,1.1,0.4,1.7,0.5c1.1,0.4,2.2,0.7,3.3,1.1
					l0.8,0.3l0.4,0.1l0.2,0.1c0.1,0,0.2,0,0.3,0c0.8,0.1,1.6,0.2,2.4,0.3c1.6,0.2,3.2,0.4,4.8,0.6c0.8,0.1,1.6,0.2,2.4,0.3
					c0.8,0.1,1.5,0.2,2.4,0.2c1.8,0.1,3.5,0.2,5.2,0.3c3.4,0.2,6.6,0.4,9.9,0.5c6.2,0.2,11.7,0.5,16.5,0.7c-2.4,0.7-4.9,1.3-7.4,2
					c-1,0.3-2.1,0.6-3.1,0.9c0.2-1,0.2-0.8,0,0c-0.5,0.1-1,0.3-1.5,0.4l-2.3,0.6l-1.2,0.3l-0.6,0.2l-0.5,0.2
					c-0.4,0.1-0.8,0.3-1.2,0.4c-1.6,0.6-3.2,1.7-4.3,3.1c-1.1,1.3-1.8,2.9-2.1,4.4c-0.2,1.5-0.1,3.1,0.4,4.6
					c0.6,1.5,1.5,2.9,2.9,4.1c1.4,1.1,3.1,2,4.7,2.3l0.6,0.1l0.2,0l0.3,0l0.6,0.1l2.5,0.4c0.7,0.1,1.4,0.2,2.1,0.3
					c0.4,1.3,0.5,1.6,0,0c2.6,0.4,5.3,0.7,7.9,1c1.7,0.2,3.3,0.3,5,0.5l1.3,0.1l0.6,0l0.3,0l1.4,0.1c3.7,0.1,7.7,0.2,12.2,0.1
					c5.2-0.1,10.9-0.3,17.5-0.6l0.8-0.4c1.5-0.1,2.9-0.2,4.3-0.3c0.8-0.1,1.6,0,2.2,0.2c0.7,0.3,1.2,0.7,1.4,1.1
					c0.3,0.4,0.3,0.9,0.2,1.1c-0.2,0.2-0.4,0.4-0.6,0.6c-0.4,0.4-0.9,0.9-1.5,1.3c-1.2,1-2.7,2-4.8,3.3c-2.1,1.2-4.7,2.5-7.7,3.9
					c-2.2,2.1-6.3,4.9-10.3,7.8c-3.9,2.8-8,5.9-8.9,7.9c-5,2.8-8.3,4.9-11.6,7.1c-1.6,1.1-3.3,2.2-5.1,3.4c-0.2,0.1-0.5,0.3-0.7,0.4
					c-0.1,0.1-0.1,0.1-0.2,0.2c-0.1,0.1-0.2,0.2-0.2,0.3c-0.1,0.1-0.2,0.2-0.3,0.3c-0.4,0.5-0.7,1.1-0.8,1.5
					c0.4-0.1,0.6,0.2,0.8,0.3l1.2,0.4c0.5,0.2,1.1,0.4,1.5,0.6c0.1,0,0,0,0.1,0c0,0,0.1,0,0.1-0.1c0,0,0.1-0.1,0.1-0.1
					c0.5,0.8,0.1,0.2,0,0c0,0,0,0,0,0c0,0,0.1,0.1,0.1,0.2l0,0l0,0l0.1,0c0.6-0.2,1.3-0.4,2.1-0.6l-0.4-0.3l10.2-4.5l5.1-2.3
					l2.5-1.1l1.3-0.6l0.6-0.3l0.9-0.4c11.1-5.3,33.2-10.8,45-16.6l2.2-1.1l1.1-0.5l1-0.6c0.6-0.4,1.4-0.7,1.9-1.1l1.5-1.1l0.7-0.5
					c0.2-0.2,0.4-0.4,0.6-0.5l1.1-1c0.8-0.7,1.3-1.3,1.9-2l0.8-1c0.3-0.3,0.4-0.6,0.7-0.9l1.2-1.7c0.7-1,1.2-2,1.8-3l0.7-1.3
					l0.3-0.6c0.1-0.2,0.2-0.4,0.2-0.8c0.1-0.8-0.1-1.9-0.4-2.9c-0.4-1-0.8-1.7-1.1-1.9c-0.6-0.6-1.2-1.1-1.9-1.7
					c-0.4-0.3-0.7-0.6-1.1-1l-1.4-1.1c-0.6-0.4-1.7-0.9-2.6-1.3l-1.4-0.7l-1.8-0.7l-1.9-0.7l-0.5-0.2l-0.2-0.1c-0.1,0-0.2,0-0.3-0.1
					l-1.4-0.2l-2.7-0.5l-1.4-0.2c-0.2,0-0.4-0.1-0.7-0.1l-0.9,0c-3.3,0-17.1-0.1-20.3-0.2c4.9-1.5,9.6-3,14-4.4
					c4.4-1.5,8-1.3,12-1.8c4.3-1.3,8.9-2.5,13.7-3.8c2.4-0.6,4.8-1.3,7.3-2l1.9-0.5l0.9-0.2c-0.1,0,1-0.3,1.8-0.6
					c0.4-0.2,0.8-0.3,1.2-0.5c0.4-0.2,0.8-0.4,1.2-0.7c0.4-0.2,0.8-0.5,1.2-0.8c0.4-0.3,0.8-0.6,1.1-0.9c0.7-0.6,1.4-1.4,1.9-2.1
					c1.1-1.6,1.8-3.3,2.1-4.9C194.6,110.5,193.9,107.3,191.7,104.5z M66,25.1c-1-0.1-0.7-0.4,0.2-0.7C66.4,24.7,66.3,25,66,25.1z
					 M73.7,23c-0.5,0-1,0-1.5,0c0.3-0.1,0.6-0.1,0.8-0.2c-0.9-0.5-3.8-0.7-5.4-0.8c-0.1,0.4,0.5,0.5,0.4,0.7c-0.5,0.1-1.3,0.1-2,0.1
					c-0.2,0-0.5,0-0.7,0l-0.4-0.1c-0.5,0-1.1,0-1.6,0c-0.4-0.1-0.7-0.2-0.9-0.4c0.4-0.1,1.2,0.1,1.8,0.2c-1.3-0.2,2.2-0.7,5.7-1.2
					c1.4,0.5,4.3,0.9,3.9,1.4c0,0,0.1,0,0.1,0c0.1,0,0.3,0,0.4,0c0.1,0,0.1,0,0.1,0l1.7,0.4C75.5,23.1,74.6,23,73.7,23z M89.3,192.7
					l-0.2-0.4l-0.1-0.1l0,0l0,0C89.1,192.4,89.2,192.6,89.3,192.7C89.3,192.7,89.3,192.7,89.3,192.7z M90.6,194.4L90.6,194.4
					C90.6,194.4,90.6,194.4,90.6,194.4C90.7,194.4,90.7,194.4,90.6,194.4z M93,127.6c1,0,1.9-0.1,2.8-0.1c-0.3,0.1-0.5,0.1-0.8,0.2
					C94.4,127.6,93.8,127.6,93,127.6z"/>
				<linearGradient id="SVGID_4_" gradientUnits="userSpaceOnUse" x1="73.3015" y1="22.7145" x2="73.3732" y2="22.8787">
					<stop  offset="1.582485e-02" style="stop-color:#07892F"/>
					<stop  offset="0.209" style="stop-color:#F2C000"/>
					<stop  offset="0.4441" style="stop-color:#EC7710"/>
					<stop  offset="0.6341" style="stop-color:#DB121A"/>
					<stop  offset="0.815" style="stop-color:#752C64"/>
					<stop  offset="0.9763" style="stop-color:#0E47AE"/>
				</linearGradient>
				<path class="st3" d="M73.7,22.7c-0.1,0-0.1,0-0.2,0c-0.2,0-0.3,0.1-0.5,0.1c0.1,0,0.1,0.1,0.2,0.1
					C73.5,22.9,73.6,22.8,73.7,22.7z"/>
			</g>
		</g>
		<g>
			
				<image style="overflow:visible;opacity:0.55;" width="142" height="132" xlink:href="5A5F88FF57306C17.png"  transform="matrix(1 0 0 1 34.695 51.3265)">
			</image>
			<g>
				<g>
					<g>
						<path class="st4" d="M85.9,66.2l0.3,0.1c0,0,0.3,0,0.5-0.1c0.2-0.1,0.4-0.2,0.5-0.2c0.1,0,0.2-0.3,0.2-0.3l0-0.3l0.4-0.2
							c0,0,0.3,0,0.4-0.1c0.1,0,0.5-0.3,0.5-0.3l0.4-0.3c0,0,0.3-0.2,0.4-0.1c0.1,0,0.2,0.4,0.2,0.4s0,0.2,0.3,0.2
							c0.3,0,1.1-0.2,1.1-0.2l0.4-0.2c0,0,0.9,0,0.9,0.1c0,0,0.3,0.3,0.3,0.3l0.5,0.3l0.8,0l0.4,0l0.1,0.4l0.2,0.4l0.6,0l1.2-0.3
							l0.1,0l0.2,0.4L97,66.2l-0.4,0.4c0,0-0.1,0-0.1,0.2c-0.1,0.2,0,0.3,0,0.3l0.5,0.1l0.5-0.3c0,0,0.3-0.2,0.5-0.3
							c0.2,0,0.5-0.1,0.9-0.1c0.4,0,0.8,0,1.1-0.1c0.3,0,0.7,0,0.8-0.2c0.1-0.2,0.2-0.3,0.4-0.4c0.2-0.1,0.4-0.3,0.4-0.3l-0.1-0.3
							l-0.8-0.1l-0.9,0c0,0-0.1-0.2-0.1-0.3c0-0.1-0.1-0.3-0.1-0.3l-0.7-0.1l-1,0.1l-0.8-0.3l-1-0.5c0,0-0.6-0.3-0.7-0.3
							c-0.1,0-0.5,0.1-0.5,0.1s-0.6,0-0.8,0c-0.1,0-0.8-0.2-1-0.2c-0.2-0.1-0.7-0.2-1-0.2c-0.3,0-1,0.1-1,0.1l-0.6-0.1l-1.1,0.1
							l-1,0.5l-0.9,0.3L87,64.6l-0.3,0.4c0,0,0,0.3,0.1,0.3c0,0-0.2,0.2-0.3,0.2c-0.1,0-0.6,0.2-0.6,0.2S85.8,66.1,85.9,66.2z"/>
						<g>
							<path class="st5" d="M85.9,66.4c0.4,0.1,0.6,0.1,1-0.1c0.2-0.1,0.3-0.1,0.4-0.3c0.1-0.1,0.1-0.3,0.1-0.3
								c0.3-0.3,0.9-0.4,1.3-0.6c0.2-0.1,0.5-0.4,0.7-0.4c0.4,0,0.2,0.4,0.4,0.6c0.2,0.2,0.9,0,1.2-0.1c0.2-0.1,0.4-0.2,0.6-0.3
								c0.2,0,0.7,0,0.9,0.1c0.3,0.1,0.4,0.4,0.7,0.5c0.3,0.1,0.5,0.1,0.8,0c0.1,0,0.2,0,0.3,0c0.3,0.1,0.1-0.1,0.2,0.2
								c0.2,0.2,0.1,0.5,0.4,0.6c0.2,0.1,0.5,0,0.7,0c0.3,0,0.7-0.2,0.9-0.2c0.2,0,0.3,0.2,0.4,0.4c0-0.2,0-0.3,0-0.5
								c-0.3,0.3-0.7,0.6-0.7,0.9c0,0.2,0,0.4,0,0.6c0,0,0,0,0,0c0.3,0.1,0.4,0.1,0.7,0c0.4-0.2,0.6-0.5,1-0.5
								c0.7-0.1,1.3-0.1,2-0.1c0.6-0.1,0.9-0.5,1.3-0.9c0,0,0-0.4,0-0.5c-0.1-0.3-0.1-0.3-0.5-0.4c-0.3,0-0.5-0.1-0.8-0.1
								c-0.4,0-0.5,0.1-0.7-0.2c0-0.1,0-0.3-0.1-0.4c-0.1-0.1-0.5-0.1-0.6-0.1c-0.5,0-1,0.1-1.5-0.1c-0.5-0.2-1-0.4-1.5-0.7
								c-0.3-0.1-0.6-0.3-0.9-0.2c-0.3,0-0.7,0.1-1,0.1c-0.9-0.1-1.6-0.4-2.5-0.3c-0.6,0.1-1.1,0-1.7,0c-0.6,0.1-1,0.3-1.6,0.5
								c-0.3,0.1-0.6,0.1-0.9,0.3c-0.2,0.1-0.3,0.4-0.4,0.6c-0.3,0.4-0.3,0.7-0.2,1.2c0-0.2,0-0.3,0-0.5c-0.3,0.4-0.8,0.2-0.9,0.7
								C85.8,66,85.8,66.3,85.9,66.4c-0.1-0.1,0.1-0.4,0-0.5c0,0,0,0-0.1-0.1C85.9,66,85.9,66.2,85.9,66.4c0-0.6,0.7-0.4,0.9-0.8
								c0.1-0.2,0-0.6-0.1-0.8c0,0.2,0,0.3,0,0.5c0.2-0.4,0.5-0.8,0.9-1c0.5-0.2,1-0.4,1.5-0.6c0.4-0.1,0.9-0.2,1.3-0.2
								c0.6,0,1.2-0.1,1.8,0c0.8,0,1.5,0.4,2.3,0.4c0.2,0,0.5-0.1,0.8-0.1c0.2,0,0.5,0.2,0.7,0.3c0.5,0.2,0.9,0.5,1.4,0.6
								c0.5,0.2,0.9,0,1.4,0c0.1,0,0.5,0,0.6,0.1c0.1,0.1,0.1,0.1,0.2,0.3c0.2,0.4,0.2,0.3,0.6,0.3c0.3,0,0.5,0,0.7,0.1
								c0.4,0.1,0.5,0,0.6,0.4c0-0.2,0-0.3,0-0.5c-0.4,0.3-0.7,0.8-1.2,0.9c-0.7,0.1-1.4,0.1-2.1,0.1c-0.4,0-0.6,0.3-1,0.5
								c-0.2,0.1-0.7,0.3-0.8-0.1c0,0.2,0,0.3,0,0.5c0.1-0.4,0.4-0.6,0.7-0.9c0,0,0-0.5,0-0.5c-0.1-0.2-0.2-0.4-0.4-0.4
								c-0.3,0-0.7,0.1-0.9,0.2c-0.2,0-0.5,0.1-0.7,0c-0.3-0.1-0.2-0.3-0.4-0.6c-0.2-0.2,0.1-0.1-0.2-0.2c-0.1,0-0.2,0-0.3,0
								c-0.3,0-0.5,0-0.8,0c-0.3-0.1-0.5-0.4-0.7-0.5c-0.2-0.1-0.7-0.1-0.9-0.1c-0.2,0-0.4,0.2-0.6,0.3c-0.3,0.1-0.9,0.3-1.2,0.1
								c-0.3-0.2-0.1-0.5-0.4-0.6c-0.2,0-0.5,0.3-0.7,0.4c-0.4,0.3-1.1,0.3-1.3,0.6c-0.1,0.1-0.1,0.3-0.1,0.3
								c-0.1,0.2-0.2,0.2-0.4,0.3c-0.4,0.2-0.6,0.2-1,0.1C86,65.9,85.9,66.4,85.9,66.4z"/>
						</g>
					</g>
					<g>
						<path class="st4" d="M102.3,68.7c0,0,1-0.1,1.1-0.1c0.1,0,0.4-0.1,0.7-0.2c0.3-0.1,1.2-0.1,1.2-0.1l0.1,0.2
							c0,0,0.3,0.3,0.4,0.3c0.1,0,0.4,0,0.6-0.2c0.2-0.2,0.5-0.5,0.5-0.5l0.3-0.4c0,0,0.5-0.1,0.7-0.1c0.1,0,0.5-0.4,0.5-0.4
							s0.1-0.1,0.5-0.2c0.4-0.1,0.8,0.1,0.8,0.1c0.1,0,0.2-0.1,0.2-0.2c0,0,0-0.1,0-0.2c0-0.1-0.3-0.6-0.5-0.6
							c-0.2,0-0.5-0.1-0.8-0.1c-0.3,0-0.5,0.1-0.4-0.1c0.1-0.2,0.2-0.4,0.2-0.4c0-0.1-0.2-0.4-0.2-0.4s-0.4,0-0.7,0.1
							c-0.3,0-0.8,0.1-0.8,0.1l-1.2,0c0,0-0.2,0-0.5,0c-0.3,0.1-1,0.6-1,0.6l-0.4,0l-0.4-0.1l-0.7,0l-0.5,0.3c0,0-0.2,0.2-0.1,0.4
							c0,0.2,0.1,0.3,0.1,0.4c-0.1,0.1-0.4,0.2-0.4,0.2s-0.1,0.1,0,0.2c0.1,0.1,0,0.2,0.3,0.3c0.3,0.1,0.6,0,0.6,0l0.3-0.1
							c0,0,0.4-0.3,0.7-0.3c0.3,0,0.1,0,0.5,0c0.4,0,0.4-0.2,0.5,0.1c0.1,0.3,0,0.4,0,0.4l-0.3,0.1c0,0-0.2,0.1-0.4,0.1
							c-0.3,0-0.6,0.1-0.6,0.1l-0.3,0l-0.4,0c0,0,0,0-0.3-0.1c-0.2-0.1-0.4-0.1-0.4-0.1l-0.4,0.1c-0.1,0.1-0.1,0.2-0.1,0.2l0,0.2
							L102.3,68.7z"/>
						<g>
							<path class="st5" d="M102.3,69c0.3,0,0.6-0.1,1-0.1c0.4-0.1,0.8-0.2,1.2-0.3c0.2,0,0.5-0.1,0.7-0.1c0.2,0,0.1,0.1,0.2,0.2
								c0.3,0.4,0.7,0.4,1.1,0.1c0.2-0.1,0.3-0.3,0.5-0.4c0.1-0.1,0.2-0.3,0.3-0.3c0.3-0.2,0.7-0.1,0.9-0.3c0.3-0.2,0.6-0.4,1-0.4
								c0.2,0,0.5,0.1,0.7,0.1c0.2-0.1,0.2-0.3,0.2-0.4c0-0.3,0-0.6-0.2-0.9c-0.2-0.2-0.4-0.2-0.6-0.2c-0.1,0-0.7,0-0.7,0
								c0,0.2,0,0.3,0,0.5c0.1-0.2,0.2-0.4,0.2-0.6c0-0.1,0-0.2,0-0.3c0-0.1,0-0.2,0-0.3c-0.1-0.2-0.1-0.2-0.3-0.2
								c-0.7,0.1-1.4,0.1-2.1,0.1c-0.3,0-0.6-0.1-0.8,0c-0.4,0.1-0.7,0.4-1,0.5c-0.2,0.1-0.5,0-0.8-0.1c-0.2,0-0.5,0-0.8,0
								c-0.8,0.2-0.7,0.9-0.6,1.5c0-0.2,0-0.3,0-0.5c-0.1,0.2-0.4,0.2-0.5,0.3c-0.1,0.1,0,0.3,0,0.4c0,0.1,0,0.3,0.1,0.4
								c0.2,0.2,0.6,0.2,0.8,0.1c0.4-0.1,0.6-0.4,1-0.4c0.2,0,0.4,0.1,0.7,0c0,0,0.2-0.1,0.3-0.1c0.1,0,0.1,0.3,0.1,0.4
								c0-0.1,0-0.2,0-0.3c0,0,0,0,0,0.1c0-0.1,0-0.1,0-0.2c0,0.3-1,0.4-1.1,0.4c-0.3,0.1-0.6,0.1-0.9,0.1c-0.3,0-0.7-0.2-1.1,0
								c-0.2,0.1-0.1,0.6-0.1,0.8c0,0,0,0.1,0,0.1C101.8,68.9,102,68.9,102.3,69c0,0,0-0.5,0-0.5c-0.2,0-0.4-0.1-0.5-0.1
								c-0.1,0-0.2,0-0.2,0c0,0,0,0,0,0c0,0,0-0.1,0-0.1c0,0,0-0.1,0-0.1c0,0.1,0,0.3,0,0.4c0.2-0.4,0.7-0.2,1-0.2
								c0.2,0,0.4,0,0.7,0c0.4-0.1,0.8-0.1,1.2-0.3c0.2-0.1,0.3-0.1,0.4-0.3c0-0.2,0.1-0.7-0.1-0.8c0,0-0.2,0.1-0.2,0.1
								c-0.1,0-0.2,0-0.4,0c-0.2,0-0.3,0-0.5,0c-0.3,0.1-0.5,0.3-0.8,0.4c-0.2,0-0.4,0-0.5,0c-0.3-0.1-0.4-0.1-0.4-0.4
								c0,0.2,0,0.3,0,0.5c0-0.3,0.4-0.2,0.5-0.5c0-0.3-0.1-0.5-0.1-0.8c0,0.2,0,0.3,0,0.5c0.1-0.6,0.8-0.7,1.3-0.7
								c0.3,0,0.5,0.2,0.8,0.1c0.3-0.1,0.6-0.3,0.8-0.5c0.5-0.3,1.2-0.1,1.8-0.1c0.3,0,0.6,0,0.9-0.1c0.2,0,0.5-0.1,0.7-0.1
								c0.1,0,0.2,0.3,0.2,0.3c0-0.2,0-0.3,0-0.5c0,0.2-0.2,0.4-0.2,0.7c0,0.1,0,0.4,0,0.5c0.1,0,0.4,0,0.5,0c0.2,0,0.4,0,0.6,0.1
								c0.2,0.1,0.5,0.3,0.5,0.6c0-0.2,0-0.3,0-0.5c0,0.2-0.1,0.4-0.3,0.4c-0.1,0-0.2,0-0.3-0.1c-0.2,0-0.4,0-0.5,0
								c-0.4,0.1-0.6,0.2-0.9,0.4c-0.3,0.2-0.7,0.1-0.9,0.3c-0.1,0.1-0.2,0.2-0.3,0.3c-0.1,0.2-0.3,0.3-0.5,0.4
								c-0.4,0.3-0.8,0.2-1-0.1c-0.1-0.1-0.1-0.2-0.2-0.2c-0.2,0-0.5,0-0.7,0.1c-0.4,0-0.8,0.2-1.2,0.3c-0.3,0-0.6,0.1-1,0.1
								C102.3,68.5,102.3,69,102.3,69z"/>
						</g>
					</g>
					<g>
						<path class="st4" d="M166.9,96.9c-0.2-0.4-0.3-0.7-0.2-0.9c0.1-0.2,0.2-0.3,0.1-0.6c-0.1-0.2-0.6-0.7-0.6-0.7l-0.4-0.8
							l-0.4-0.4l-0.7-0.3l-1.1,0.1c0,0-0.5,0.2-0.6,0.1c-0.2,0-0.8-0.3-0.8-0.3s-0.6-0.5-1-0.9c-0.4-0.5-1.1-0.9-1.1-0.9l-0.3,0.1
							l-0.7-0.2l-0.4-0.1l-2.3,0.5l-0.8,0l-0.8,0.1l-1.4-0.3l-0.8,0.5l-0.1,0.3l-0.5,0.1l-0.2,0.3l-0.2,0.4c0,0-0.6,0-0.6-0.1
							c0-0.1-0.3-0.4-0.2-0.6c0.1-0.1,0.6-0.4,0.6-0.4l0.2-0.3c0,0-0.2-0.4-0.3-0.6c-0.1-0.2-0.6-0.9-0.6-0.9l-0.5,0.1l-0.2,0.3
							c0,0-0.4-0.1-0.5-0.3c0-0.1-0.3-0.3-0.3-0.3l-1.3,0l-1.5,0l-0.6,0.2c0,0-0.2,0.3-0.2,0.4c0,0.1-0.8,0.8-0.8,0.8l-0.2,0.4
							l-0.5,0.3l-1.9,0.6l-1.6-0.1l-0.3-0.2l-0.8,0.1l0.3-0.8l0.4-0.6l0.2-0.8c0,0,0-0.4,0.3-0.7c0.2-0.2,0.6-0.6,0.6-0.6l0.9-0.7
							c0,0,0,0,0-0.2c0-0.2,0.1-0.5,0.1-0.6c0.1-0.1,0.1-0.6,0.1-0.6l-0.9-0.5l-0.6-0.7c0,0-0.3-0.8-0.4-0.9
							c-0.1-0.2-0.9-1.1-0.9-1.1l0-0.4l-0.2,0l-0.6,0l-0.4-0.3l-0.8-0.8l-0.9-0.1c0,0-0.4,0.2-0.8,0c-0.2-0.1-0.4-0.1-0.6-0.2
							c-0.3-0.1-0.5-0.1-0.6-0.1c-0.2,0-0.8,0.1-0.8,0.1l-0.7,0.3l-1.4,0.2l-0.4-0.3l-0.3,0c0,0-0.2,0.1-0.4-0.1
							c0,0-0.1-0.1-0.1-0.1c-0.2-0.3-0.8-0.6-0.8-0.6l-0.7,0c0,0-0.4,0-0.5-0.2c-0.1-0.1-0.4-0.7-0.5-1c-0.1-0.3-0.3-0.5-0.5-0.7
							c-0.2-0.2-0.8-0.5-1-0.4c-0.1,0-0.4,0.1-0.5,0.2c-0.1,0.1-0.2,0.1-0.2,0.1l-0.7,0.1l-0.4-0.5l0.1-0.6l-1-0.6l-0.8-0.3
							l-0.8,0.2l-0.5,0l-0.6-0.5c0,0,0-0.1,0.2-0.2c0.1-0.1,0.2-0.1,0.3-0.2c0.1-0.1,0.2-0.2,0.2-0.2l-0.5-0.3c0,0-0.4,0-0.6,0.1
							c-0.3,0.1-0.8,0.2-0.8,0.2l-0.5,0.4l-0.9,0.1c0,0-0.1,0-0.1,0.1c0,0.1-0.2,0.3-0.3,0.4c-0.1,0.1-0.4,0.3-0.4,0.3l-0.8,0.1
							c0,0-0.5-0.3-0.6-0.4c-0.1-0.1-0.3-0.1-0.3-0.1l-1.3,0.2l-0.4,0.3l-0.7,0.2c0,0-0.3,0.3-0.4,0c-0.2-0.3-0.3-0.7-0.3-0.7
							l-0.5-0.4l-1.1,0.1l-0.5-0.3c0,0-0.2-0.3-0.2-0.4c-0.1-0.1-0.5-0.2-0.5-0.2s-0.3,0.1-0.3,0.2c0,0.1,0,0.4,0.1,0.6
							c0,0.2-0.2,0.6-0.2,0.6l-0.6,0.4l0,0.3c0,0,0,0.6,0,0.7c0,0.1,0,0.4,0.3,0.5c0.2,0.2,0.4,0.3,0.4,0.3s0.1,0,0.1,0.3
							c0,0.2-0.1,0.3-0.1,0.4c0,0.1-0.5,0.5-0.6,0.4c-0.1,0-0.8-0.3-0.8-0.3l-0.2-0.7c0,0,0.1-0.3,0.2-0.4c0.1-0.1-0.1-0.8-0.1-0.9
							c0-0.1-0.4-0.4-0.4-0.4s-0.3-0.3,0.1-0.6c0.2-0.1,0.4-0.2,0.5-0.3c0.1,0,0.1-0.1,0.2-0.1c0.1-0.1,0.2-0.3,0.2-0.3l-0.1-0.3
							l-0.8-0.5l-0.6,0.4l-0.3,0.3l-0.1,0.4l-0.2,0.5c0,0-0.3,0.4-0.7,0.7c-0.4,0.3-0.8,0.5-0.8,0.5s-0.3,0-0.5,0.1
							c-0.1,0-0.3,0.2-0.3,0.2l-0.2,0.2l-0.4-0.2l0-0.2l-0.4,0.1l-0.2,0.3l-0.2,0.6l-0.2,0.7l0.3,0.8l-0.2,0.3l-0.5,0.3l0,0.5
							l-0.2,0.4l-0.3,0.2l0,0.3c0,0,0.2,0.4,0.2,0.5c0,0.1-0.1,0.3-0.1,0.3l-0.3,0l-0.3-0.4c0,0,0-0.2-0.1-0.4
							c0-0.1-0.1-0.1-0.2-0.2c-0.1-0.1-0.3-0.2-0.5-0.3c-0.3-0.2-0.6-0.5-0.8-0.6c-0.2-0.1-0.5-0.1-0.5-0.1l-1,0.2l-0.6,0.1
							l-0.3,0.3c0,0-0.4,0.3-0.9,0.5c-0.4,0.3-0.7,0.5-0.9,0.5c-0.2,0-1,0.2-1,0.2l-0.9,0.1c0,0,0.1-0.2-0.2-0.6
							c-0.1-0.1-0.2-0.2-0.3-0.3c-0.2-0.1-0.3-0.2-0.5-0.3c-0.2-0.2-0.7-0.2-1.1-0.4c-0.4-0.2-0.6-0.2-0.7-0.5
							c-0.1-0.1-0.1-0.3-0.2-0.5c0-0.1-0.1-0.2-0.1-0.2l0.3-0.5c0,0,0.1-0.3-0.1-0.6c-0.2-0.3-0.9-0.9-0.9-0.9l0.2-0.1
							c0,0,0.4,0,0.5-0.1c0.1-0.1,0.1,0,0.2-0.2c0-0.2-0.1-0.5-0.1-0.5l-0.3-0.4L90.2,78c0,0-0.3-0.4,0-0.7c0.3-0.3,0.4-0.5,0.4-0.5
							l-0.1-0.7l-0.4-0.7L90,75.2l-0.6,0L89,74.9l-0.7-0.2l-0.8,0.1l-0.6,0.2l-0.7-0.1L85.7,75l-0.9,0.2l-1.3,0.3l-0.2-0.1l-0.1-0.1
							l-0.5,0.4L82,75.9l-0.4-0.2c0,0,0-0.1,0.1-0.2c0.1-0.1,0.1-0.2,0.2-0.3c0.2-0.2,0.4-0.4,0.4-0.4l-0.1-0.9l-0.4-1.4l0-0.7
							c0,0,0-0.1,0-0.2c0-0.1,0.1-0.1,0.1-0.1c0.1,0,0.4,0,0.4,0l0.4-0.1l0.2-0.4l0.1-0.8l-0.5-0.3c0,0-0.1,0.1-0.1-0.1
							c0.1-0.2,0.2-0.3,0.2-0.3s0-0.2-0.1-0.6c-0.1-0.3-0.3-0.3,0-0.6c0.3-0.3,0.4-0.4,0.4-0.4L82.8,67c0,0-0.3-0.2-0.7-0.1
							c-0.4,0.1-1.4,0.4-1.4,0.4L80,67.8l-1.2,0.4c0,0-0.3,0.1-0.2,0.2c0,0.1,0,0.3,0.1,0.3c0,0.1,0.1,0.3,0.1,0.3l-0.2,1.2l0.1,0.5
							l-0.1,0.4l-0.4,0.2L78,71.7l0.2,0.5l0,0.3c0,0-0.1,0.1-0.5,0.3c-0.4,0.2-0.8,0.4-0.8,0.4L76.8,73l-0.3-0.2l-0.6,0.1L75.5,73
							l-1.4,0.6c0,0-0.2,0.2-0.5,0.1c-0.3,0-0.4-0.1-0.4-0.1l-0.2,0L72,73.6l-1-0.3c0,0-0.2-0.1-0.4-0.3c-0.3-0.3-0.7-0.5-0.7-0.8
							c-0.1-0.3,0.2-0.3-0.1-0.6c-0.3-0.3-0.7-0.4-0.8-0.4c-0.1,0-0.4-0.1-0.4-0.1s0.1-0.4,0.2-0.6c0.1-0.2,0.2-0.4,0.2-0.4
							l-0.1-0.4L68.5,69l-0.4-0.6c0,0-0.6-0.9-0.5-1.1c0-0.2,0.2-0.6,0.2-0.7c0-0.1-0.5-0.6-0.5-0.6L67,65.3l0-0.6l0.4,0.1
							c0,0,0.4,0.1,0.5,0c0.1-0.1,0.1-0.3,0.1-0.3s0.2-0.3,0.2-0.5c0-0.1,0-0.1-0.1-0.2l0,0l-0.8-0.4L66,63.2L65.2,62l-2.5-2.7
							l-0.7-0.6l-1.3,0.1l-0.6,0.3l-0.4,0.6l-0.5,0.5l-0.5,0.2l-0.8-0.1l-0.6-0.6l-0.8-1l-2-1.3l-1.8,0.4l-0.4,0.5l-3.5,0.5L44,58.3
							l-0.2-0.3L41,58.6c0,0.1,0,0.1,0,0.2c0.1,0.3,0.2,0.9,0.2,0.9l0.4,1c0,0,0.4,1.5,0.8,1.7c0.3,0.2,0.9,0.3,1,0.4
							c0.1,0.1,1,0.4,1.2,0.7c0.2,0.3,0.4,0.5,0.5,0.6c0.1,0.1,0.1,0.8,0.1,0.8s0.1,0-0.1,0c-0.3,0-0.6,0-0.6,0L43.7,65
							c0,0-0.3,0.1-0.1,0.3c0.2,0.2,0.4,0.4,0.5,0.4c0.2,0,0.7,0.3,0.7,0.3s0.5,0.3,0.7,0.3c0.2,0,0.5-0.1,0.5-0.1s0-0.2,0.3-0.1
							c0.3,0.1,0.3,0.1,0.5,0.2c0.3,0.1,0.6,0.2,0.7,0.3c0.1,0.1,0.4,0.2,0.4,0.4c0.1,0.3,0.2,0.7,0.2,0.7s-0.3-0.1-0.1,0.6
							c0.1,0.7,0.1,0.7,0.7,0.9c0.7,0.2,1.8,1.2,2,1.3c0.2,0.1,0.4,0.5,0.6,0.3c0.2-0.2,0.5-0.7,0.5-0.7s-0.6-0.6-0.7-0.6
							c-0.1-0.1-1.1-0.6-1.1-0.6s-0.3,0-0.3-0.2c-0.1-0.3-0.1-0.5-0.1-0.5s-0.1-0.2-0.2-0.4c-0.1-0.2-0.3-0.5-0.3-0.5
							s-0.1-0.3-0.2-0.8c-0.1-0.5-0.4-0.9-0.4-0.9l-0.8-0.3c0,0-0.2-0.1-0.6-0.6c-0.3-0.5-0.5-0.5-0.6-0.8c-0.1-0.2-0.1-0.5-0.3-0.7
							c-0.2-0.2-0.2-0.2-0.7-0.6c-0.5-0.4-0.7-0.6-1-0.9c-0.3-0.3-0.5,0-0.6-0.6c-0.1-0.6-0.1-0.5-0.2-1c-0.1-0.4,0.1-1.2,0.1-1.2
							s0.3,0.2,0.5,0.3c0.2,0,0.8,0,0.8-0.1c0.1,0,0.4,0,0.5,0.3c0.1,0.2,0.2,0.6,0.2,0.6s-0.5-0.3,0,0.4c0.6,0.7,1,1.2,1,1.2
							s0.8,1.3,1.1,1.5c0.4,0.2,0.4,0.2,0.9,0.5c0.5,0.3,1,0.1,0.6,0.4c-0.3,0.3-0.3,0.1-0.3,0.3c0,0.2,0.2,0.5,0.4,0.5
							c0.2,0,0.4,0,0.7,0.1c0.3,0,0.2-0.1,0.3,0c0.1,0.1-0.1,0.3,0.4,0.3c0.5,0,0.5,0,0.5,0c0.1,0.3,0.2,0.2,0,0.4
							c-0.1,0.2-0.4,0.5-0.5,0.6c0,0.1,0.1,0.6,0.1,0.6s0.2,0.1,0.5,0c0.3-0.1,0.8-0.2,1-0.1c0.2,0.1,0.7,0.6,0.7,0.6
							c0,0.1,0.3,0.6,0.5,0.7c0.2,0.1,0.6,0.3,0.6,0.3c0,0.1,0.5,0.6,0.6,0.8c0.1,0.1,0.7,0.7,0.8,0.8c0.2,0.1,1.3,0.6,1.4,0.7
							c0.1,0.1,0.2,0.6,0.2,0.9c-0.1,0.3-0.1,0.9-0.2,1c-0.1,0.1-0.3,0.7-0.3,0.7s0.2,0.7,0.3,0.7c0,0.1,0.2,0.5,0.3,0.6
							c0.2,0.1,1.8,0.9,1.8,0.9s0.6-0.1,0.8,0c0.1,0.1,0.6,0.5,0.6,0.5l1.1,0.2l0.8,0l1.4,0.4c0,0,1.6,0.2,1.6,0.2
							c0,0.1-0.1,0.4,1.1,0.6c1.2,0.2,2.3,0.3,2.5,0.4c0.2,0.1-0.4,0.5,0.7,0.3c1.1-0.2,1.4,0,1.9-0.3c0.5-0.2,0.8-0.2,1-0.5
							c0.3-0.3,0.5-0.5,0.7-0.6c0.1-0.1,1.9,0.1,1.9,0.1l1.3,0.8c0,0,0.1,0.2,0.2,0.4c0.1,0.2,0.3,0.5,0.4,0.6
							c0.2,0.2,0.3,0.4,0.9,0.7c0.6,0.3,1.1,0.4,1.3,0.3c0.2-0.1,0.4-0.3,0.7-0.2c0,0,0,0,0.1,0c0.3,0,0.9,0.2,0.9,0.2L82,80
							l1.5-0.1c0,0,0.2-0.1,0.6-0.3c0.1,0,0.2-0.1,0.3-0.1c0.3-0.1,0.5-0.1,0.6,0c0,0.1,0.1,0.3,0.2,0.4c0,0.1,0.1,0.2,0.1,0.2
							c0,0.1,0.3,0.8,0.3,0.8l0.6,0.4c0,0,0.4,0.3,0.8,0.8c0.2,0.2,0.4,0.4,0.5,0.6c0.1,0.2,0.2,0.3,0.2,0.3l0,0.5
							c0,0-0.2,0.2,0.1,0.4c0.4,0.2,0.8,0.4,0.8,0.4l0.4-0.1c0,0,0.2-0.4,0.2-0.4c0.1,0,0.5,0,0.5,0s0.2,0.3,0.3,0.4
							c0,0.1,0.5,0.3,0.5,0.3l0.6,0.3l0.2,0.7l0.2,0.2c0,0,0.2-0.1,0.3-0.2c0-0.1,0.1-0.2,0.1-0.1c0.1,0.1,0.3,0.2,0.3,0.3
							c0.1,0.1-0.2,0.4,0.2,0.4c0.1,0,0.3,0,0.4-0.1c0.3-0.1,0.5-0.1,0.7-0.1c0.3-0.1,1.4-0.1,1.4-0.1s0,0.1,0.2,0.2
							c0.2,0.1,0.6,0,0.6,0l0.4,0.4c0,0,0.7,0.3,0.8,0.2c0.1-0.1,0.2-0.2,0.2-0.3c0-0.1,0-0.3-0.2-0.5c-0.2-0.2-0.4-0.3-0.3-0.5
							c0.1-0.2,0.2-0.2,0.4-0.3c0.2-0.1,0.4-0.1,0.4-0.2c0-0.1-0.1-0.4-0.1-0.4s-0.2-0.1,0-0.3c0.2-0.2,0.6-0.4,0.7-0.4
							c0.2-0.1,0.6,0.1,0.8,0.1c0.1,0,0.3,0.1,0.4,0.2c0.1,0.1,0.3,0.2,0.3,0.3c0.1,0.1,0,0.4,0,0.4s0,0.4,0.1,0.5
							c0.1,0.1,0.4,0.5,0.5,0.8c0.1,0.1,0.1,0.2,0.1,0.2s0.1-0.1,0.2,0.2c0.1,0.3,0.1,0.5,0.2,0.4c0.1,0,0.3,0,0.4,0.1
							c0.1,0.1,0.5,0.6,0.5,0.8c0,0.1,0.2,1.1,0.2,1.2c0,0.1,0.2,0.5,0,0.8c-0.1,0.3-0.2,0.5-0.2,0.6c0,0.1,0.4,0.5,0.4,0.5l0.4,0.2
							l-0.3,0.4c0,0-0.4,0-0.5,0.4c0,0.4,0,0.6-0.1,0.7c-0.1,0.1-0.6,0.3-0.6,0.3s-0.4,0-0.6,0.3c-0.2,0.3-0.3,0.3-0.2,0.6
							c0.1,0.2,0.4,0.4,0.4,0.4s0.3,0.2,0.2,0.3c-0.1,0.1-0.2,0.3-0.3,0.4c-0.1,0.1-0.3,0-0.2,0.3c0,0.2,0.1,0.4,0.2,0.5
							c0.1,0.1,0,0.5-0.1,0.6c-0.1,0.1-0.4,0.4-0.4,0.4s-0.2,0.1-0.3,0c-0.1-0.1-0.3-0.1-0.3-0.1s-0.3,0-0.4,0.2
							c-0.1,0.2-0.1,0.3-0.2,0.6c0,0.2,0,0.7,0,0.7L99,98.6l-0.4,0.7l0.3,1.5c0,0-0.2,0.1-0.1,0.5c0.1,0.4,0.2,0.4,0.2,0.4l0.5-0.1
							c0,0,0.3-0.3,0.5-0.3c0.1-0.1,0.4-0.2,0.5-0.1c0.1,0.1,0.3,0.6,0.3,0.6s-0.4,0.4-0.7,0.6c0,0,0,0,0,0c-0.3,0.2-1,0.7-1.1,0.9
							c-0.1,0.2-0.6,0.4-0.5,1c0.1,0.5,0.3,0.9,0.4,0.9c0.1,0,0.2,0,0.4,0.2c0.1,0.1,0.4,0.4,0.4,0.5c0.1,0.1,0.2,0.4,0.1,0.5
							c-0.1,0-0.4,0.1-0.4,0.3c-0.1,0.2-0.2,0.1-0.1,0.3c0.1,0.2,1.1,0.5,1.1,0.5l0.7,0.2l0.9,0.7c0,0,0.6,0.8,0.7,1
							c0.1,0.2,0.4,0.3,0.5,0.3c0.1,0.1,0.7,0.6,0.7,0.7c0,0.1,1.5,2.8,1.5,2.8s0.3,0.9,0.4,1c0.1,0.1,0.6,0.5,0.7,0.5
							c0.1,0.1,0.4,0.5,0.4,0.7s-0.1,0.5,0.1,0.5c0.2,0.1,1,0.6,1,0.6s0.5,0.5,0.5,0.7c0,0.2-0.1,0.3-0.2,0.4
							c-0.1,0.1-0.2,0.5-0.2,0.5s0.5,0.4,0.5,0.5c0,0.1,1.6,1.2,1.6,1.2l1.4,0.6l1.7,0.3l1.7,0.9l1.1,0.8l1.3,0.7c0,0,0,0.1,0,0.1
							c0,0.2,0.1,0.6,0.2,0.9c0.1,0.4,0.2,0.8,0.2,0.8l0.3,1l-0.1,1.4c0,0,0.2,0.9,0.2,1.2c0,0.2,0.1,0.8,0,1
							c-0.1,0.2-0.3,0.6-0.2,0.9c0.1,0.3,0.3,0.4,0.3,0.5c0,0.1,0.1,0.9,0.1,0.9l-0.2,0.8l0.3,0.9l0,0.5l-0.3,0.5l0.2,0.9l0,1
							l-0.6,0.6l0,0.6l-0.2,2c0,0,0.3,0.2,0.3,0.4c0,0.3-0.2,0.9-0.2,0.9l-0.4,0.5c0,0,0,0.4,0.2,1.3c0.2,0.9,0.6,2,0.6,2
							s0.3,0.4,0.1,0.9c-0.2,0.5-0.4,1.1-0.4,1.1s-1.3,2.4-1.2,2.5c0,0.1,0.1,0.4,0.1,0.5c0,0.1-0.5,0.9-0.5,0.9s0.1,0.5,0,0.6
							c-0.1,0.1-0.4,0.2-0.5,0.4c-0.1,0.1,0,0.3,0,0.8c0,0.5,0.1,0.9,0.2,1.3c0.1,0.4,0.5,0.7,0.5,0.9c0,0.1-0.2,0.9-0.2,0.9
							l-0.5,1.4c0,0,0.3,0.7,0.4,0.8c0.1,0,0.7,0.1,0.7,0.1l0.6,0.4l-0.1,1l-0.3,1.3l0,1.1l0.2,0.2c0,0-0.3,0.3-0.4,0.4
							c0,0.1-0.1,0.3-0.1,0.3l0.1,0.5l-0.3,0.6l0.1,0.9l-0.1,0.2c0,0-0.5,0.1-0.6-0.2c-0.1-0.3-0.4-0.7-0.4-0.7l-0.6,0.2L115,164
							c0,0-0.4,0.4-0.4,0.5c0,0.1,0.1,0.3,0.2,0.2c0.2-0.1,0.5-0.3,0.5-0.3s0.3,0,0.5,0.2c0.2,0.1,0.6,0.3,0.6,0.3l-0.6,0.8l0.1,0.8
							c0,0-0.4,0.7-0.4,0.8c0,0.2-0.3,0.4-0.3,0.4l-0.2,0.2l0,0.7l0.3,0.1l0.5-0.1l0.4,0l-0.3,0.7l0.2,0.4c0,0,0.2-0.1,0.4-0.3
							c0.3-0.2,0.4-0.4,0.4-0.1c0,0.4-0.4,0.9-0.4,1c0,0.1,0.2,0.7,0.2,0.7s0.4,0.3,0.6,0.1c0.3-0.2,0.5-0.3,0.5-0.3s0.4,0,0.3,0.2
							c-0.1,0.2-1.2,0.9-1.1,1c0,0.1,0.3,0.5,0.3,0.5l0.9,0.2l0.3,0.4c0,0-0.3,0.3,0,0.5c0.3,0.2,1.1,0.4,1.2,0.4
							c0.1,0,1.4,0.1,1.4,0.1s0.6-0.2,1.1-0.3c0.2-0.1,0.4-0.1,0.5-0.1c0.4,0,1.6-0.1,1.8-0.2c0.2-0.1,0.4-0.2,0.4-0.3
							c0-0.1-0.3-0.3-0.5-0.3c-0.2,0-1.2-0.1-1.2-0.1s-0.8-0.4-0.8-0.6c0-0.2,0-0.1,0-0.4c0-0.2-0.4-0.4-0.6-0.5
							c-0.1,0-0.2-0.1-0.2-0.1s-0.7,0.2-0.5-0.1c0.1-0.1,0.1-0.2,0.1-0.2c0-0.1,0-0.1,0.3-0.3c0.3-0.2,0.5-0.1,0.4-0.4
							c-0.1-0.3-0.3-0.4-0.4-0.6c-0.1-0.2-0.2-0.2-0.2-0.3c0-0.1,0.5-0.5,0.7-0.8c0.2-0.3,0-0.1,0.5-0.6c0.5-0.5,0.4-1.3,0.4-1.3
							s0.2-0.2,0.7-0.6c0.5-0.4,0.5,0.2,1.3-1c0.9-1.1,0.9-1.3,0.9-1.3l-0.9-0.3l-1.3-1.1c0,0-0.2-0.4,0-0.7
							c0.2-0.3,0.5-0.7,0.5-0.7l1.5-0.7l0.7-1.1l0-0.9l0.4-0.9c0,0,0.2-0.4,0.6-0.5c0.4-0.1,0.4,0,0.5-0.2c0.1-0.2,0.1-0.8,0.1-0.8
							s-0.2-0.1-0.4-0.1c-0.1,0-0.1,0-0.3,0.2c-0.2,0.2-0.5,0.3-0.5,0.3s-0.4-0.2-0.4-0.3c0-0.1,0.1-0.3,0.2-0.4
							c0-0.1,0.1-0.1,0-0.4c-0.1-0.3-0.1-1-0.1-1l0.8,0c0,0,0.3,0.1,0.5,0.1c0.1,0,1-0.1,1-0.1s0.3-0.3,0.4-0.4
							c0.1-0.1,0.3-0.4,0.4-0.6c0.1-0.2,0.2-0.3,0.3-0.6c0.2-0.3,0.5-0.6,0.4-0.8c-0.1-0.2-0.5-0.7-0.5-0.7l0.2-0.3l0.2-0.1l1-0.1
							c0,0,1.5-0.5,1.9-0.7c0.4-0.3,1.3-0.4,1.6-0.6c0.3-0.3,0.5-0.4,0.8-0.8c0.2-0.4,0.2-0.7,0.4-0.9c0.3-0.3,0.3-0.2,0.5-0.4
							c0.2-0.2,0.4-0.6,0.4-0.6s0.1-0.2,0-0.3c-0.1-0.1-0.3-0.3-0.3-0.3s-0.3-0.3-0.3-0.5c0-0.2,0.1-0.4,0.1-0.4s0.1-0.4,0-0.5
							c-0.1-0.1-0.9-0.6-0.9-0.6l-0.7-0.4l0.3-0.2c0,0,0,0,0,0c0.1,0,0.2,0,0.5,0c0.4,0,1.3,0,1.3,0s1.3,0.1,1.7,0
							c0.4-0.1,1.3,0,1.8-0.5c0.5-0.5,0.5-0.3,1-1.1c0.4-0.7,0.3-1,0.7-1.6c0.1-0.1,0.2-0.3,0.4-0.5c0.8-0.9,0.9-1,1.2-1.3
							c0.3-0.3,0.6-0.7,0.9-1.1c0.3-0.4,0.4-1.3,0.7-1.7c0.3-0.4,0.8-0.8,1.2-1.2c0.5-0.5,1.8-2.2,1.8-2.2s0.3-0.8,0.2-1.4
							c-0.1-0.5-0.4-1.3-0.4-1.3s-1.1-0.1-0.1-1.1c1-1,1.1-1,1.2-1.3c0.2-0.3,0.7-1.2,0.9-1.3c0.2-0.2,0.1,0,0.9-0.3
							c0.8-0.3,0.7,0,1.1-0.5c0.4-0.4,0.9-1,0.9-1l1.5-1.1c0,0,0.9-0.1,1.3-0.2c0.4-0.1,1,0.3,1.4-0.3c0.4-0.6,0.5-0.9,0.8-1.1
							c0.2-0.2,0.5,0.1,0.6-0.7c0.1-0.8,0-0.9,0.3-1.4c0.4-0.5,0.5-0.5,0.7-0.9c0.1-0.3,0-0.6,0.1-0.9c0.1-0.3,0.6-0.8,0.7-1
							c0.1-0.2,0.3-0.4,0.2-0.9c-0.1-0.5-0.3-0.5-0.2-1c0.1-0.5,0.5-0.8,0.5-0.8s0.2-0.2,0.3-0.5c0.1-0.3,0.2-0.8,0.2-0.8l0.2-0.7
							c0,0-0.6-2.3-0.5-2.5c0.1-0.2,0.4-1.5,0.4-1.5l0-1.2c0,0-0.2-0.5,0.1-0.7c0.3-0.2,0.3-0.2,0.4-0.2c0.1,0,0.2,0.2,0.5-0.1
							c0.3-0.2,0.6-0.9,0.6-1c0.1-0.2,0.2-0.7,0.2-0.7l0.3-1c0,0,0.4-0.4,0.6-0.6c0.2-0.2,0.4-0.6,0.4-0.6l1.3-2.8
							c0,0,0.7-1,0.7-1.3C167.1,97.4,167.1,97.3,166.9,96.9z"/>
						<g>
							<path class="st5" d="M166.9,96.7c-0.1-0.2-0.2-0.4-0.2-0.7c0,0.2,0,0.3,0,0.5c0-0.4,0.2-0.6,0.1-1c-0.1-0.5-0.3-0.6-0.6-1
								c-0.2-0.3-0.2-0.6-0.4-0.8c-0.9-1.4-2.4-0.1-3.6-0.9c-0.6-0.4-1-1-1.5-1.4c-0.4-0.4-0.4-0.3-0.9-0.3
								c-0.7-0.1-1.1-0.3-1.8-0.1c-1.4,0.3-2.6,0.4-4,0.2c-0.7-0.1-1.2,0.4-1.6,0.7c-0.2,0.1-0.2,0.1-0.4,0.3
								c-0.1,0.1-0.1,0.3-0.2,0.4c-0.4,0.3-0.8-0.2-0.8-0.6c0,0.2,0,0.3,0,0.5c0.3-0.3,0.5-0.4,0.8-0.7c0,0,0-0.5,0-0.5
								c-0.2-0.4-0.4-0.9-0.7-1.2c-0.3-0.3-0.2-0.3-0.6-0.2c-0.1,0-0.1,0.3-0.2,0.3c-0.2,0-0.3-0.2-0.5-0.3
								c-0.2-0.2-0.3-0.3-0.5-0.3c-0.5-0.2-1.4,0-1.9,0c-0.7,0-1,0-1.4,0.6c-0.3,0.4-0.8,1-1.1,1.3c-0.4,0.4-1.2,0.5-1.7,0.6
								c-1.1,0.4-2.1-0.2-3.2,0c0,0.2,0,0.3,0,0.5c0.2-0.5,0.4-0.9,0.6-1.3c0.2-0.5,0.2-1,0.5-1.5c0.3-0.5,1.1-0.8,1.4-1.2
								c0.2-0.4,0.3-1,0.3-1.4c0-0.1,0-0.5,0-0.5c-0.6-0.3-1.1-0.6-1.5-1.2c-0.4-0.7-0.8-1.4-1.3-2c0,0.1,0,0.3,0,0.4
								c0-0.1,0-0.3,0-0.4c0,0,0-0.4,0-0.4c-0.6,0-0.9-0.1-1.4-0.5c-0.6-0.5-0.8-0.7-1.6-0.6c-0.9,0-1.8-0.4-2.8-0.2
								c-0.6,0.2-1.2,0.6-1.9,0.5c-0.3,0-0.3-0.2-0.6-0.3c-0.3-0.1-0.6,0-0.9-0.3c-0.4-0.2-0.5-0.4-0.9-0.5c-0.3,0-0.7,0.1-1-0.1
								c-0.7-0.6-0.7-2.2-2-2.1c-0.9,0-1.1,0.8-1.8-0.1c0,0.2,0,0.3,0,0.5c0-0.2,0-0.4,0.1-0.6c0-0.1,0-0.5,0-0.5
								c-0.5-0.3-1.2-0.9-1.8-0.9c-1,0-1,0.3-1.9-0.4c0,0.2,0,0.3,0,0.5c0.2-0.2,0.5-0.4,0.7-0.6c0,0,0-0.5,0-0.5
								c-0.8-0.4-1.5-0.1-2.2,0.3c-0.3,0.1-0.6,0.1-1,0.2c-0.4,0.1-0.3,0.2-0.6,0.5c-0.3,0.2-0.7,0.4-1,0.4c-0.3,0-0.5-0.3-0.9-0.4
								c-0.6-0.1-1.3,0.2-1.9,0.4c-0.2,0.1-0.6,0.3-0.8,0.3c-0.5,0-0.4-0.5-0.8-0.8c-0.5-0.6-1-0.1-1.6-0.3
								c-0.5-0.1-0.9-1.2-1.4-0.6c-0.1,0.2,0,1,0.1,1.1c0-0.2,0-0.3,0-0.5c-0.1,0.6-0.4,0.7-0.9,1c0,0,0,0.4,0,0.5
								c0,0.1,0,0.2,0,0.3c0-0.1,0-0.2,0-0.3c0,0.2,0,0.4,0,0.6c0,0.2,0,0.5,0.1,0.7c0.2,0.4,0.6,0.4,0.6,0.9c0-0.2,0-0.3,0-0.5
								c-0.1,0.6-0.5,0.9-1.1,0.7c-0.5-0.2-0.5-0.4-0.6-0.9c0,0.2,0,0.3,0,0.5c0.2-0.4,0.3-0.6,0.3-1c0-0.7-0.5-0.9-0.7-1.5
								c0,0.2,0,0.3,0,0.5c0.3-0.5,1-0.5,1-1.2c0-0.4-0.2-0.6-0.5-0.9c-0.5-0.3-1-0.1-1.3,0.4c-0.1,0.2-0.1,0.5-0.2,0.8
								c-0.3,0.4-0.8,0.8-1.2,1c-0.3,0.2-0.5,0.1-0.8,0.3c-0.5,0.2-0.3,0.5-0.9,0.3c-0.2-0.1-0.1-0.5-0.5-0.2
								c-0.2,0.1-0.3,0.6-0.4,0.8c-0.3,0.8-0.2,1.3,0.1,2.1c0-0.2,0-0.3,0-0.5c-0.2,0.3-0.5,0.5-0.7,0.8c-0.2,0.4,0,0.6-0.5,0.9
								c0,0,0,0.4,0,0.5c0,0.3,0.1,0.5,0.3,0.8c0-0.2,0-0.3,0-0.5c-0.1,0.6-0.4,0.3-0.7,0c-0.1-0.2-0.2-0.3-0.3-0.5
								c-0.2-0.2-0.5-0.3-0.8-0.5c-0.8-0.6-1.2-0.6-2.1-0.4c-0.8,0.2-1.4,0.9-2.2,1.3c-0.7,0.3-1.5,0.4-2.2,0.5c0,0.2,0,0.3,0,0.5
								c0.1-0.3,0-0.7-0.1-0.9c-0.4-0.7-1.2-0.8-1.8-1.1c-0.7-0.2-0.9-0.5-1.1-1.2c0,0.2,0,0.3,0,0.5c0.7-1.1,0.3-1.6-0.7-2.5
								c0,0.2,0,0.3,0,0.5c0.5-0.4,0.8-0.1,0.9-0.8c0-0.8-0.7-1.1-0.8-1.8c0,0.2,0,0.3,0,0.5c0.2-0.5,0.5-0.7,0.6-1.2
								c0-0.4-0.1-0.7-0.2-1.1c-0.3-0.7-0.6-0.6-1.3-0.9c-0.6-0.2-0.9-0.4-1.6-0.3c-0.2,0-0.5,0.2-0.8,0.2c-0.2,0-0.5-0.1-0.7-0.1
								c-0.5,0.1-1,0.4-1.5,0.5c-0.4,0.1-0.8,0.2-1.1,0.2c-0.1,0-0.2-0.2-0.3-0.1c-0.6,0.2-0.8,0.8-1.6,0.5c0,0.2,0,0.3,0,0.5
								c0.3-0.7,0.8-0.8,0.7-1.5c-0.1-1-0.5-1.9-0.5-2.9c0,0.2,0,0.3,0,0.5c0.1-0.5,0.7-0.1,1-0.4c0.3-0.3,0.2-0.9,0.2-1.2
								c0-0.1,0-0.5,0-0.5c-0.2-0.1-0.4-0.3-0.6-0.3c0,0.2,0,0.3,0,0.5c0-0.2,0.2-0.5,0.2-0.7c0-0.4-0.1-0.8-0.2-1.1
								c0,0.2,0,0.3,0,0.5c0.4-0.5,0.7-0.5,0.6-1.1c-0.1-0.4-0.1-0.9-0.6-1C82,66.5,81,66.8,80.6,67c-0.3,0.2-0.5,0.5-0.8,0.6
								c-0.4,0.2-1,0.2-1.2,0.6c-0.1,0.3,0.1,0.9,0.2,1.2c0-0.2,0-0.3,0-0.5c-0.1,0.8-0.2,1.4-0.1,2.2c0-0.2,0-0.3,0-0.5
								c-0.1,0.5-0.3,0.6-0.7,0.8c0,0,0,0.5,0,0.5c0.1,0.3,0.2,0.5,0.2,0.8c0-0.2,0-0.3,0-0.5c-0.3,0.3-1,0.7-1.4,0.6
								c-0.4-0.1-0.2-0.5-0.8-0.3c-0.6,0.2-1.2,0.6-1.8,0.8c-1.3,0.5-3.7-0.2-4.3-1.5c0,0.2,0,0.3,0,0.5c0-1-0.1-1.2-1.3-1.6
								c0,0.2,0,0.3,0,0.5c0.1-0.6,0.5-1,0.3-1.6c-0.2-0.9-1.2-1.6-1.4-2.5c0,0.2,0,0.3,0,0.5c0.1-0.3,0.3-0.9,0.2-1.2
								c-0.1-0.3-0.4-0.5-0.5-0.7C67,65.3,67,64.9,67,64.5c0,0.1,0,0.3,0,0.4c0.7,0.2,1,0.1,1.2-0.7c0-0.1,0-0.4,0-0.5
								c-0.2-0.4-0.7-0.6-1.2-0.7c-0.3-0.1-0.7,0-0.9-0.2c-0.2-0.1-0.4-0.5-0.5-0.7c-0.7-1-1.7-1.9-2.5-2.8
								c-0.3-0.3-0.6-0.7-0.9-0.9c-0.4-0.2-1.3,0-1.7,0.3c-0.4,0.3-0.5,0.8-1,1.1c-0.6,0.4-1.2,0.3-1.6-0.2
								c-0.9-0.9-1.6-1.8-2.8-2.4c-0.5-0.3-0.7-0.2-1.3,0c-0.2,0.1-0.7,0.1-0.9,0.2c-0.2,0.1-0.3,0.4-0.5,0.6
								c-0.4,0.2-1.2,0.2-1.7,0.3c-0.6,0.1-1.2,0.3-1.7,0.3c-0.6,0-1.3-0.2-2-0.2c-0.8-0.1-1.8-0.1-2.6-0.3
								c-0.5-0.1-0.5-0.3-1.1-0.2c-0.8,0.2-1.5,0.3-2.3,0.5c0,0,0,0.5,0,0.5c0.2,1,0.5,2.8,1.2,3.6c0.5,0.5,1.5,0.6,2,1
								c0.3,0.2,0.6,0.5,0.7,0.9c0,0.1,0.1,0.7,0.1,0.7c0-0.2,0-0.3,0-0.5c-0.1,0.2-1.3,0.1-1.6,0.3c0,0,0,0.4,0,0.5
								c0.2,0.8,1.8,1.2,2.5,1c0.1,0,0.1-0.1,0.3-0.1c0.2,0,0.8,0.3,0.9,0.4c0.7,0.3,0.8,0.6,0.9,1.3c0-0.2,0-0.3,0-0.5
								c-0.4,0,0,1.6,0,1.7c0.2,0.3,0.5,0.3,0.8,0.5c0.5,0.2,0.9,0.6,1.3,0.9c0.8,0.6,1,1,1.6,0c0,0,0-0.5,0-0.5
								c-0.4-0.4-0.7-0.7-1.1-0.9c-0.6-0.3-0.8-0.2-1-0.9c-0.2-0.5-0.5-1-0.6-1.5c-0.2-0.6-0.2-1.1-0.8-1.4
								c-0.5-0.3-0.6-0.2-1.1-0.7c-0.4-0.5-0.5-1.1-0.9-1.6c-0.5-0.6-1.2-0.9-1.8-1.4c-0.3-0.2-0.2,0-0.4-0.5
								C44,60.7,44,60.1,44,59.8c0,0.2,0,0.3,0,0.5c0-0.1,0-0.9,0.1-0.9c0,0,0.7,0.3,0.8,0.3c0.7,0,0.9-0.1,1.2,0.8
								c0-0.2,0-0.3,0-0.5c-0.3-0.2-0.2,0-0.2,0.2c-0.1,0.5,0.6,1.1,0.9,1.4c0.4,0.5,0.6,1,1,1.5c0.5,0.7,1.4,0.9,2.1,1.2
								c0-0.2,0-0.3,0-0.5c-0.3,0.4-0.6,0.5-0.4,1c0.2,0.7,1,0.4,1.5,0.6c0.1,0,0,0.1,0.1,0.2c0.1,0.1,0.3,0,0.5,0.1
								c0.3,0.1,0.3-0.1,0.4,0.3c0-0.2,0-0.3,0-0.5c-0.3,0.6-0.7,0.8-0.5,1.4c0.1,0.6,0.3,0.4,0.9,0.3c0.6-0.1,1,0,1.4,0.5
								c0.4,0.4,0.6,0.7,1,1.1c0.3,0.2,0.6,0.6,0.8,1c0.7,0.8,2.1,1,2.3,2.1c0-0.2,0-0.3,0-0.5c0,1.3-0.8,1.8-0.3,3
								c0.3,0.8,1,1,1.8,1.4c0.4,0.2,0.4,0.1,0.8,0.2c0.5,0.1,0.6,0.3,1,0.6c0.6,0.3,1.2,0.1,1.8,0.2c0.6,0.1,1.1,0.3,1.7,0.4
								c0.4,0.1,0.9,0,1.2,0.2c0.1,0.1,0.1,0.3,0.2,0.3c0.5,0.4,1.4,0.4,2,0.5c0.3,0,1.3,0,1.4,0.3c0-0.2,0-0.3,0-0.5
								c0,0.2-0.1,0.6,0,0.7c0.2,0.2,1.6-0.1,1.9-0.1c0.6-0.1,1.2-0.3,1.6-0.7c0.6-0.5,0.6-0.6,1.3-0.6c0.4,0,0.9,0,1.3,0.1
								c0.3,0.1,0.8,0.4,1,0.6c0.4,0.3,0.6,0.8,1,1.2c0.4,0.5,1.2,0.9,1.8,0.9c0.5,0,0.9-0.3,1.4-0.2c0.5,0.1,0.7,0.4,1.1,0.5
								c0.3,0.1,1-0.1,1.3-0.1c0.4-0.1,1-0.6,1.5-0.5c0.5,0.1,0.5,0.8,0.7,1.2c0.5,0.9,1.7,1.4,2.3,2.3c0-0.2,0-0.3,0-0.5
								c0,0.3-0.2,0.8-0.1,1.1c0.1,0.3,0.6,0.6,1,0.7c0.5,0.1,0.4-0.3,0.7-0.5c0.5-0.3,0.6,0,0.9,0.3c0.3,0.3,0.8,0.3,1,0.6
								c0.2,0.2,0.1,0.7,0.4,0.9c0.4,0.2,0.3-0.5,0.8,0.1c0-0.2,0-0.3,0-0.5c0,0.2-0.2,0.7,0,0.8c0.2,0.2,1.5-0.2,1.9-0.3
								c0.5,0,0.8,0,1.3,0.2c0.3,0.1,0.5,0.3,0.8,0.5c0.4,0.2,0.7,0.2,0.8-0.2c0.2-0.5-0.2-1-0.5-1.3c0,0.2,0,0.3,0,0.5
								c0.1-0.5,0.7-0.4,0.8-0.9c0.1-0.3-0.1-0.6-0.1-0.8c0,0.2,0,0.3,0,0.5c0.5-0.7,2-0.7,2.4,0.1c0.2,0.3,0,0.6,0.2,1
								c0.1,0.3,0.5,0.6,0.6,0.8c0,0,0.2,0.5,0.2,0.5c0.1,0.1,0.2,0.1,0.3,0.2c0.8,0.8,0.9,1.6,1,2.7c0-0.2,0-0.3,0-0.5
								c-0.2,1.1-0.5,1.5,0.6,2.2c0-0.2,0-0.3,0-0.5c-0.1,0.2-0.3,0.3-0.4,0.5c-0.3,0.4-0.2,0.3-0.3,0.8c-0.2,0.5-0.4,0.4-0.9,0.6
								c-0.4,0.2-0.6,0.6-0.5,1.1c0.1,0.4,0.5,0.5,0.6,0.9c0-0.2,0-0.3,0-0.5c-0.3,0.4-0.4,0.4-0.5,0.8c0,0.4,0.2,0.7,0.2,1
								c0-0.2,0-0.3,0-0.5c-0.2,1.4-1.5,0.1-1.7,1.5c-0.1,0.4,0,0.8,0,1.2c0-0.2,0-0.3,0-0.5c-0.1,0.6-0.5,1.1-0.6,1.7
								c-0.1,0.6,0.2,1.2,0.3,1.7c0-0.2,0-0.3,0-0.5c-0.2,0.2-0.1,0.9,0,1.1c0.2,0.4,0.4,0.3,0.8,0.2c0.7-0.3,0.7-0.6,1.2,0.2
								c0-0.2,0-0.3,0-0.5c-0.7,0.7-2.1,1.3-2.4,2.3c0,0.2,0,0.5,0,0.7c0.2,1,1,1,1.3,1.9c0-0.2,0-0.3,0-0.5c0,0.4-0.7,0.5-0.6,1
								c0.1,0.5,0.7,0.6,1.2,0.8c0.6,0.2,1.2,0.4,1.6,0.9c0.3,0.3,0.4,0.7,0.7,1c0.4,0.4,0.9,0.5,1.2,0.9c0.8,1,1.2,2.4,1.8,3.6
								c0.2,0.4,0.5,0.5,0.8,0.8c0.3,0.3,0.3,0.5,0.5,0.8c0.3,0.6,1.3,0.8,1.6,1.6c0-0.2,0-0.3,0-0.5c-0.3,1.2-0.6,1.2,0.5,2.1
								c1.1,0.9,2.2,1.4,3.6,1.7c1.4,0.2,2.4,1,3.5,1.7c0.4,0.3,1.2,0.5,1.4,0.9c0.2,0.4,0.3,1.3,0.4,1.7c0.1,0.3,0.2,0.7,0.3,1
								c0-0.2,0-0.3,0-0.5c-0.1,0.8-0.2,1.6-0.1,2.4c0,0.2,0.1,0.5,0.1,0.7c0,0.5-0.2,0.7-0.3,1.1c0,0.1,0,0.2,0,0.2
								c0,0.7,0.4,1.2,0.4,1.9c0-0.2,0-0.3,0-0.5c-0.3,1.1,0,1.5,0.1,2.6c0-0.2,0-0.3,0-0.5c-0.6,0.9-0.2,1.8-0.1,2.9
								c0-0.2,0-0.3,0-0.5c-0.5,0.6-0.6,0.6-0.6,1.4c0,0.6-0.1,1.3-0.2,1.9c0,0.1,0,0.5,0,0.5c0.2,0.1,0.3,0.2,0.3,0.4
								c0-0.2,0-0.3,0-0.5c0,0.8-0.6,1.1-0.6,1.9c0,1.4,0.8,2.5,1,3.8c0-0.2,0-0.3,0-0.5c-0.2,1.3-1,2.4-1.5,3.6
								c-0.2,0.5-0.2,0.8-0.1,1.4c0-0.2,0-0.3,0-0.5c-0.3,0.8-0.5,0.9-0.5,1.7c0-0.2,0-0.3,0-0.5c-0.1,0.4-0.4,0.5-0.6,0.8
								c0,0.1,0,0.3,0,0.4c0,1.1,0.3,1.9,0.8,2.9c0-0.2,0-0.3,0-0.5c-0.1,0.9-0.7,1.7-0.7,2.5c0,0.3,0.1,0.6,0.3,0.9
								c0.3,0.3,0.5,0.2,0.8,0.3c0.2,0.1,0.4,0.3,0.6,0.4c0-0.2,0-0.3,0-0.5c-0.1,0.8-1,3.4-0.2,4c0-0.2,0-0.3,0-0.5
								c-0.6,0.5-0.5,1-0.4,1.7c0-0.2,0-0.3,0-0.5c-0.4,0.8-0.3,1.1-0.2,2c0-0.2,0-0.3,0-0.5c-0.1,0.2-0.3,0.3-0.6,0.2
								c-0.4-0.2-0.3-0.8-0.8-0.8c-0.3,0-0.9,0.7-1,1c0,0.1,0,0.4,0,0.5c0.2,0.4,0.3,0,0.7-0.1c0.4-0.1,0.8,0.3,1.1,0.5
								c0-0.2,0-0.3,0-0.5c-0.6,0.9-0.6,1-0.4,2.1c0-0.2,0-0.3,0-0.5c-0.2,0.3-0.3,0.7-0.4,1c-0.1,0.2-0.4,0.2-0.5,0.4
								c-0.1,0.3,0,0.9,0,1.1c0,0,0,0,0,0c0.4,0.1,0.8,0,1.2,0c0-0.2,0-0.3,0-0.5c-0.1,0.3-0.3,0.6-0.3,1c0,0.1,0,0.2,0.1,0.3
								c0.2,0.2,0,0.1,0.4,0c0.3-0.1,0.5-0.6,0.6-0.2c0-0.2,0-0.3,0-0.5c-0.1,0.6-0.4,0.9-0.4,1.4c0,0.3,0,0.7,0.3,0.8
								c0.5,0.3,1.1-0.6,1.3-0.1c0-0.2,0-0.3,0-0.5c-0.3,0.4-0.8,0.6-1.1,1c0,0.1,0,0.4,0,0.5c0.3,0.7,1,0.5,1.4,1.2
								c0-0.2,0-0.3,0-0.5c-0.7,0.9,0.8,1.3,1.5,1.4c1,0.1,1.3,0,2.3-0.2c0.8-0.2,2.2,0.2,2.7-0.6c0,0,0-0.4,0-0.5
								c-0.4-0.8-2.4-0.1-2.5-1.2c0,0.2,0,0.3,0,0.5c0-0.2,0.1-0.5,0-0.7c-0.3-0.8-0.8-0.4-1.3-0.6c0,0.2,0,0.3,0,0.5
								c0.2-0.6,0.8-0.6,0.9-1.2c0-0.5-0.4-0.8-0.5-1.3c0,0.2,0,0.3,0,0.5c0.4-0.6,1-0.9,1.3-1.5c0.4-0.6,0.2-1.1,0.7-1.5
								c0.5-0.4,1-0.4,1.4-0.9c0.4-0.5,0.9-1.1,1.2-1.6c0,0,0-0.5,0-0.5c-0.8-0.3-2.1-0.8-2.2-1.8c0,0.2,0,0.3,0,0.5
								c0.4-1.3,1.6-1.1,2.3-1.9c0.6-0.7,0.5-1.1,0.5-2c0,0.1,0,0.2,0,0.3c0.2-0.5,0.3-1.1,0.9-1.4c0.4-0.2,0.6,0,0.8-0.4
								c0.1-0.2,0.1-0.4,0.1-0.6c0-0.1,0-0.4,0-0.5c-0.7-0.3-1.1,0.8-1.6,0c0,0.2,0,0.3,0,0.5c0.1-0.4,0.2-0.6,0.2-1
								c0-0.6-0.3-0.8,0.5-0.8c0.5,0,0.9,0.2,1.3,0.1c0.8-0.2,1.8-1.6,1.9-2.4c0.1-0.5-0.2-0.8-0.5-1.2c0,0.2,0,0.3,0,0.5
								c0.4-0.6,1.2-0.4,1.9-0.7c0.6-0.2,1.2-0.5,1.9-0.8c0.7-0.2,1.2-0.4,1.7-1c0.2-0.3,0.2-0.7,0.5-1c0.1-0.2,0.3-0.3,0.5-0.5
								c0.3-0.3,0.5-0.5,0.6-0.9c0.1-0.6-0.5-0.9-0.6-1.4c0,0.2,0,0.3,0,0.5c0.1-0.3,0.2-0.9,0.1-1.3c-0.2-0.5-1.1-0.9-1.6-1.3
								c0,0.2,0,0.3,0,0.5c0.7-0.4,1.6-0.2,2.4-0.2c0.9,0,2.3,0.1,3.1-0.4c1.2-0.7,1.3-2,2.1-3.1c0.7-1,1.7-1.7,2.3-2.8
								c0.4-0.6,0.4-1.3,0.9-1.9c0.5-0.5,1-1,1.5-1.5c0.6-0.7,1.2-1.3,1.4-2.2c0.1-0.3,0.1-0.7,0.1-1.1c0-0.4-0.1-1.1-0.4-1.4
								c-0.2-0.2-0.5,0-0.5-0.4c0,0.2,0,0.3,0,0.5c0.2-0.9,1.2-1.4,1.7-2.1c0.3-0.4,0.5-1,0.9-1.2c0.4-0.2,0.9-0.2,1.3-0.4
								c0.7-0.3,1.1-1,1.8-1.5c0.8-0.7,1.3-0.9,2.4-1c0.6,0,1.1,0.2,1.5-0.4c0.3-0.4,0.6-0.8,1-1.2c0.4-0.5,0.3-0.8,0.4-1.4
								c0.1-0.6,0.6-0.9,0.9-1.3c0.2-0.4,0.1-0.7,0.2-1.1c0.1-0.3,0.4-0.5,0.5-0.8c0.2-0.3,0.3-0.5,0.4-0.8c0.1-0.5-0.1-1-0.2-1.4
								c0,0.2,0,0.3,0,0.5c0.1-0.8,0.7-1.5,0.9-2.4c0.1-0.3,0.2-0.6,0.2-1c0-0.9-0.4-1.8-0.5-2.8c0,0.2,0,0.3,0,0.5
								c0-0.6,0.3-1.2,0.4-1.8c0-0.6,0-1.2-0.1-1.7c0,0.2,0,0.3,0,0.5c0-0.5,0.4-0.5,0.6-0.6c0.3-0.1,0.5-0.1,0.7-0.5
								c0.3-0.5,0.4-1,0.6-1.6c0.3-1,1.1-1.6,1.6-2.6c0.5-0.9,0.9-1.9,1.4-2.8C167.3,97.8,167.2,97.3,166.9,96.7
								c0.1,0.1-0.1,0.4,0,0.5c0.1,0.2,0.2,0.4,0.2,0.7c0-0.2,0-0.3,0-0.5c-0.1,0.5-0.5,0.9-0.7,1.3c-0.3,0.6-0.6,1.2-0.9,1.8
								c-0.5,1-1.4,1.7-1.7,2.8c-0.2,0.6-0.3,1.3-0.7,1.7c-0.4,0.5-1,0.1-1.2,0.8c-0.1,0.6,0.1,1.4,0.1,2c0-0.2,0-0.3,0-0.5
								c-0.2,0.6-0.4,1.3-0.4,1.9c0,0.9,0.3,1.7,0.5,2.6c0-0.2,0-0.3,0-0.5c-0.1,0.4-0.2,0.9-0.3,1.3c-0.2,0.6-0.7,1.1-0.8,1.7
								c-0.1,0.6,0.2,1,0.2,1.6c0-0.2,0-0.3,0-0.5c-0.2,0.6-0.7,1-0.9,1.5c-0.2,0.4,0,0.8-0.2,1.2c-0.1,0.2-0.4,0.4-0.6,0.7
								c-0.3,0.5-0.1,1.3-0.4,1.7c-0.2,0.3-0.6,0.5-0.9,0.8c-0.6,0.8-0.6,0.9-1.6,1c-0.4,0-1.1,0-1.5,0.2c-0.7,0.2-1.4,1-1.9,1.5
								c-0.4,0.5-0.6,0.7-1.2,0.9c-0.4,0.2-1,0.2-1.4,0.5c-0.4,0.3-0.6,0.9-0.9,1.3c-0.2,0.3-0.5,0.5-0.8,0.8
								c-0.4,0.4-1,0.9-0.8,1.6c0.1,0.3,0.2,0.2,0.4,0.4c0.3,0.4,0.5,0.9,0.6,1.6c0-0.2,0-0.3,0-0.5c-0.2,1.6-1.6,2.8-2.7,3.9
								c-0.8,0.8-1,1.9-1.7,2.9c-0.5,0.6-1.1,1.2-1.6,1.8c-0.7,0.8-0.8,1.9-1.5,2.7c-0.7,0.7-1.3,0.9-2.3,1c-1.2,0.1-3-0.3-4,0.2
								c0,0,0,0.5,0,0.5c0.4,0.3,1.6,0.7,1.6,1.2c0-0.2,0-0.3,0-0.5c0,0.4-0.2,0.7-0.1,1.1c0.1,0.5,0.5,0.7,0.6,1.1
								c0-0.2,0-0.3,0-0.5c-0.1,0.3-0.4,0.6-0.6,0.8c-0.4,0.4-0.5,0.6-0.7,1.1c-0.5,1.1-1.5,1.2-2.5,1.6c-0.6,0.3-1.2,0.6-1.9,0.7
								c-0.6,0.1-1-0.1-1.4,0.5c0,0,0,0.5,0,0.5c0.2,0.2,0.3,0.5,0.5,0.7c0-0.2,0-0.3,0-0.5c-0.1,0.7-1.1,2.1-1.8,2.3
								c-0.6,0.2-1.5-0.1-2.2-0.1c0,0,0,0,0,0c0,0.6,0,1.2,0.1,1.7c0-0.2,0-0.3,0-0.5c-0.1,0.3-0.3,0.6-0.2,0.9
								c0.3,0.9,1-0.2,1.6,0.1c0-0.2,0-0.3,0-0.5c0,1.2-0.5,0.6-1.1,1.2c-0.2,0.2-0.4,0.8-0.5,1.1c-0.1,0.4,0,0.9,0,1.3
								c0-0.1,0-0.2,0-0.3c-0.5,0.8-0.7,1.1-1.6,1.5c-0.6,0.3-1.2,0.6-1.3,1.4c-0.2,1.2,1.3,1.9,2.2,2.2c0-0.2,0-0.3,0-0.5
								c-0.4,0.7-1,1.7-1.8,2.1c-0.3,0.2-0.7,0.2-1,0.6c-0.3,0.4-0.2,0.8-0.4,1.2c-0.3,0.6-1.2,1.1-1.4,1.7c-0.2,0.5,0.3,1,0.5,1.4
								c0-0.2,0-0.3,0-0.5c0,0.3-0.7,0.6-0.9,1c0,0,0,0.5,0,0.5c0.5,0.2,0.9-0.2,1.3,0.5c0-0.2,0-0.3,0-0.5c0,0.3-0.1,0.7,0,1
								c0.5,0.9,2,0.2,2.4,1c0-0.2,0-0.3,0-0.5c-0.4,0.5-1.2,0.5-1.8,0.5c-0.7,0-1.3,0.4-2,0.4c-0.7,0.1-2.4-0.1-2.8-0.7
								c0,0.2,0,0.3,0,0.5c0-0.1,0-0.2,0.1-0.3c0,0,0-0.5,0-0.5c-0.5-0.6-1.1-0.4-1.4-1.2c0,0.2,0,0.3,0,0.5
								c0.3-0.4,1.3-0.7,1.1-1.3c0-0.2,0-0.3-0.3-0.4c-0.4,0-0.5,0.6-1,0.3c-0.2-0.1-0.3-0.5-0.3-0.8c0,0.2,0,0.3,0,0.5
								c0.2-0.3,0.6-0.9,0.4-1.4c-0.1-0.2,0.1-0.2-0.2-0.2c-0.6,0-0.5,0.8-0.8,0c0,0.2,0,0.3,0,0.5c0.1-0.2,0.2-0.4,0.3-0.7
								c0,0,0-0.5,0-0.5c-0.8,0-1.2,0.4-1.2-0.6c0,0.2,0,0.3,0,0.5c1-0.7,0.9-1.6,0.8-2.7c0,0.2,0,0.3,0,0.5
								c0.2-0.3,0.4-0.5,0.6-0.8c0,0,0-0.5,0-0.5c-0.3-0.1-0.7-0.5-1.1-0.5c-0.3,0-0.6,0.6-0.7,0.1c0,0.2,0,0.3,0,0.5
								c0.1-0.3,0.6-1,1-1c0.4,0,0.3,0.3,0.6,0.6c0.2,0.2,0.5,0.3,0.7,0.1c0.2-0.3,0-1.3-0.1-1.5c0,0.2,0,0.3,0,0.5
								c0.3-0.6,0.4-0.9,0.2-1.6c0,0.2,0,0.3,0,0.5c0.1-0.3,0.2-0.5,0.5-0.7c0,0,0-0.5,0-0.5c-0.4-0.3-0.2-0.8-0.2-1.3
								c0,0.2,0,0.3,0,0.5c0.2-0.7,0.6-1.7,0.4-2.5c-0.1-0.3-0.1-0.4-0.5-0.6c-0.2-0.1-0.6-0.1-0.8-0.2c-0.3-0.2-0.4-0.5-0.5-0.8
								c0,0.2,0,0.3,0,0.5c0.3-0.8,1-1.9,0.7-2.8c-0.1-0.2-0.3-0.4-0.4-0.6c-0.2-0.3-0.2-0.7-0.3-1.1c-0.1-0.4-0.1-0.6,0-0.9
								c0.1-0.2,0.3-0.2,0.4-0.5c0.1-0.2,0-0.7,0-0.9c0,0.2,0,0.3,0,0.5c0.4-0.7,0.6-1,0.4-1.8c0,0.2,0,0.3,0,0.5
								c0.4-1.6,2-3,1.6-4.8c-0.2-0.7-0.5-1.3-0.7-2c-0.1-0.5-0.2-0.8,0-1.2c0.1-0.2,0.2-0.3,0.3-0.5c0.2-0.5,0.3-1.3-0.2-1.6
								c0,0.2,0,0.3,0,0.5c0.1-0.7,0.1-1.3,0.2-2c0-0.2,0-0.5,0-0.7c0.1-0.3,0.5-0.4,0.6-0.7c0.2-0.7-0.1-1.8-0.2-2.4
								c0,0.2,0,0.3,0,0.5c0.5-0.8,0.3-1.5,0-2.4c0,0.2,0,0.3,0,0.5c0.1-0.4,0.2-0.7,0.2-1.1c0-0.2,0-0.4,0-0.6
								c-0.1-0.5-0.3-0.8-0.4-1.3c0,0.2,0,0.3,0,0.5c0.4-1.2,0.3-2,0.1-3.3c0,0.2,0,0.3,0,0.5c0.1-1,0.2-1.7-0.1-2.7
								c-0.1-0.4-0.2-0.9-0.3-1.3c-0.1-0.7-0.1-0.7-0.7-1c-0.7-0.3-1.2-0.8-1.8-1.2c-0.5-0.3-1.1-0.7-1.7-0.9
								c-0.6-0.2-1.2-0.1-1.8-0.3c-1.4-0.4-2.5-1.3-3.5-2.2c0,0.2,0,0.3,0,0.5c0.1-0.4,0.4-0.7,0.3-1.2c-0.1-0.5-0.4-0.8-0.9-1.1
								c-0.2-0.1-0.5-0.2-0.6-0.3c-0.2-0.2,0-0.3-0.1-0.5c-0.1-0.3-0.3-0.5-0.6-0.8c-0.4-0.4-0.6-0.4-0.8-0.9
								c-0.1-0.2-0.2-0.5-0.3-0.7c-0.4-0.8-0.8-1.6-1.3-2.3c-0.4-0.6-1.1-0.9-1.6-1.5c-0.5-0.5-0.8-1.1-1.4-1.4
								c-0.5-0.2-1.7-0.2-1.9-0.8c0,0.2,0,0.3,0,0.5c0.2-0.2,0.3-0.3,0.6-0.4c0,0,0,0,0,0c0-0.2,0-0.5,0-0.7
								c-0.1-0.4-0.3-0.6-0.6-0.9c-0.4-0.4-0.5-0.3-0.7-1c0,0.1,0,0.2,0,0.3c0-0.9,1.8-1.7,2.4-2.3c0,0,0-0.5,0-0.5
								c-0.5-0.8-0.5-0.5-1.2-0.2c-0.6,0.3-0.8,0-0.8-0.6c0,0.2,0,0.3,0,0.5c0.3-0.7-0.1-1.5-0.2-2.2c0,0.2,0,0.3,0,0.5
								c0.5-0.9,0.5-1.5,0.5-2.5c0,0.1,0,0.2,0,0.3c0.2-1.3,1.4-0.2,1.7-1.5c0.1-0.4-0.1-0.8-0.2-1.2c0,0.2,0,0.3,0,0.5
								c0-0.4,0.5-0.5,0.5-0.9c0-0.4-0.4-0.6-0.6-0.9c0,0.2,0,0.3,0,0.5c0-1,1.1-0.7,1.4-1.3c0.1-0.2,0.1-0.6,0.3-0.9
								c0.1-0.1,0.4-0.3,0.5-0.5c0,0,0-0.5,0-0.5c-0.3-0.2-0.6-0.4-0.8-0.7c0,0.2,0,0.3,0,0.5c0-0.4,0.2-0.8,0.2-1.3
								c0-0.5-0.1-1.1-0.2-1.6c-0.1-0.4-0.2-0.7-0.4-1c-0.1-0.1-0.5-0.2-0.5-0.3c-0.1-0.1-0.1-0.2-0.2-0.4c-0.3-0.4-0.9-1-1-1.6
								c0,0.2,0,0.3,0,0.5c0-0.2,0-0.5,0-0.7c-0.1-0.6-1-1-1.6-0.9c-1.1,0.2-0.8,0.9-0.7,1.6c0-0.2,0-0.3,0-0.5
								c-0.3,0.3-0.8,0.3-0.8,0.9c0,0.5,0.4,0.6,0.5,1.1c0-0.2,0-0.3,0-0.5c-0.1,0.5-0.7,0.4-1,0.2c-0.1-0.1-0.2-0.3-0.3-0.4
								c-0.2-0.1-0.5,0-0.6,0c-0.2,0-0.1-0.2-0.3-0.2c-0.3,0-0.6,0-0.9,0.1c-0.3,0-1.6,0.4-1.7,0.1c0,0.2,0,0.3,0,0.5
								c0-0.2,0.1-0.6,0-0.7c-0.3-0.6-0.4,0-0.6,0c-0.4-0.1-0.3-0.3-0.5-0.7c-0.2-0.3-0.4-0.3-0.7-0.5c-0.3-0.2-0.5-0.6-0.8-0.7
								c-0.5-0.1-0.4,0.3-0.7,0.5c-0.5,0.2-1-0.2-1.3-0.5c0,0.2,0,0.3,0,0.5c0-0.3,0.2-0.8,0.1-1.1c-0.3-1-1.6-1.4-2.2-2.1
								c-0.3-0.4-0.2-0.9-0.5-1.3c-0.5-0.5-1,0.1-1.6,0.2c-0.3,0.1-1.1,0.2-1.4,0.1c-0.3-0.1-0.6-0.3-0.9-0.4
								c-0.7-0.2-0.9,0.1-1.5,0.2c-0.7,0.1-1.5-0.4-2-0.9c-0.3-0.4-0.5-0.9-0.9-1.2c-0.3-0.2-0.8-0.6-1.1-0.7
								c-0.4-0.1-0.9-0.1-1.3-0.1c-0.7,0-0.8,0.1-1.3,0.6c-0.4,0.3-3.4,1.3-3.6,0.7c0,0.2,0,0.3,0,0.5c0.4-1.9-3.5-0.2-3.6-1.8
								c0,0,0,0,0,0c-0.7-0.3-1.7-0.3-2.4-0.5c-0.8-0.2-1.5,0-2.3-0.3c-0.5-0.2-0.7-0.5-1.2-0.6c-0.4-0.1-0.5-0.1-1-0.3
								c-0.3-0.2-0.9-0.3-1.2-0.6c-0.3-0.3-0.4-0.9-0.6-1.3c0,0.2,0,0.3,0,0.5c0.3-0.7,0.6-1.4,0.6-2.2c-0.1-1-0.7-1-1.5-1.5
								c-0.5-0.3-0.8-0.7-1.2-1.1c-0.3-0.4-0.8-0.6-1.1-1c-0.3-0.4-0.5-1-1.1-1.2c-0.7-0.2-1.6,0.7-1.6-0.4c0,0.2,0,0.3,0,0.5
								c0.2-0.3,0.7-0.8,0.5-1.3c-0.2-0.3-0.1-0.1-0.4-0.2c-0.1-0.1-0.3,0-0.5-0.1c-0.1,0,0-0.2-0.1-0.2c-0.5-0.2-1.3,0.1-1.5-0.7
								c0,0.2,0,0.3,0,0.5c0.1-0.2,0.3-0.2,0.4-0.4c0,0,0-0.5,0-0.5c-1-0.5-1.8-0.6-2.4-1.7c-0.5-0.7-1.2-1.4-1.6-2.2
								c0,0.2,0,0.3,0,0.5c0.1-0.1,0.1,0,0.2,0c0,0,0-0.4,0-0.5c-0.1-0.4-0.2-0.7-0.7-0.8c-0.2,0-0.4,0.1-0.6,0.1
								c-0.1,0-0.6-0.2-0.6-0.2C44,59,44,59.7,44,60c0,0.5,0,1.4,0.3,1.8c0.2,0.2,0.6,0.4,0.9,0.6c0.4,0.3,1,0.7,1.3,1.1
								c0.5,0.7,0.6,1.7,1.4,2.1c0.2,0.1,0.6,0.1,0.8,0.3c0.4,0.3,0.4,1.1,0.6,1.4c0.2,0.6,0.6,1.6,1,1.9c0.6,0.5,1.2,0.6,1.7,1.2
								c0-0.2,0-0.3,0-0.5c-0.3,0.5-0.4,0.8-1,0.5c-0.4-0.2-0.7-0.6-1-0.8c-0.5-0.3-1-0.5-1.4-0.8c-0.4-0.3-0.4-0.6-0.5-1.2
								c0,0.2,0,0.3,0,0.5c0-0.1,0-0.3,0.2-0.3c0,0,0-0.5,0-0.5c-0.2-0.7-0.3-1-0.9-1.3c-0.1-0.1-0.6-0.3-0.8-0.3
								c-0.2,0-0.3,0.1-0.4,0.1c-0.7,0.2-2.2-0.3-2.5-1c0,0.2,0,0.3,0,0.5c0.3-0.3,1.5-0.1,1.6-0.3c0,0,0-0.5,0-0.5
								c0.2,0-0.6-1.4-0.8-1.5c-0.6-0.5-1.6-0.5-2.2-1.1c-0.7-0.8-1-2.6-1.2-3.6c0,0.2,0,0.3,0,0.5c0.5-0.1,1.1-0.2,1.6-0.3
								c0.3-0.1,0.6-0.2,0.9-0.2c0.1,0,0.2-0.1,0.3-0.1c0.1,0,0.1,0.2,0.2,0.3c1.1,0.3,2.4,0.3,3.5,0.4c1,0.1,1.7,0.1,2.7,0
								c0.6-0.1,1.5-0.1,2-0.3c0.3-0.1,0.4-0.5,0.7-0.6c0.3-0.2,1.3-0.4,1.7-0.4c0.4,0.1,1.1,0.7,1.5,0.9c0.4,0.3,0.7,0.5,1,0.9
								c0.3,0.3,0.7,0.9,1,1.1c1.3,0.6,1.6-1,2.4-1.4c0.4-0.2,1.1-0.3,1.5-0.2c0.3,0.1,0.6,0.5,0.9,0.7c0.9,0.9,1.8,1.8,2.5,2.7
								c0.5,0.7,0.5,0.9,1.3,1c0.5,0.1,1.2,0.3,1.4,0.8c0-0.2,0-0.3,0-0.5c-0.1,0.8-0.5,0.8-1.2,0.7c0,0,0,0.4,0,0.4
								c0,0.9,0.3,1.2,0.7,2c0-0.2,0-0.3,0-0.5c-0.1,0.6-0.2,1-0.1,1.5c0.3,0.9,1,1.5,1.3,2.3c0-0.2,0-0.3,0-0.5
								c-0.1,0.4-0.3,0.7-0.4,1c0,0,0,0.5,0,0.5c0.5,0.2,1,0.3,1.3,0.7c0-0.2,0-0.3,0-0.5c-0.5,2.2,3,2.9,4.5,2.3
								c0.5-0.2,1-0.5,1.5-0.7c0.4-0.1,0.4,0,0.7,0.1c0.4,0.1,0,0.3,0.6,0.1c1.1-0.4,1-0.8,0.7-1.8c0,0.2,0,0.3,0,0.5
								c0.8-0.5,0.8-1,0.6-1.9c0,0.2,0,0.3,0,0.5c0.1-1,0.1-1.4,0-2.3c0,0.2,0,0.3,0,0.5c0.3-0.4,0.8-0.4,1.2-0.6
								c0.3-0.2,0.5-0.5,0.8-0.6c0.4-0.2,1.4-0.5,1.8-0.4c0.5,0.1,0.4,0.5,0.6,1c0-0.2,0-0.3,0-0.5c-0.2,0.4-0.5,0.4-0.6,0.8
								c-0.1,0.4,0.2,0.8,0.2,1.2c0-0.2,0-0.3,0-0.5c-0.1,0.1-0.2,0.3-0.2,0.4c0,0,0,0.5,0,0.5c0.2,0,0.4,0.2,0.6,0.3
								c0-0.2,0-0.3,0-0.5c-0.1,0.7,0,1.2-0.7,1.4c-0.5,0.2-0.5,0-0.5,0.6c0,1.1,0.4,2.1,0.5,3.2c0-0.2,0-0.3,0-0.5
								c-0.3,0.3-0.5,0.6-0.7,1c0,0,0,0.5,0,0.5c0.4,0.2,0.7,0.1,1.1-0.1c0.5-0.3,0.4-0.2,0.9-0.2c0.9,0,1.8-0.6,2.7-0.6
								c0.9,0,1.8-0.3,2.6,0.1c0.4,0.2,0.8,0.2,1.1,0.5c0.4,0.4,0.5,0.9,0.5,1.4c0-0.2,0-0.3,0-0.5c-0.3,0.5-0.7,0.7-0.6,1.3
								c0.1,0.7,0.8,1,0.8,1.8c0-0.2,0-0.3,0-0.5c-0.2,0.3-0.6,0.2-0.8,0.4c0,0,0,0.5,0,0.5c0.4,0.3,1,0.8,1,1.3c0-0.1,0-0.3,0-0.4
								c-0.1,0.5-0.4,0.6-0.4,1.1c0.2,1.7,2.8,1,3.1,2.6c0-0.2,0-0.3,0-0.5c0,0,0,0.1,0,0.1c0,0,0,0.5,0,0.5
								c1.3-0.2,2.2-0.4,3.3-1.2c0.6-0.4,1.4-0.8,2.2-0.7c0.5,0.1,1.6,0.8,1.9,1.2c0.2,0.3,0.4,1.2,0.8,0.5c0.2-0.4-0.2-1-0.3-1.4
								c0,0.2,0,0.3,0,0.5c0.5-0.3,0.3-0.5,0.5-0.9c0.1-0.3,0.6-0.5,0.7-0.9c0.1-0.4-0.2-0.9-0.3-1.3c0,0.2,0,0.3,0,0.5
								c0.1-0.4,0.3-1.8,1-1.7c0,0,0.2,0.4,0.4,0.4c0.2,0,0.1-0.1,0.3-0.2c0.4-0.1,0.8-0.3,1.1-0.5c0.5-0.3,1-0.7,1.3-1.2
								c0.1-0.3,0.1-0.6,0.4-0.8c0.6-0.6,1.3-0.3,1.6,0.4c0-0.2,0-0.3,0-0.5c-0.4,0.5-1.1,0.6-1,1.3c0,0.6,0.6,0.9,0.7,1.6
								c0-0.2,0-0.3,0-0.5c-0.1,0.4-0.3,0.6-0.3,1.1c0.1,0.5,0.1,0.7,0.6,0.9c0.4,0.1,0.8,0,1-0.5c0.1-0.2,0.1-0.8,0-1
								c-0.1-0.2-0.5-0.3-0.6-0.6c-0.1-0.2-0.1-0.5-0.1-0.8c0-0.2,0-0.3,0-0.5c0,0.2,0,0.3,0,0.5c1-0.6,0.9-1.1,0.8-2.1
								c0,0.2,0,0.3,0,0.5c0.6-0.6,0.9,0.3,1.4,0.5c0.5,0.2,1-0.1,1.4,0.1c0.3,0.2,0.3,0.3,0.5,0.6c0.4,0.5,0.3,0.5,0.8,0.3
								c0.6-0.2,1-0.5,1.6-0.5c0.3,0,0.5-0.1,0.8-0.1c0.3,0.1,0.5,0.4,0.8,0.4c0.2,0,0.6-0.1,0.8-0.2c0.3-0.2,0.4-0.6,0.7-0.7
								c0.2-0.1,0.6,0,0.8-0.1c0.3-0.1,0.4-0.2,0.7-0.4c0.6-0.3,1.3-0.4,2-0.1c0-0.2,0-0.3,0-0.5c-0.2,0.3-0.5,0.4-0.7,0.6
								c0,0,0,0.5,0,0.5c0.3,0.3,0.5,0.5,0.9,0.5c0.3,0,0.6-0.2,1-0.2c0.6,0,1.3,0.6,1.8,0.9c0-0.2,0-0.3,0-0.5c0,0.2-0.2,0.8-0.1,1
								c0.3,1,1.2,0.1,1.8,0.1c1.4-0.1,1.3,1.8,2.2,2.2c0.3,0.2,0.7-0.1,1.1,0c0.5,0.1,0.8,0.6,1.3,0.8c0.7,0.2,1.2,0.3,2,0.1
								c0.9-0.3,1.5-0.5,2.5-0.3c0.8,0.2,1.7-0.1,2.3,0.4c0.7,0.5,0.9,0.7,1.8,0.8c0-0.1,0-0.3,0-0.4c0,0.2-0.1,0.6,0,0.8
								c0.1,0.4,0.6,0.8,0.8,1.1c0.3,0.4,0.4,0.9,0.8,1.3c0.4,0.4,0.7,0.6,1.2,0.9c0-0.2,0-0.3,0-0.5c0,0.5-0.1,1.1-0.4,1.5
								c-0.4,0.5-1.1,0.8-1.4,1.4c-0.2,0.4-0.2,0.8-0.3,1.2c-0.2,0.5-0.4,0.8-0.6,1.3c0,0.1,0,0.5,0,0.5c1-0.2,2,0.3,3.1,0
								c1.3-0.4,2.1-0.8,2.9-1.9c0.4-0.5,0.6-0.6,1.3-0.6c0.6,0,1.3-0.1,1.9,0c0.4,0.1,0.3,0.1,0.6,0.3c0.5,0.3,0.3,0.1,0.6,0
								c0.4-0.1,0.4-0.2,0.7,0.1c0.3,0.3,0.5,0.9,0.7,1.2c0-0.2,0-0.3,0-0.5c-0.3,0.4-0.7,0.5-0.8,0.9c-0.1,0.4,0.2,1.2,0.8,0.9
								c0.2-0.1,0.2-0.5,0.4-0.7c0.1-0.1,0.3-0.1,0.4-0.1c0.1-0.1,0.1-0.2,0.2-0.3c0.8-0.6,1.2-0.2,2.1-0.2c0.5,0,1.2,0,1.7-0.1
								c0.7-0.1,1.5-0.5,2.2-0.4c0.5,0,1.5,0.2,1.9,0.5c0.7,0.6,1.5,1.9,2.6,1.9c0.8,0,1.5-0.5,2.2,0.1c0.3,0.2,0.4,0.5,0.6,0.8
								c0.3,0.5,0.7,0.9,0.8,1.4c0-0.2,0-0.3,0-0.5c-0.2,0.6-0.2,1.1,0.1,1.7C166.9,97,167,96.8,166.9,96.7z"/>
						</g>
					</g>
				</g>
			</g>
		</g>
	</g>
</g>
</svg>
