<?xml version="1.0" encoding="utf-8"?>
<!-- Generator: Adobe Illustrator 23.0.5, SVG Export Plug-In . SVG Version: 6.00 Build 0)  -->
<svg version="1.1" id="Capa_1" xmlns="http://www.w3.org/2000/svg" xmlns:xlink="http://www.w3.org/1999/xlink" x="0px" y="0px"
	 viewBox="0 0 215.1 194.8" style="enable-background:new 0 0 215.1 194.8;" xml:space="preserve">
<style type="text/css">
	.st0{fill:url(#SVGID_1_);}
	.st1{fill:url(#SVGID_2_);}
	.st2{fill:url(#SVGID_3_);}
	.st3{fill:url(#SVGID_4_);}
	.st4{fill:#FFFFFF;}
	.st5{fill:#1E2F57;}
	.st6{fill:#8D271B;}
	.st7{fill:#211C1E;}
	.st8{fill:none;stroke:#8D271B;stroke-miterlimit:10;}
	.st9{fill:url(#SVGID_5_);}
	.st10{fill:url(#SVGID_6_);}
	.st11{fill:url(#SVGID_7_);}
	.st12{fill:url(#SVGID_8_);}
	.st13{fill:url(#SVGID_9_);}
	.st14{fill:url(#SVGID_10_);}
	.st15{fill:url(#SVGID_11_);}
	.st16{fill:url(#SVGID_12_);}
</style>
<g>
	<g>
		<g>
			<linearGradient id="SVGID_1_" gradientUnits="userSpaceOnUse" x1="72.2765" y1="15.1018" x2="72.5527" y2="15.7344">
				<stop  offset="1.582485e-02" style="stop-color:#07892F"/>
				<stop  offset="0.209" style="stop-color:#F2C000"/>
				<stop  offset="0.4441" style="stop-color:#EC7710"/>
				<stop  offset="0.6341" style="stop-color:#DB121A"/>
				<stop  offset="0.815" style="stop-color:#752C64"/>
				<stop  offset="0.9763" style="stop-color:#0E47AE"/>
			</linearGradient>
			<path class="st0" d="M72.8,15.2c0.2,0.1-0.1,0.2-0.8,0.2c-0.2,0-0.3,0-0.6,0c-0.1,0-0.2,0-0.3,0c0.1,0,0.3,0,0.4,0
				C73.6,15.4,74.4,15.3,72.8,15.2z"/>
			<linearGradient id="SVGID_2_" gradientUnits="userSpaceOnUse" x1="70.4803" y1="15.4816" x2="70.5979" y2="15.751">
				<stop  offset="1.582485e-02" style="stop-color:#07892F"/>
				<stop  offset="0.209" style="stop-color:#F2C000"/>
				<stop  offset="0.4441" style="stop-color:#EC7710"/>
				<stop  offset="0.6341" style="stop-color:#DB121A"/>
				<stop  offset="0.815" style="stop-color:#752C64"/>
				<stop  offset="0.9763" style="stop-color:#0E47AE"/>
			</linearGradient>
			<path class="st1" d="M70,15.7c0.3-0.1,0.6-0.1,0.9-0.2c0,0,0.2,0,0.3,0c0,0,0,0,0,0c0,0,0,0,0,0c-0.1,0-0.3,0-0.3,0
				c-0.2,0-0.3,0.1-0.5,0.1C70.2,15.7,70,15.7,70,15.7C69.9,15.7,69.9,15.7,70,15.7C69.9,15.7,69.9,15.7,70,15.7z"/>
			<linearGradient id="SVGID_3_" gradientUnits="userSpaceOnUse" x1="73.3621" y1="23.5804" x2="133.1028" y2="160.406">
				<stop  offset="1.582485e-02" style="stop-color:#07892F"/>
				<stop  offset="0.209" style="stop-color:#F2C000"/>
				<stop  offset="0.4441" style="stop-color:#EC7710"/>
				<stop  offset="0.6341" style="stop-color:#DB121A"/>
				<stop  offset="0.815" style="stop-color:#752C64"/>
				<stop  offset="0.9763" style="stop-color:#0E47AE"/>
			</linearGradient>
			<path class="st2" d="M188.6,99.4c-0.3-0.4-0.6-0.7-0.9-1c-0.3-0.3-0.7-0.7-1-1c-0.7-0.6-1.5-1.2-2.4-1.7
				c-0.9-0.5-1.8-0.9-2.8-1.2c-1-0.3-1.9-0.5-2.8-0.6c-0.5-0.1-0.9-0.1-1.3-0.1c-0.4,0-0.9,0-1.3,0l-0.6,0l-0.2,0l-0.2,0l-1,0.1
				c-1.3,0.1-2.6,0.2-3.9,0.3c-2.6,0.2-5.2,0.4-7.8,0.6c-5.2,0.4-10.3,0.8-15.3,1.3c0.4,0,0.7,0,1,0c-10.6,0.8-18.7-0.3-29.1,0.2
				c0,0.2-0.4,0.3-0.9,0.4c-0.2,0-0.5,0.1-0.8,0.1c-0.1,0-0.3,0-0.3,0.1c0,0-0.1,0-0.1,0.1c-0.2-0.4-1.3-0.4-3.4-0.1
				c-2,0.3-5.2,0.7-9.3,1.2c-4.1,0.4-9.1,0.9-13.2,1.1c-2,0.1-3.8,0.2-5,0.2c-1.2,0-1.8-0.1-1.5-0.2c-0.9,0-1.7,0-2.5-0.1
				c-0.6-0.2-1-0.5-1.3-0.9c-0.2-0.2-0.3-0.4-0.3-0.7c0-0.3,0.1-0.7,0.5-1.1c0.4-0.4,1-0.6,1.5-0.8l1.8-0.6c1.2-0.4,2.3-0.8,3.5-1.1
				c4.7-1.3,9-2.3,12.5-2.9c4.9-0.9,7.9-1.1,9.7-1.7c-0.3-0.8,0.4-1.7,1-2.7c1,0.2,1.2-0.1,1.5-0.4c0.2-0.3,0.8-0.7,1.9-0.8
				c2.5,1.2,7.7,0.7,9.5,0.3c2.1-0.5,2.1-1.1-0.6-1.2c8.2-2,16.6-3.1,24.1-4.6c3.4-0.9,6.8-1.8,10.2-2.7c1.5-0.4,2.6-0.6,3.7-0.6
				c0.2,0,0.5,0,0.7,0c0.2,2.3,0.1,1.8,0,0c0.3,0,0.5,0,0.8,0.1c0.2,0,0.4,0.1,0.7,0.1l0.3,0.1l0.2,0l0.1,0c0,0,0,0,0.2,0
				c2.1-0.5,4.2-1.4,5.9-2.9c0.8-0.7,1.5-1.5,2.1-2.3c0.5-0.8,1-1.6,1.2-2.3c1.1-3.1,0.7-5.6,0-7.6c-0.8-2-2.1-3.7-3.7-5
				c-0.8-0.6-1.7-1.2-2.6-1.6c-0.9-0.4-1.8-0.7-2.7-0.9c-0.4-0.1-0.9-0.2-1.4-0.3c-0.4-0.1-0.8-0.1-1.3-0.1c-0.4,0-0.9,0-1.3,0
				c-0.2,0-0.2,0-0.4,0c-0.4,0-0.8-0.1-1.4-0.1c-1-0.1-2.4-0.1-4.4,0c-2-1.1-20,3.1-22.3,2.9l1.3-0.3c-6.7,0.3-11.9-0.6-17.7-1
				l6.1-1.9c2.7-0.9,5.2-1.8,7.9-2.8c2.4-0.9,4.5-1.8,6.8-2.8c0.3-0.1,0.5-0.2,0.7-0.3l0.6-0.3l1.2-0.7l2.5-1.4
				c1.3-0.9,2.3-1.7,3.3-2.6c1-0.6,2-1.3,3-1.9c0.5-0.3,1-0.6,1.4-0.8c0.4-0.2,0.7-0.4,1-0.6c2-2.1-0.3-1.2,0.7-2.7l1.9-0.4
				c-0.2-0.5,0-1,0.2-1.4c0.2-0.4,0.5-0.9,0.8-1.3c0.2-0.2,0.3-0.4,0.4-0.6c0.1-0.2,0.2-0.4,0.3-0.8c0.1-0.7,0.1-1.9-0.4-3
				c-0.3-0.1-0.6-0.6-0.8-1c-0.1-0.2-0.2-0.4-0.3-0.6c-0.1-0.1-0.1-0.2-0.2-0.3c0.7-0.1,0.6-0.4,0.4-0.6c-0.1-0.1-0.2-0.2-0.2-0.3
				c0-0.1,0.2-0.2,0.6-0.3l-0.1,0c-0.1-0.3-0.3-0.4-0.1-0.8c-0.3-0.1-1-0.4-2.1-0.8c-0.6-0.2-1.2-0.4-2-0.6
				c-0.8-0.3-1.8-0.5-2.7-0.8c-0.5-0.1-1.1-0.3-1.6-0.4c-0.6-0.1-1.1-0.3-1.7-0.4c-1.1-0.2-2.1-0.4-3.4-0.7
				c-2.4-0.4-4.2-0.6-4.9-0.7c-0.1-0.1-0.3-0.3-0.5-0.4c-3-0.8-6.4-0.3-5.3,0.4l-1.7-0.5l-0.4-0.1l-0.7-0.1l-1.3-0.1l0.8,0l-2.4-0.2
				l-3.3,0c-0.9-0.1-1.2-0.6,1.8-1.1c-4.6,0.4-8.8,0.6-12,0.3c3.8,0.4,8.1,0.8,12.5,1.2c0.9,0.2,1.8,0.4,2.7,0.6
				c0.6,0.3,1,0.6,1.5,1c0.4,0.3,0.9,0.6,1.3,0.9l0.3,0.2c0.1,0.1,0.1,0.2,0.2,0.2l0.3,0.5c-0.3,0-0.7-0.1-1-0.1
				c-0.3-0.1-0.6-0.1-1-0.2c-0.8-0.2-1.5-0.4-2.2-0.6c-0.7-0.2-1.5-0.4-2.2-0.7c-0.9-0.1-2-0.2-3-0.2c-0.1,0-0.2-0.1-0.4-0.1
				c-0.8-0.2-2-0.3-3.5-0.5c-1.4-0.2-3-0.4-4.8-0.5c-0.9-0.1-1.8-0.2-2.7-0.3c-0.9-0.1-1.8-0.2-2.7-0.3c-1.9-0.2-3.7-0.4-5.4-0.6
				c-0.9,0-2,0.3-3.3,0.5c-1.3,0.2-2.6,0.3-4.2-0.1c-0.5-0.5-1.6-0.5-2.8-0.6c-1.2,0-2.6-0.1-3.9-0.5c1.9-0.1,3.8,0,5.6,0.1
				c1.8,0.1,3.6,0.2,5.4,0.4c0.3-0.5-1.8-0.8-4.4-1c-2.5-0.3-5.4-0.5-6.8-0.7c-0.8,0.1-3-0.1-5.5-0.3c-2.5-0.2-5.4-0.5-7.7-0.6
				c0.5-0.2,0.6-0.4,0.3-0.5c-0.1-0.1-0.4-0.1-0.6-0.2c-0.1,0-0.3-0.1-0.5-0.1c-0.1,0-0.2,0-0.2,0l-0.1,0c-0.2-0.1-0.5-0.1-0.8-0.2
				c-0.3,0.1-0.6,0.1-1,0.1c0.1,0,0.2,0,0.3,0c0.2,0,0.4-0.1,0.6-0.1c-0.6-0.1-1.3-0.3-1.8-0.5c-1.6-0.3-2.8,0-2.2,0.4
				c-0.2,0.2,0.1,0.4,0.5,0.6c-0.5,0.1-1,0.1-1.5,0.2c-3.7,0.4-7.2,0.7-6.4,0.8c0.5,0.2,0.5,0.3,0.4,0.5c-0.2,0-0.4,0.1-0.3,0.3
				c-0.3,0.2-0.5,0.4,0.2,0.6l0.7-0.2c3.6,0.6,1.9,1.8,0.2,3.1c-1.8,1.4-3.7,2.8,0.8,3.5C57,23.2,62,23.9,66,24.2
				c0.2,0.2,0.6,0.6,1.5,0.9c0.8,0.4,1.8,0.7,3.5,1.1c2.8,0.2,1.8-0.3,2.5-0.6c1.5,0.4,4.4,1,3.6,1.6c1.3-0.3,2.1-0.1,2.9,0.2
				c0.8,0.3,1.5,0.6,2.9,0.6c2.7-0.2,0.2-0.4,2.2-0.6c3.4,0.3,8.1,0.8,10.8,1c0,0.3,0.2,0.8-0.2,1.3c-0.4,0.5-1.2,1-3.1,1.4
				c-2-0.2-1-0.5,0-0.8c1-0.3,2.1-0.6-0.6-0.6c-0.2,0.8-1.4,0.8-2.9,0.7c-1.5,0-3.3-0.2-4.4,0.3c0.6,0.7,3.2,0.9,5.9,0.9l-0.1-0.2
				c1.4,0,3.5,0,5.3,0.1c1.3,0.1,2.4,0.3,2.6,0.6c-1.7,0.4-1.7,0.8-3.4,0.8l2.4,0.2c0.7-0.1,1.5-0.3,1-0.4c2.3-0.3,3-0.1,3.2,0.2
				c-0.6,0.2,4.4-0.1,10.1-0.6c5.6-0.4,11.9-1,11-0.9c1.1,0,1.1,0.1,1.2,0.2c-2.5,0.1-6.3,0.4-9.8,0.6c-6.4,0.4-11.8,0.7-10.3,0.7
				c0,0.1,1.8,0.1,4.6-0.1c2.8-0.1,6.8-0.4,10.9-0.7c4.1-0.3,8.2-0.6,11.4-0.8c0.8,0,1.5-0.1,2,0c0.6,0.1,1,0.4,1.2,0.7
				c0.4,0.6,0.1,1.1-0.4,1.3c0.1,0.3,0.1,0.7,0,1c-0.1,0.3-0.2,0.5-0.2,0.7c-0.1,0.3,0.3,0.3,1.7,0.1C133,36,132,36,131,36
				c-1,0-2.2,0-4.1,0.6c0.3,0,1.4-0.2,0.7,0.1l-4.5,1.1c0.1,0.3-0.5,0.7-1.4,1.2c-0.5,0.2-1,0.5-1.5,0.7c-0.6,0.2-1.2,0.5-1.8,0.7
				c-2.4,0.9-4.6,1.7-4.6,2.4c-0.8-0.4-3.2-0.7-3.1-1.4l1.5-0.2c-0.3-0.1,0.7-0.7-1.5-0.6c-1.7,0.4-2.8,0.8-3.5,1.1
				c-0.7,0.3-1.1,0.6-1.2,1c-0.9,0.2-1.8,0.3-2.6,0.4c0.2,0,0.5,0,0.7,0c-1.8,0.2-1.9,0.2-2.4,0.1c-0.1,0-0.2,0-0.3,0
				c-3.2,0.2-4,0.8-5.1,1.5c-1,0.7-2.5,1.6-5.2,2c-0.5,0.4,0.5,0.1-0.1,0.6c-5.1,0.9-8.2-1.6-12-0.6c-0.2,0.8-0.1,1.1,2.3,1
				c-1.1,0.3-2.1,0.6-3.1,0.9c0.3-1.2-1.5-0.9-2.9-0.8c-0.7,0.1-1.4,0.1-1.9,0c-0.5-0.1-0.7-0.4-0.4-1c-0.5,0-1.1,0.1-1.7,0.3
				c-0.3,0.1-0.6,0.3-0.9,0.4l-0.2,0.1l-0.3,0.2c-0.3,0.2-6.9,2.3-7.2,2.5c0,0.5,0.1,1.4-2.7,2.9c-2.1,0.8-2.9,1.2-3.6,1.5
				c-0.7,0.3-1.4,0.5-3.1,1.4c-1.2,0-0.2-1-0.7-1.3c-1.1,1-1.9,1.6-2.7,2.1c-0.4,0.2-0.7,0.4-1.1,0.5c0,0-0.2,0.1-0.3,0.2l-0.4,0.3
				c-0.3,0.2-0.5,0.4-0.8,0.7c-0.5,0.5-1,1-1.4,1.5c-1.7,2.2-2.8,5.2-2.2,8.6c0.3,1.7,1.1,3.6,2.8,5.4c0.8,0.9,1.9,1.8,3.2,2.6
				c1,0.6,2.1,1,3.4,1.4l5.8,1.2C50.4,76.6,40.3,67,44.5,60c0.5-0.8,1.1-1.6,1.8-2.3c0.3-0.3,0.7-0.6,1-1l0.5-0.4l0.1-0.1l1-0.7
				l2.1-1.4c1.4-1,2.8-1.7,4.2-2.5l2.1-1.2c0.7-0.4,1.4-0.7,2.2-1.1c-0.8,0.3-1.7,0.6-2.5,0.9c-0.8,0.4-1.7,0.7-2.5,1.1
				c-0.8,0.4-1.7,0.8-2.6,1.2c-0.8,0.5-1.7,0.9-2.5,1.4c-0.8,0.5-1.7,0.9-2.5,1.4c0,0-0.1,0.1-0.2,0.2l-0.3,0.3
				c-0.2,0.2-0.4,0.4-0.7,0.6c-0.4,0.4-0.8,0.8-1.2,1.3c-0.8,0.9-1.5,2-2,3.1c-1.1,2.2-1.5,4.7-1.2,7c0.3,2.3,1.1,4.5,2.6,6.5
				c1.4,2,9.8,4.7,12.3,5.9c0.1,0,0.1,0.1,0.2,0.1c-1.2,0.4-2.5,0.9-3.6,1.3l-4.1,1.7L44.4,85c-1.4,0.6-2.7,1.2-4.1,1.8
				c-0.2,0.1-0.4,0.2-0.8,0.4c-1.2,0.7-2.5,1.4-3.9,2.2c-1,0.8-2,1.7-3.1,2.7c-0.5,0.5-1.1,1-1.7,1.5c-0.4,0.5-0.8,1-1.2,1.5
				c-0.4,0.5-0.8,1-1.1,1.5c-0.3,0.5-0.9,1.1-1,1.6c-0.5,1-1,2.1-1.5,3.2c-0.1,0.3-0.2,0.5-0.3,1c0,0.5,0,1.1,0.1,1.7
				c0.1,0.6,0.2,1.2,0.4,1.6c0.2,0.4,0.3,0.9,0.5,1.2c0.7,1.6,1.6,2.7,2.4,3.6c0.4,0.5,0.8,0.9,1.2,1.3c0.4,0.4,0.8,0.7,1.3,1.1
				c1.1,0.7,2.1,1.5,3.1,2.2c1.5,0.8,3,1.6,4.4,2.3c0.3,0.2,0.9,0.4,1.5,0.5c0.6,0.2,1.1,0.4,1.7,0.5c1.1,0.4,2.2,0.7,3.3,1.1
				l0.8,0.3l0.4,0.1l0.2,0.1c0.1,0,0.2,0,0.3,0c0.8,0.1,1.6,0.2,2.4,0.3c1.6,0.2,3.2,0.4,4.8,0.6c0.8,0.1,1.6,0.2,2.4,0.3
				c0.8,0.1,1.5,0.2,2.4,0.2c1.8,0.1,3.5,0.2,5.2,0.3c3.4,0.2,6.6,0.4,9.9,0.5c6.2,0.2,11.7,0.5,16.5,0.7c-2.4,0.7-4.9,1.3-7.4,2
				c-1,0.3-2.1,0.6-3.1,0.9c0.2-1,0.2-0.8,0,0c-0.5,0.1-1,0.3-1.5,0.4l-2.3,0.6l-1.2,0.3l-0.6,0.2l-0.5,0.2
				c-0.4,0.1-0.8,0.3-1.2,0.4c-1.6,0.6-3.2,1.7-4.3,3.1c-1.1,1.3-1.8,2.9-2.1,4.4c-0.2,1.5-0.1,3.1,0.4,4.6c0.6,1.5,1.5,2.9,2.9,4.1
				c1.4,1.1,3.1,2,4.7,2.3l0.6,0.1l0.2,0l0.3,0l0.6,0.1l2.5,0.4c0.7,0.1,1.4,0.2,2.1,0.3c0.4,1.3,0.5,1.6,0,0c2.6,0.4,5.3,0.7,7.9,1
				c1.7,0.2,3.3,0.3,5,0.5l1.3,0.1l0.6,0l0.3,0l1.4,0.1c3.7,0.1,7.7,0.2,12.2,0.1c5.2-0.1,10.9-0.3,17.5-0.6l0.8-0.4
				c1.5-0.1,2.9-0.2,4.3-0.3c0.8-0.1,1.6,0,2.2,0.2c0.7,0.3,1.2,0.7,1.4,1.1c0.3,0.4,0.3,0.9,0.2,1.1c-0.2,0.2-0.4,0.4-0.6,0.6
				c-0.4,0.4-0.9,0.9-1.5,1.3c-1.2,1-2.7,2-4.8,3.3c-2.1,1.2-4.7,2.5-7.7,3.9c-2.2,2.1-6.3,4.9-10.3,7.8c-3.9,2.8-8,5.9-8.9,7.9
				c-5,2.8-8.3,4.9-11.6,7.1c-1.6,1.1-3.3,2.2-5.1,3.4c-0.2,0.1-0.5,0.3-0.7,0.4c-0.1,0.1-0.1,0.1-0.2,0.2c-0.1,0.1-0.2,0.2-0.2,0.3
				c-0.1,0.1-0.2,0.2-0.3,0.3c-0.4,0.5-0.7,1.1-0.8,1.5c0.4-0.1,0.6,0.2,0.8,0.3l1.2,0.4c0.5,0.2,1.1,0.4,1.5,0.6c0.1,0,0,0,0.1,0
				c0,0,0.1,0,0.1-0.1c0,0,0.1-0.1,0.1-0.1c0.5,0.8,0.1,0.2,0,0c0,0,0,0,0,0c0,0,0.1,0.1,0.1,0.2l0,0l0,0l0.1,0
				c0.6-0.2,1.3-0.4,2.1-0.6l-0.4-0.3l10.2-4.5l5.1-2.3l2.5-1.1l1.3-0.6l0.6-0.3l0.9-0.4c11.1-5.3,33.2-10.8,45-16.6l2.2-1.1
				l1.1-0.5l1-0.6c0.6-0.4,1.4-0.7,1.9-1.1l1.5-1.1l0.7-0.5c0.2-0.2,0.4-0.4,0.6-0.5l1.1-1c0.8-0.7,1.3-1.3,1.9-2l0.8-1
				c0.3-0.3,0.4-0.6,0.7-0.9l1.2-1.7c0.7-1,1.2-2,1.8-3l0.7-1.3l0.3-0.6c0.1-0.2,0.2-0.4,0.2-0.8c0.1-0.8-0.1-1.9-0.4-2.9
				c-0.4-1-0.8-1.7-1.1-1.9c-0.6-0.6-1.2-1.1-1.9-1.7c-0.4-0.3-0.7-0.6-1.1-1l-1.4-1.1c-0.6-0.4-1.7-0.9-2.6-1.3l-1.4-0.7l-1.8-0.7
				l-1.9-0.7l-0.5-0.2l-0.2-0.1c-0.1,0-0.2,0-0.3-0.1l-1.4-0.2l-2.7-0.5l-1.4-0.2c-0.2,0-0.4-0.1-0.7-0.1l-0.9,0
				c-3.3,0-17.1-0.1-20.3-0.2c4.9-1.5,9.6-3,14-4.4c4.4-1.5,8-1.3,12-1.8c4.3-1.3,8.9-2.5,13.7-3.8c2.4-0.6,4.8-1.3,7.3-2l1.9-0.5
				l0.9-0.2c-0.1,0,1-0.3,1.8-0.6c0.4-0.2,0.8-0.3,1.2-0.5c0.4-0.2,0.8-0.4,1.2-0.7c0.4-0.2,0.8-0.5,1.2-0.8
				c0.4-0.3,0.8-0.6,1.1-0.9c0.7-0.6,1.4-1.4,1.9-2.1c1.1-1.6,1.8-3.3,2.1-4.9C191.5,105.4,190.7,102.2,188.6,99.4z M62.8,20.1
				c-1-0.1-0.7-0.4,0.2-0.7C63.2,19.7,63.2,19.9,62.8,20.1z M70.6,18c-0.5,0-1,0-1.5,0c0.3-0.1,0.6-0.1,0.8-0.2
				c-0.9-0.5-3.8-0.7-5.4-0.8c-0.1,0.4,0.5,0.5,0.4,0.7c-0.5,0.1-1.3,0.1-2,0.1c-0.2,0-0.5,0-0.7,0l-0.4-0.1c-0.5,0-1.1,0-1.6,0
				c-0.4-0.1-0.7-0.2-0.9-0.4c0.4-0.1,1.2,0.1,1.8,0.2c-1.3-0.2,2.2-0.7,5.7-1.2c1.4,0.5,4.3,0.9,3.9,1.4c0,0,0.1,0,0.1,0
				c0.1,0,0.3,0,0.4,0c0.1,0,0.1,0,0.1,0l1.7,0.4C72.3,18,71.4,18,70.6,18z M86.1,187.6l-0.2-0.4l-0.1-0.1l0,0l0,0
				C85.9,187.3,86,187.5,86.1,187.6C86.1,187.7,86.1,187.7,86.1,187.6z M87.5,189.3L87.5,189.3C87.5,189.3,87.5,189.3,87.5,189.3
				C87.5,189.3,87.5,189.3,87.5,189.3z M89.8,122.5c1,0,1.9-0.1,2.8-0.1c-0.3,0.1-0.5,0.1-0.8,0.2C91.3,122.6,90.6,122.5,89.8,122.5
				z"/>
			<linearGradient id="SVGID_4_" gradientUnits="userSpaceOnUse" x1="70.1427" y1="17.645" x2="70.2144" y2="17.8092">
				<stop  offset="1.582485e-02" style="stop-color:#07892F"/>
				<stop  offset="0.209" style="stop-color:#F2C000"/>
				<stop  offset="0.4441" style="stop-color:#EC7710"/>
				<stop  offset="0.6341" style="stop-color:#DB121A"/>
				<stop  offset="0.815" style="stop-color:#752C64"/>
				<stop  offset="0.9763" style="stop-color:#0E47AE"/>
			</linearGradient>
			<path class="st3" d="M70.5,17.6c-0.1,0-0.1,0-0.2,0c-0.2,0-0.3,0.1-0.5,0.1c0.1,0,0.1,0.1,0.2,0.1C70.3,17.8,70.4,17.7,70.5,17.6
				z"/>
		</g>
	</g>
	<g>
		
			<image style="overflow:visible;opacity:0.55;" width="141" height="132" xlink:href="5A67F40C113EC05E.png"  transform="matrix(1 0 0 1 31.695 46.2032)">
		</image>
		<g>
			<g>
				<g>
					<path class="st4" d="M82.8,61.1l0.3,0.1c0,0,0.3,0,0.5-0.1c0.2-0.1,0.4-0.2,0.5-0.2c0.1,0,0.2-0.3,0.2-0.3l0-0.3l0.4-0.2
						c0,0,0.3,0,0.4-0.1c0.1,0,0.5-0.3,0.5-0.3l0.4-0.3c0,0,0.3-0.2,0.4-0.1c0.1,0,0.2,0.4,0.2,0.4s0,0.2,0.3,0.2
						c0.3,0,1.1-0.2,1.1-0.2l0.4-0.2c0,0,0.9,0,0.9,0.1c0,0,0.3,0.3,0.3,0.3l0.5,0.3l0.8,0l0.4,0l0.1,0.4l0.2,0.4l0.6,0l1.2-0.3
						l0.1,0L94,61l-0.1,0.1l-0.4,0.4c0,0-0.1,0-0.1,0.2c-0.1,0.2,0,0.3,0,0.3l0.5,0.1l0.5-0.3c0,0,0.3-0.2,0.5-0.3
						c0.2,0,0.5-0.1,0.9-0.1c0.4,0,0.8,0,1.1-0.1c0.3,0,0.7,0,0.8-0.2c0.1-0.2,0.2-0.3,0.4-0.4c0.2-0.1,0.4-0.3,0.4-0.3l-0.1-0.3
						l-0.8-0.1l-0.9,0c0,0-0.1-0.2-0.1-0.3c0-0.1-0.1-0.3-0.1-0.3l-0.7-0.1l-1,0.1l-0.8-0.3l-1-0.5c0,0-0.6-0.3-0.7-0.3
						c-0.1,0-0.5,0.1-0.5,0.1s-0.6,0-0.8,0c-0.1,0-0.8-0.2-1-0.2c-0.2-0.1-0.7-0.2-1-0.2c-0.3,0-1,0.1-1,0.1l-0.6-0.1l-1.1,0.1
						l-1,0.5l-0.9,0.3l-0.4,0.5L83.6,60c0,0,0,0.3,0.1,0.3c0,0-0.2,0.2-0.3,0.2c-0.1,0-0.6,0.2-0.6,0.2S82.6,61.1,82.8,61.1z"/>
					<g>
						<path class="st5" d="M82.8,61.4c0.4,0.1,0.6,0.1,1-0.1c0.2-0.1,0.3-0.1,0.4-0.3c0.1-0.1,0.1-0.3,0.1-0.3
							c0.3-0.3,0.9-0.4,1.3-0.6c0.2-0.1,0.5-0.4,0.7-0.4c0.4,0,0.2,0.4,0.4,0.6c0.2,0.2,0.9,0,1.2-0.1c0.2-0.1,0.4-0.2,0.6-0.3
							c0.2,0,0.7,0,0.9,0.1c0.3,0.1,0.4,0.4,0.7,0.5c0.3,0.1,0.5,0.1,0.8,0c0.1,0,0.2,0,0.3,0c0.3,0.1,0.1-0.1,0.2,0.2
							c0.2,0.2,0.1,0.5,0.4,0.6c0.2,0.1,0.5,0,0.7,0c0.3,0,0.7-0.2,0.9-0.2c0.2,0,0.3,0.2,0.4,0.4c0-0.2,0-0.3,0-0.5
							c-0.3,0.3-0.7,0.6-0.7,0.9c0,0.2,0,0.4,0,0.6c0,0,0,0,0,0c0.3,0.1,0.4,0.1,0.7,0c0.4-0.2,0.6-0.5,1-0.5c0.7-0.1,1.3-0.1,2-0.1
							c0.6-0.1,0.9-0.5,1.3-0.9c0,0,0-0.4,0-0.5c-0.1-0.3-0.1-0.3-0.5-0.4c-0.3,0-0.5-0.1-0.8-0.1c-0.4,0-0.5,0.1-0.7-0.2
							c0-0.1,0-0.3-0.1-0.4c-0.1-0.1-0.5-0.1-0.6-0.1c-0.5,0-1,0.1-1.5-0.1c-0.5-0.2-1-0.4-1.5-0.7c-0.3-0.1-0.6-0.3-0.9-0.2
							c-0.3,0-0.7,0.1-1,0.1c-0.9-0.1-1.6-0.4-2.5-0.3c-0.6,0.1-1.1,0-1.7,0c-0.6,0.1-1,0.3-1.6,0.5c-0.3,0.1-0.6,0.1-0.9,0.3
							c-0.2,0.1-0.3,0.4-0.4,0.6c-0.3,0.4-0.3,0.7-0.2,1.2c0-0.2,0-0.3,0-0.5c-0.3,0.4-0.8,0.2-0.9,0.7C82.7,61,82.7,61.2,82.8,61.4
							c-0.1-0.1,0.1-0.4,0-0.5c0,0,0,0-0.1-0.1C82.7,61,82.7,61.1,82.8,61.4c0-0.6,0.7-0.4,0.9-0.8c0.1-0.2,0-0.6-0.1-0.8
							c0,0.2,0,0.3,0,0.5c0.2-0.4,0.5-0.8,0.9-1c0.5-0.2,1-0.4,1.5-0.6c0.4-0.1,0.9-0.2,1.3-0.2c0.6,0,1.2-0.1,1.8,0
							c0.8,0,1.5,0.4,2.3,0.4c0.2,0,0.5-0.1,0.8-0.1c0.2,0,0.5,0.2,0.7,0.3c0.5,0.2,0.9,0.5,1.4,0.6c0.5,0.2,0.9,0,1.4,0
							c0.1,0,0.5,0,0.6,0.1c0.1,0.1,0.1,0.1,0.2,0.3c0.2,0.4,0.2,0.3,0.6,0.3c0.3,0,0.5,0,0.7,0.1c0.4,0.1,0.5,0,0.6,0.4
							c0-0.2,0-0.3,0-0.5c-0.4,0.3-0.7,0.8-1.2,0.9c-0.7,0.1-1.4,0.1-2.1,0.1c-0.4,0-0.6,0.3-1,0.5c-0.2,0.1-0.7,0.3-0.8-0.1
							c0,0.2,0,0.3,0,0.5c0.1-0.4,0.4-0.6,0.7-0.9c0,0,0-0.5,0-0.5c-0.1-0.2-0.2-0.4-0.4-0.4c-0.3,0-0.7,0.1-0.9,0.2
							c-0.2,0-0.5,0.1-0.7,0c-0.3-0.1-0.2-0.3-0.4-0.6c-0.2-0.2,0.1-0.1-0.2-0.2c-0.1,0-0.2,0-0.3,0c-0.3,0-0.5,0-0.8,0
							c-0.3-0.1-0.5-0.4-0.7-0.5c-0.2-0.1-0.7-0.1-0.9-0.1c-0.2,0-0.4,0.2-0.6,0.3c-0.3,0.1-0.9,0.3-1.2,0.1
							c-0.3-0.2-0.1-0.5-0.4-0.6c-0.2,0-0.5,0.3-0.7,0.4c-0.4,0.3-1.1,0.3-1.3,0.6c-0.1,0.1-0.1,0.3-0.1,0.3
							c-0.1,0.2-0.2,0.2-0.4,0.3c-0.4,0.2-0.6,0.2-1,0.1C82.8,60.9,82.7,61.4,82.8,61.4z"/>
					</g>
				</g>
				<g>
					<path class="st4" d="M99.1,63.7c0,0,1-0.1,1.1-0.1c0.1,0,0.4-0.1,0.7-0.2c0.3-0.1,1.2-0.1,1.2-0.1l0.1,0.2c0,0,0.3,0.3,0.4,0.3
						c0.1,0,0.4,0,0.6-0.2c0.2-0.2,0.5-0.5,0.5-0.5l0.3-0.4c0,0,0.5-0.1,0.7-0.1c0.1,0,0.5-0.4,0.5-0.4s0.1-0.1,0.5-0.2
						c0.4-0.1,0.8,0.1,0.8,0.1c0.1,0,0.2-0.1,0.2-0.2c0,0,0-0.1,0-0.2c0-0.1-0.3-0.6-0.5-0.6c-0.2,0-0.5-0.1-0.8-0.1
						c-0.3,0-0.5,0.1-0.4-0.1c0.1-0.2,0.2-0.4,0.2-0.4c0-0.1-0.2-0.4-0.2-0.4s-0.4,0-0.7,0.1c-0.3,0-0.8,0.1-0.8,0.1l-1.2,0
						c0,0-0.2,0-0.5,0c-0.3,0.1-1,0.6-1,0.6l-0.4,0l-0.4-0.1l-0.7,0l-0.5,0.3c0,0-0.2,0.2-0.1,0.4c0,0.2,0.1,0.3,0.1,0.4
						c-0.1,0.1-0.4,0.2-0.4,0.2s-0.1,0.1,0,0.2c0.1,0.1,0,0.2,0.3,0.3c0.3,0.1,0.6,0,0.6,0l0.3-0.1c0,0,0.4-0.3,0.7-0.3
						c0.3,0,0.1,0,0.5,0c0.4,0,0.4-0.2,0.5,0.1c0.1,0.3,0,0.4,0,0.4l-0.3,0.1c0,0-0.2,0.1-0.4,0.1c-0.3,0-0.6,0.1-0.6,0.1l-0.3,0
						l-0.4,0c0,0,0,0-0.3-0.1s-0.4-0.1-0.4-0.1l-0.4,0.1c-0.1,0.1-0.1,0.2-0.1,0.2l0,0.2L99.1,63.7z"/>
					<g>
						<path class="st5" d="M99.1,63.9c0.3,0,0.6-0.1,1-0.1c0.4-0.1,0.8-0.2,1.2-0.3c0.2,0,0.5-0.1,0.7-0.1c0.2,0,0.1,0.1,0.2,0.2
							c0.3,0.4,0.7,0.4,1.1,0.1c0.2-0.1,0.3-0.3,0.5-0.4c0.1-0.1,0.2-0.3,0.3-0.3c0.3-0.2,0.7-0.1,0.9-0.3c0.3-0.2,0.6-0.4,1-0.4
							c0.2,0,0.5,0.1,0.7,0.1c0.2-0.1,0.2-0.3,0.2-0.4c0-0.3,0-0.6-0.2-0.9c-0.2-0.2-0.4-0.2-0.6-0.2c-0.1,0-0.7,0-0.7,0
							c0,0.2,0,0.3,0,0.5c0.1-0.2,0.2-0.4,0.2-0.6c0-0.1,0-0.2,0-0.3c0-0.1,0-0.2,0-0.3c-0.1-0.2-0.1-0.2-0.3-0.2
							c-0.7,0.1-1.4,0.1-2.1,0.1c-0.3,0-0.6-0.1-0.8,0c-0.4,0.1-0.7,0.4-1,0.5c-0.2,0.1-0.5,0-0.8-0.1c-0.2,0-0.5,0-0.8,0
							c-0.8,0.2-0.7,0.9-0.6,1.5c0-0.2,0-0.3,0-0.5c-0.1,0.2-0.4,0.2-0.5,0.3c-0.1,0.1,0,0.3,0,0.4c0,0.1,0,0.3,0.1,0.4
							c0.2,0.2,0.6,0.2,0.8,0.1c0.4-0.1,0.6-0.4,1-0.4c0.2,0,0.4,0.1,0.7,0c0,0,0.2-0.1,0.3-0.1c0.1,0,0.1,0.3,0.1,0.4
							c0-0.1,0-0.2,0-0.3c0,0,0,0,0,0.1c0-0.1,0-0.1,0-0.2c0,0.3-1,0.4-1.1,0.4c-0.3,0.1-0.6,0.1-0.9,0.1c-0.3,0-0.7-0.2-1.1,0
							c-0.2,0.1-0.1,0.6-0.1,0.8c0,0,0,0.1,0,0.1C98.6,63.8,98.9,63.9,99.1,63.9c0,0,0-0.5,0-0.5c-0.2,0-0.4-0.1-0.5-0.1
							c-0.1,0-0.2,0-0.2,0c0,0,0,0,0,0c0,0,0-0.1,0-0.1c0,0,0-0.1,0-0.1c0,0.1,0,0.3,0,0.4c0.2-0.4,0.7-0.2,1-0.2c0.2,0,0.4,0,0.7,0
							c0.4-0.1,0.8-0.1,1.2-0.3c0.2-0.1,0.3-0.1,0.4-0.3c0-0.2,0.1-0.7-0.1-0.8c0,0-0.2,0.1-0.2,0.1c-0.1,0-0.2,0-0.4,0
							c-0.2,0-0.3,0-0.5,0c-0.3,0.1-0.5,0.3-0.8,0.4c-0.2,0-0.4,0-0.5,0c-0.3-0.1-0.4-0.1-0.4-0.4c0,0.2,0,0.3,0,0.5
							c0-0.3,0.4-0.2,0.5-0.5c0-0.3-0.1-0.5-0.1-0.8c0,0.2,0,0.3,0,0.5c0.1-0.6,0.8-0.7,1.3-0.7c0.3,0,0.5,0.2,0.8,0.1
							c0.3-0.1,0.6-0.3,0.8-0.5c0.5-0.3,1.2-0.1,1.8-0.1c0.3,0,0.6,0,0.9-0.1c0.2,0,0.5-0.1,0.7-0.1c0.1,0,0.2,0.3,0.2,0.3
							c0-0.2,0-0.3,0-0.5c0,0.2-0.2,0.4-0.2,0.7c0,0.1,0,0.4,0,0.5c0.1,0,0.4,0,0.5,0c0.2,0,0.4,0,0.6,0.1c0.2,0.1,0.5,0.3,0.5,0.6
							c0-0.2,0-0.3,0-0.5c0,0.2-0.1,0.4-0.3,0.4c-0.1,0-0.2,0-0.3-0.1c-0.2,0-0.4,0-0.5,0c-0.4,0.1-0.6,0.2-0.9,0.4
							c-0.3,0.2-0.7,0.1-0.9,0.3c-0.1,0.1-0.2,0.2-0.3,0.3c-0.1,0.2-0.3,0.3-0.5,0.4c-0.4,0.3-0.8,0.2-1-0.1
							c-0.1-0.1-0.1-0.2-0.2-0.2c-0.2,0-0.5,0-0.7,0.1c-0.4,0-0.8,0.2-1.2,0.3c-0.3,0-0.6,0.1-1,0.1C99.1,63.4,99.2,63.9,99.1,63.9z
							"/>
					</g>
				</g>
				<g>
					<path class="st4" d="M163.8,91.8c-0.2-0.4-0.3-0.7-0.2-0.9c0.1-0.2,0.2-0.3,0.1-0.6c-0.1-0.2-0.6-0.7-0.6-0.7l-0.4-0.8
						l-0.4-0.4l-0.7-0.3l-1.1,0.1c0,0-0.5,0.2-0.6,0.1c-0.2,0-0.8-0.3-0.8-0.3s-0.6-0.5-1-0.9c-0.4-0.5-1.1-0.9-1.1-0.9l-0.3,0.1
						l-0.7-0.2l-0.4-0.1l-2.3,0.5l-0.8,0l-0.8,0.1l-1.4-0.3l-0.8,0.5l-0.1,0.3l-0.5,0.1l-0.2,0.3l-0.2,0.4c0,0-0.6,0-0.6-0.1
						c0-0.1-0.3-0.4-0.2-0.6c0.1-0.1,0.6-0.4,0.6-0.4l0.2-0.3c0,0-0.2-0.4-0.3-0.6c-0.1-0.2-0.6-0.9-0.6-0.9l-0.5,0.1l-0.2,0.3
						c0,0-0.4-0.1-0.5-0.3c0-0.1-0.3-0.3-0.3-0.3l-1.3,0l-1.5,0l-0.6,0.2c0,0-0.2,0.3-0.2,0.4c0,0.1-0.8,0.8-0.8,0.8l-0.2,0.4
						l-0.5,0.3l-1.9,0.6l-1.6-0.1l-0.3-0.2l-0.8,0.1l0.3-0.8l0.4-0.6l0.2-0.8c0,0,0-0.4,0.3-0.7c0.2-0.2,0.6-0.6,0.6-0.6l0.9-0.7
						c0,0,0,0,0-0.2c0-0.2,0.1-0.5,0.1-0.6c0.1-0.1,0.1-0.6,0.1-0.6l-0.9-0.5l-0.6-0.7c0,0-0.3-0.8-0.4-0.9
						c-0.1-0.2-0.9-1.1-0.9-1.1l0-0.4l-0.2,0l-0.6,0l-0.4-0.3l-0.8-0.8l-0.9-0.1c0,0-0.4,0.2-0.8,0c-0.2-0.1-0.4-0.1-0.6-0.2
						c-0.3-0.1-0.5-0.1-0.6-0.1c-0.2,0-0.8,0.1-0.8,0.1l-0.7,0.3l-1.4,0.2l-0.4-0.3l-0.3,0c0,0-0.2,0.1-0.4-0.1c0,0-0.1-0.1-0.1-0.1
						c-0.2-0.3-0.8-0.6-0.8-0.6l-0.7,0c0,0-0.4,0-0.5-0.2c-0.1-0.1-0.4-0.7-0.5-1c-0.1-0.3-0.3-0.5-0.5-0.7c-0.2-0.2-0.8-0.5-1-0.4
						c-0.1,0-0.4,0.1-0.5,0.2c-0.1,0.1-0.2,0.1-0.2,0.1l-0.7,0.1l-0.4-0.5l0.1-0.6l-1-0.6l-0.8-0.3l-0.8,0.2l-0.5,0l-0.6-0.5
						c0,0,0-0.1,0.2-0.2c0.1-0.1,0.2-0.1,0.3-0.2c0.1-0.1,0.2-0.2,0.2-0.2l-0.5-0.3c0,0-0.4,0-0.6,0.1c-0.3,0.1-0.8,0.2-0.8,0.2
						l-0.5,0.4l-0.9,0.1c0,0-0.1,0-0.1,0.1c0,0.1-0.2,0.3-0.3,0.4c-0.1,0.1-0.4,0.3-0.4,0.3L114,73c0,0-0.5-0.3-0.6-0.4
						c-0.1-0.1-0.3-0.1-0.3-0.1l-1.3,0.2l-0.4,0.3l-0.7,0.2c0,0-0.3,0.3-0.4,0c-0.2-0.3-0.3-0.7-0.3-0.7l-0.5-0.4l-1.1,0.1l-0.5-0.3
						c0,0-0.2-0.3-0.2-0.4c-0.1-0.1-0.5-0.2-0.5-0.2s-0.3,0.1-0.3,0.2c0,0.1,0,0.4,0.1,0.6c0,0.2-0.2,0.6-0.2,0.6l-0.6,0.4l0,0.3
						c0,0,0,0.6,0,0.7c0,0.1,0,0.4,0.3,0.5c0.2,0.2,0.4,0.3,0.4,0.3s0.1,0,0.1,0.3c0,0.2-0.1,0.3-0.1,0.4c0,0.1-0.5,0.5-0.6,0.4
						c-0.1,0-0.8-0.3-0.8-0.3l-0.2-0.7c0,0,0.1-0.3,0.2-0.4c0.1-0.1-0.1-0.8-0.1-0.9c0-0.1-0.4-0.4-0.4-0.4s-0.3-0.3,0.1-0.6
						c0.2-0.1,0.4-0.2,0.5-0.3c0.1,0,0.1-0.1,0.2-0.1c0.1-0.1,0.2-0.3,0.2-0.3l-0.1-0.3l-0.8-0.5l-0.6,0.4l-0.3,0.3l-0.1,0.4
						l-0.2,0.5c0,0-0.3,0.4-0.7,0.7c-0.4,0.3-0.8,0.5-0.8,0.5s-0.3,0-0.5,0.1c-0.1,0-0.3,0.2-0.3,0.2l-0.2,0.2l-0.4-0.2l0-0.2
						l-0.4,0.1l-0.2,0.3l-0.2,0.6l-0.2,0.7l0.3,0.8L99.7,77l-0.5,0.3l0,0.5L99,78.2l-0.3,0.2l0,0.3c0,0,0.2,0.4,0.2,0.5
						c0,0.1-0.1,0.3-0.1,0.3l-0.3,0l-0.3-0.4c0,0,0-0.2-0.1-0.4c0-0.1-0.1-0.1-0.2-0.2c-0.1-0.1-0.3-0.2-0.5-0.3
						c-0.3-0.2-0.6-0.5-0.8-0.6c-0.2-0.1-0.5-0.1-0.5-0.1l-1,0.2l-0.6,0.1l-0.3,0.3c0,0-0.4,0.3-0.9,0.5c-0.4,0.3-0.7,0.5-0.9,0.5
						c-0.2,0-1,0.2-1,0.2l-0.9,0.1c0,0,0.1-0.2-0.2-0.6c-0.1-0.1-0.2-0.2-0.3-0.3c-0.2-0.1-0.3-0.2-0.5-0.3
						c-0.2-0.2-0.7-0.2-1.1-0.4c-0.4-0.2-0.6-0.2-0.7-0.5c-0.1-0.1-0.1-0.3-0.2-0.5c0-0.1-0.1-0.2-0.1-0.2l0.3-0.5
						c0,0,0.1-0.3-0.1-0.6c-0.2-0.3-0.9-0.9-0.9-0.9l0.2-0.1c0,0,0.4,0,0.5-0.1c0.1-0.1,0.1,0,0.2-0.2c0-0.2-0.1-0.5-0.1-0.5
						l-0.3-0.4L87.1,73c0,0-0.3-0.4,0-0.7c0.3-0.3,0.4-0.5,0.4-0.5L87.4,71L87,70.3l-0.1-0.2l-0.6,0l-0.4-0.3l-0.7-0.2l-0.8,0.1
						l-0.6,0.2L83,69.7l-0.5,0.3l-0.9,0.2l-1.3,0.3l-0.2-0.1l-0.1-0.1l-0.5,0.4l-0.7,0.3l-0.4-0.2c0,0,0-0.1,0.1-0.2
						c0.1-0.1,0.1-0.2,0.2-0.3c0.2-0.2,0.4-0.4,0.4-0.4l-0.1-0.9l-0.4-1.4l0-0.7c0,0,0-0.1,0-0.2c0-0.1,0.1-0.1,0.1-0.1
						c0.1,0,0.4,0,0.4,0l0.4-0.1l0.2-0.4l0.1-0.8l-0.5-0.3c0,0-0.1,0.1-0.1-0.1c0.1-0.2,0.2-0.3,0.2-0.3s0-0.2-0.1-0.6
						c-0.1-0.3-0.3-0.3,0-0.6c0.3-0.3,0.4-0.4,0.4-0.4l-0.2-0.8c0,0-0.3-0.2-0.7-0.1c-0.4,0.1-1.4,0.4-1.4,0.4l-0.6,0.6l-1.2,0.4
						c0,0-0.3,0.1-0.2,0.2c0,0.1,0,0.3,0.1,0.3c0,0.1,0.1,0.3,0.1,0.3l-0.2,1.2l0.1,0.5l-0.1,0.4l-0.4,0.2l-0.3,0.2l0.2,0.5l0,0.3
						c0,0-0.1,0.1-0.5,0.3c-0.4,0.2-0.8,0.4-0.8,0.4l-0.1-0.2l-0.3-0.2l-0.6,0.1L72.4,68L71,68.5c0,0-0.2,0.2-0.5,0.1
						c-0.3,0-0.4-0.1-0.4-0.1l-0.2,0l-0.9-0.1l-1-0.3c0,0-0.2-0.1-0.4-0.3c-0.3-0.3-0.7-0.5-0.7-0.8c-0.1-0.3,0.2-0.3-0.1-0.6
						c-0.3-0.3-0.7-0.4-0.8-0.4c-0.1,0-0.4-0.1-0.4-0.1s0.1-0.4,0.2-0.6c0.1-0.2,0.2-0.4,0.2-0.4l-0.1-0.4l-0.3-0.5l-0.4-0.6
						c0,0-0.6-0.9-0.5-1.1c0-0.2,0.2-0.6,0.2-0.7c0-0.1-0.5-0.6-0.5-0.6l-0.2-0.6l0-0.6l0.4,0.1c0,0,0.4,0.1,0.5,0
						c0.1-0.1,0.1-0.3,0.1-0.3S65,59.1,65,59c0-0.1,0-0.1-0.1-0.2l0,0L64,58.3l-1.2-0.2L62.1,57l-2.5-2.7l-0.7-0.6l-1.3,0.1L57,54.1
						l-0.4,0.6l-0.5,0.5l-0.5,0.2l-0.8-0.1l-0.6-0.6l-0.8-1l-2-1.3l-1.8,0.4l-0.4,0.5l-3.5,0.5l-4.9-0.6L40.6,53l-2.8,0.6
						c0,0.1,0,0.1,0,0.2c0.1,0.3,0.2,0.9,0.2,0.9l0.4,1c0,0,0.4,1.5,0.8,1.7c0.3,0.2,0.9,0.3,1,0.4c0.1,0.1,1,0.4,1.2,0.7
						c0.2,0.3,0.4,0.5,0.5,0.6c0.1,0.1,0.1,0.8,0.1,0.8s0.1,0-0.1,0c-0.3,0-0.6,0-0.6,0L40.5,60c0,0-0.3,0.1-0.1,0.3
						c0.2,0.2,0.4,0.4,0.5,0.4c0.2,0,0.7,0.3,0.7,0.3s0.5,0.3,0.7,0.3c0.2,0,0.5-0.1,0.5-0.1s0-0.2,0.3-0.1c0.3,0.1,0.3,0.1,0.5,0.2
						c0.3,0.1,0.6,0.2,0.7,0.3c0.1,0.1,0.4,0.2,0.4,0.4c0.1,0.3,0.2,0.7,0.2,0.7s-0.3-0.1-0.1,0.6c0.1,0.7,0.1,0.7,0.7,0.9
						c0.7,0.2,1.8,1.2,2,1.3c0.2,0.1,0.4,0.5,0.6,0.3c0.2-0.2,0.5-0.7,0.5-0.7s-0.6-0.6-0.7-0.6c-0.1-0.1-1.1-0.6-1.1-0.6
						s-0.3,0-0.3-0.2c-0.1-0.3-0.1-0.5-0.1-0.5s-0.1-0.2-0.2-0.4c-0.1-0.2-0.3-0.5-0.3-0.5s-0.1-0.3-0.2-0.8
						c-0.1-0.5-0.4-0.9-0.4-0.9l-0.8-0.3c0,0-0.2-0.1-0.6-0.6c-0.3-0.5-0.5-0.5-0.6-0.8c-0.1-0.2-0.1-0.5-0.3-0.7
						c-0.2-0.2-0.2-0.2-0.7-0.6c-0.5-0.4-0.7-0.6-1-0.9c-0.3-0.3-0.5,0-0.6-0.6c-0.1-0.6-0.1-0.5-0.2-1C40.8,54.8,41,54,41,54
						s0.3,0.2,0.5,0.3c0.2,0,0.8,0,0.8-0.1c0.1,0,0.4,0,0.5,0.3c0.1,0.2,0.2,0.6,0.2,0.6s-0.5-0.3,0,0.4c0.6,0.7,1,1.2,1,1.2
						s0.8,1.3,1.1,1.5c0.4,0.2,0.4,0.2,0.9,0.5c0.5,0.3,1,0.1,0.6,0.4c-0.3,0.3-0.3,0.1-0.3,0.3c0,0.2,0.2,0.5,0.4,0.5
						c0.2,0,0.4,0,0.7,0.1c0.3,0,0.2-0.1,0.3,0c0.1,0.1-0.1,0.3,0.4,0.3c0.5,0,0.5,0,0.5,0c0.1,0.3,0.2,0.2,0,0.4
						c-0.1,0.2-0.4,0.5-0.5,0.6c0,0.1,0.1,0.6,0.1,0.6s0.2,0.1,0.5,0c0.3-0.1,0.8-0.2,1-0.1c0.2,0.1,0.7,0.6,0.7,0.6
						c0,0.1,0.3,0.6,0.5,0.7c0.2,0.1,0.6,0.3,0.6,0.3c0,0.1,0.5,0.6,0.6,0.8c0.1,0.1,0.7,0.7,0.8,0.8c0.2,0.1,1.3,0.6,1.4,0.7
						c0.1,0.1,0.2,0.6,0.2,0.9c-0.1,0.3-0.1,0.9-0.2,1c-0.1,0.1-0.3,0.7-0.3,0.7s0.2,0.7,0.3,0.7c0,0.1,0.2,0.5,0.3,0.6
						c0.2,0.1,1.8,0.9,1.8,0.9s0.6-0.1,0.8,0c0.1,0.1,0.6,0.5,0.6,0.5l1.1,0.2l0.8,0l1.4,0.4c0,0,1.6,0.2,1.6,0.2
						c0,0.1-0.1,0.4,1.1,0.6c1.2,0.2,2.3,0.3,2.5,0.4c0.2,0.1-0.4,0.5,0.7,0.3c1.1-0.2,1.4,0,1.9-0.3c0.5-0.2,0.8-0.2,1-0.5
						c0.3-0.3,0.5-0.5,0.7-0.6c0.1-0.1,1.9,0.1,1.9,0.1l1.3,0.8c0,0,0.1,0.2,0.2,0.4c0.1,0.2,0.3,0.5,0.4,0.6
						c0.2,0.2,0.3,0.4,0.9,0.7c0.6,0.3,1.1,0.4,1.3,0.3c0.2-0.1,0.4-0.3,0.7-0.2c0,0,0,0,0.1,0c0.3,0,0.9,0.2,0.9,0.2l0.5,0.3
						l1.5-0.1c0,0,0.2-0.1,0.6-0.3c0.1,0,0.2-0.1,0.3-0.1c0.3-0.1,0.5-0.1,0.6,0c0,0.1,0.1,0.3,0.2,0.4c0,0.1,0.1,0.2,0.1,0.2
						c0,0.1,0.3,0.8,0.3,0.8l0.6,0.4c0,0,0.4,0.3,0.8,0.8c0.2,0.2,0.4,0.4,0.5,0.6c0.1,0.2,0.2,0.3,0.2,0.3l0,0.5
						c0,0-0.2,0.2,0.1,0.4c0.4,0.2,0.8,0.4,0.8,0.4L86,79c0,0,0.2-0.4,0.2-0.4c0.1,0,0.5,0,0.5,0s0.2,0.3,0.3,0.4
						c0,0.1,0.5,0.3,0.5,0.3l0.6,0.3l0.2,0.7l0.2,0.2c0,0,0.2-0.1,0.3-0.2c0-0.1,0.1-0.2,0.1-0.1c0.1,0.1,0.3,0.2,0.3,0.3
						c0.1,0.1-0.2,0.4,0.2,0.4c0.1,0,0.3,0,0.4-0.1c0.3-0.1,0.5-0.1,0.7-0.1c0.3-0.1,1.4-0.1,1.4-0.1s0,0.1,0.2,0.2
						c0.2,0.1,0.6,0,0.6,0l0.4,0.4c0,0,0.7,0.3,0.8,0.2c0.1-0.1,0.2-0.2,0.2-0.3s0-0.3-0.2-0.5c-0.2-0.2-0.4-0.3-0.3-0.5
						c0.1-0.2,0.2-0.2,0.4-0.3c0.2-0.1,0.4-0.1,0.4-0.2c0-0.1-0.1-0.4-0.1-0.4s-0.2-0.1,0-0.3c0.2-0.2,0.6-0.4,0.7-0.4
						c0.2-0.1,0.6,0.1,0.8,0.1c0.1,0,0.3,0.1,0.4,0.2c0.1,0.1,0.3,0.2,0.3,0.3c0.1,0.1,0,0.4,0,0.4s0,0.4,0.1,0.5
						c0.1,0.1,0.4,0.5,0.5,0.8c0.1,0.1,0.1,0.2,0.1,0.2s0.1-0.1,0.2,0.2c0.1,0.3,0.1,0.5,0.2,0.4c0.1,0,0.3,0,0.4,0.1
						c0.1,0.1,0.5,0.6,0.5,0.8c0,0.1,0.2,1.1,0.2,1.2c0,0.1,0.2,0.5,0,0.8c-0.1,0.3-0.2,0.5-0.2,0.6c0,0.1,0.4,0.5,0.4,0.5l0.4,0.2
						l-0.3,0.4c0,0-0.4,0-0.5,0.4c0,0.4,0,0.6-0.1,0.7c-0.1,0.1-0.6,0.3-0.6,0.3s-0.4,0-0.6,0.3c-0.2,0.3-0.3,0.3-0.2,0.6
						c0.1,0.2,0.4,0.4,0.4,0.4s0.3,0.2,0.2,0.3c-0.1,0.1-0.2,0.3-0.3,0.4c-0.1,0.1-0.3,0-0.2,0.3c0,0.2,0.1,0.4,0.2,0.5
						c0.1,0.1,0,0.5-0.1,0.6c-0.1,0.1-0.4,0.4-0.4,0.4s-0.2,0.1-0.3,0c-0.1-0.1-0.3-0.1-0.3-0.1s-0.3,0-0.4,0.2
						c-0.1,0.2-0.1,0.3-0.2,0.6c0,0.2,0,0.7,0,0.7l-0.2,0.8l-0.4,0.7l0.3,1.5c0,0-0.2,0.1-0.1,0.5c0.1,0.4,0.2,0.4,0.2,0.4l0.5-0.1
						c0,0,0.3-0.3,0.5-0.3c0.1-0.1,0.4-0.2,0.5-0.1c0.1,0.1,0.3,0.6,0.3,0.6s-0.4,0.4-0.7,0.6c0,0,0,0,0,0c-0.3,0.2-1,0.7-1.1,0.9
						c-0.1,0.2-0.6,0.4-0.5,1c0.1,0.5,0.3,0.9,0.4,0.9c0.1,0,0.2,0,0.4,0.2c0.1,0.1,0.4,0.4,0.4,0.5c0.1,0.1,0.2,0.4,0.1,0.5
						c-0.1,0-0.4,0.1-0.4,0.3c-0.1,0.2-0.2,0.1-0.1,0.3c0.1,0.2,1.1,0.5,1.1,0.5l0.7,0.2l0.9,0.7c0,0,0.6,0.8,0.7,1
						c0.1,0.2,0.4,0.3,0.5,0.3c0.1,0.1,0.7,0.6,0.7,0.7c0,0.1,1.5,2.8,1.5,2.8s0.3,0.9,0.4,1c0.1,0.1,0.6,0.5,0.7,0.5
						c0.1,0.1,0.4,0.5,0.4,0.7s-0.1,0.5,0.1,0.5c0.2,0.1,1,0.6,1,0.6s0.5,0.5,0.5,0.7c0,0.2-0.1,0.3-0.2,0.4
						c-0.1,0.1-0.2,0.5-0.2,0.5s0.5,0.4,0.5,0.5c0,0.1,1.6,1.2,1.6,1.2l1.4,0.6l1.7,0.3l1.7,0.9l1.1,0.8l1.3,0.7c0,0,0,0.1,0,0.1
						c0,0.2,0.1,0.6,0.2,0.9c0.1,0.4,0.2,0.8,0.2,0.8l0.3,1l-0.1,1.4c0,0,0.2,0.9,0.2,1.2c0,0.2,0.1,0.8,0,1
						c-0.1,0.2-0.3,0.6-0.2,0.9c0.1,0.3,0.3,0.4,0.3,0.5c0,0.1,0.1,0.9,0.1,0.9l-0.2,0.8l0.3,0.9l0,0.5l-0.3,0.5l0.2,0.9l0,1
						l-0.6,0.6l0,0.6l-0.2,2c0,0,0.3,0.2,0.3,0.4c0,0.3-0.2,0.9-0.2,0.9l-0.4,0.5c0,0,0,0.4,0.2,1.3c0.2,0.9,0.6,2,0.6,2
						s0.3,0.4,0.1,0.9c-0.2,0.5-0.4,1.1-0.4,1.1s-1.3,2.4-1.2,2.5c0,0.1,0.1,0.4,0.1,0.5c0,0.1-0.5,0.9-0.5,0.9s0.1,0.5,0,0.6
						c-0.1,0.1-0.4,0.2-0.5,0.4c-0.1,0.1,0,0.3,0,0.8c0,0.5,0.1,0.9,0.2,1.3c0.1,0.4,0.5,0.7,0.5,0.9c0,0.1-0.2,0.9-0.2,0.9
						l-0.5,1.4c0,0,0.3,0.7,0.4,0.8c0.1,0,0.7,0.1,0.7,0.1l0.6,0.4l-0.1,1l-0.3,1.3l0,1.1l0.2,0.2c0,0-0.3,0.3-0.4,0.4
						c0,0.1-0.1,0.3-0.1,0.3l0.1,0.5l-0.3,0.6l0.1,0.9l-0.1,0.2c0,0-0.5,0.1-0.6-0.2c-0.1-0.3-0.4-0.7-0.4-0.7l-0.6,0.2l-0.2,0.3
						c0,0-0.4,0.4-0.4,0.5c0,0.1,0.1,0.3,0.2,0.2c0.2-0.1,0.5-0.3,0.5-0.3s0.3,0,0.5,0.2c0.2,0.1,0.6,0.3,0.6,0.3l-0.6,0.8l0.1,0.8
						c0,0-0.4,0.7-0.4,0.8c0,0.2-0.3,0.4-0.3,0.4l-0.2,0.2l0,0.7l0.3,0.1l0.5-0.1l0.4,0l-0.3,0.7l0.2,0.4c0,0,0.2-0.1,0.4-0.3
						c0.3-0.2,0.4-0.4,0.4-0.1c0,0.4-0.4,0.9-0.4,1c0,0.1,0.2,0.7,0.2,0.7s0.4,0.3,0.6,0.1c0.3-0.2,0.5-0.3,0.5-0.3s0.4,0,0.3,0.2
						c-0.1,0.2-1.2,0.9-1.1,1c0,0.1,0.3,0.5,0.3,0.5l0.9,0.2l0.3,0.4c0,0-0.3,0.3,0,0.5c0.3,0.2,1.1,0.4,1.2,0.4
						c0.1,0,1.4,0.1,1.4,0.1s0.6-0.2,1.1-0.3c0.2-0.1,0.4-0.1,0.5-0.1c0.4,0,1.6-0.1,1.8-0.2c0.2-0.1,0.4-0.2,0.4-0.3
						c0-0.1-0.3-0.3-0.5-0.3c-0.2,0-1.2-0.1-1.2-0.1s-0.8-0.4-0.8-0.6c0-0.2,0-0.1,0-0.4c0-0.2-0.4-0.4-0.6-0.5
						c-0.1,0-0.2-0.1-0.2-0.1s-0.7,0.2-0.5-0.1c0.1-0.1,0.1-0.2,0.1-0.2c0-0.1,0-0.1,0.3-0.3c0.3-0.2,0.5-0.1,0.4-0.4
						c-0.1-0.3-0.3-0.4-0.4-0.6c-0.1-0.2-0.2-0.2-0.2-0.3c0-0.1,0.5-0.5,0.7-0.8c0.2-0.3,0-0.1,0.5-0.6c0.5-0.5,0.4-1.3,0.4-1.3
						s0.2-0.2,0.7-0.6c0.5-0.4,0.5,0.2,1.3-1c0.9-1.1,0.9-1.3,0.9-1.3l-0.9-0.3l-1.3-1.1c0,0-0.2-0.4,0-0.7c0.2-0.3,0.5-0.7,0.5-0.7
						l1.5-0.7l0.7-1.1l0-0.9l0.4-0.9c0,0,0.2-0.4,0.6-0.5c0.4-0.1,0.4,0,0.5-0.2c0.1-0.2,0.1-0.8,0.1-0.8s-0.2-0.1-0.4-0.1
						s-0.1,0-0.3,0.2c-0.2,0.2-0.5,0.3-0.5,0.3s-0.4-0.2-0.4-0.3c0-0.1,0.1-0.3,0.2-0.4c0-0.1,0.1-0.1,0-0.4c-0.1-0.3-0.1-1-0.1-1
						l0.8,0c0,0,0.3,0.1,0.5,0.1c0.1,0,1-0.1,1-0.1s0.3-0.3,0.4-0.4c0.1-0.1,0.3-0.4,0.4-0.6c0.1-0.2,0.2-0.3,0.3-0.6
						c0.2-0.3,0.5-0.6,0.4-0.8c-0.1-0.2-0.5-0.7-0.5-0.7l0.2-0.3l0.2-0.1l1-0.1c0,0,1.5-0.5,1.9-0.7c0.4-0.3,1.3-0.4,1.6-0.6
						c0.3-0.3,0.5-0.4,0.8-0.8c0.2-0.4,0.2-0.7,0.4-0.9c0.3-0.3,0.3-0.2,0.5-0.4c0.2-0.2,0.4-0.6,0.4-0.6s0.1-0.2,0-0.3
						c-0.1-0.1-0.3-0.3-0.3-0.3s-0.3-0.3-0.3-0.5c0-0.2,0.1-0.4,0.1-0.4s0.1-0.4,0-0.5c-0.1-0.1-0.9-0.6-0.9-0.6l-0.7-0.4l0.3-0.2
						c0,0,0,0,0,0c0.1,0,0.2,0,0.5,0c0.4,0,1.3,0,1.3,0s1.3,0.1,1.7,0c0.4-0.1,1.3,0,1.8-0.5c0.5-0.5,0.5-0.3,1-1.1
						c0.4-0.7,0.3-1,0.7-1.6c0.1-0.1,0.2-0.3,0.4-0.5c0.8-0.9,0.9-1,1.2-1.3c0.3-0.3,0.6-0.7,0.9-1.1c0.3-0.4,0.4-1.3,0.7-1.7
						c0.3-0.4,0.8-0.8,1.2-1.2c0.5-0.5,1.8-2.2,1.8-2.2s0.3-0.8,0.2-1.4c-0.1-0.5-0.4-1.3-0.4-1.3s-1.1-0.1-0.1-1.1
						c1-1,1.1-1,1.2-1.3c0.2-0.3,0.7-1.2,0.9-1.3c0.2-0.2,0.1,0,0.9-0.3c0.8-0.3,0.7,0,1.1-0.5c0.4-0.4,0.9-1,0.9-1l1.5-1.1
						c0,0,0.9-0.1,1.3-0.2c0.4-0.1,1,0.3,1.4-0.3c0.4-0.6,0.5-0.9,0.8-1.1c0.2-0.2,0.5,0.1,0.6-0.7c0.1-0.8,0-0.9,0.3-1.4
						c0.4-0.5,0.5-0.5,0.7-0.9c0.1-0.3,0-0.6,0.1-0.9c0.1-0.3,0.6-0.8,0.7-1c0.1-0.2,0.3-0.4,0.2-0.9c-0.1-0.5-0.3-0.5-0.2-1
						c0.1-0.5,0.5-0.8,0.5-0.8s0.2-0.2,0.3-0.5c0.1-0.3,0.2-0.8,0.2-0.8l0.2-0.7c0,0-0.6-2.3-0.5-2.5c0.1-0.2,0.4-1.5,0.4-1.5l0-1.2
						c0,0-0.2-0.5,0.1-0.7c0.3-0.2,0.3-0.2,0.4-0.2c0.1,0,0.2,0.2,0.5-0.1c0.3-0.2,0.6-0.9,0.6-1c0.1-0.2,0.2-0.7,0.2-0.7l0.3-1
						c0,0,0.4-0.4,0.6-0.6c0.2-0.2,0.4-0.6,0.4-0.6l1.3-2.8c0,0,0.7-1,0.7-1.3C164,92.3,163.9,92.2,163.8,91.8z"/>
					<g>
						<path class="st5" d="M163.8,91.6c-0.1-0.2-0.2-0.4-0.2-0.7c0,0.2,0,0.3,0,0.5c0-0.4,0.2-0.6,0.1-1c-0.1-0.5-0.3-0.6-0.6-1
							c-0.2-0.3-0.2-0.6-0.4-0.8c-0.9-1.4-2.4-0.1-3.6-0.9c-0.6-0.4-1-1-1.5-1.4c-0.4-0.4-0.4-0.3-0.9-0.3c-0.7-0.1-1.1-0.3-1.8-0.1
							c-1.4,0.3-2.6,0.4-4,0.2c-0.7-0.1-1.2,0.4-1.6,0.7c-0.2,0.1-0.2,0.1-0.4,0.3c-0.1,0.1-0.1,0.3-0.2,0.4
							c-0.4,0.3-0.8-0.2-0.8-0.6c0,0.2,0,0.3,0,0.5c0.3-0.3,0.5-0.4,0.8-0.7c0,0,0-0.5,0-0.5c-0.2-0.4-0.4-0.9-0.7-1.2
							c-0.3-0.3-0.2-0.3-0.6-0.2c-0.1,0-0.1,0.3-0.2,0.3c-0.2,0-0.3-0.2-0.5-0.3c-0.2-0.2-0.3-0.3-0.5-0.3c-0.5-0.2-1.4,0-1.9,0
							c-0.7,0-1,0-1.4,0.6c-0.3,0.4-0.8,1-1.1,1.3c-0.4,0.4-1.2,0.5-1.7,0.6c-1.1,0.4-2.1-0.2-3.2,0c0,0.2,0,0.3,0,0.5
							c0.2-0.5,0.4-0.9,0.6-1.3c0.2-0.5,0.2-1,0.5-1.5c0.3-0.5,1.1-0.8,1.4-1.2c0.2-0.4,0.3-1,0.3-1.4c0-0.1,0-0.5,0-0.5
							c-0.6-0.3-1.1-0.6-1.5-1.2c-0.4-0.7-0.8-1.4-1.3-2c0,0.1,0,0.3,0,0.4c0-0.1,0-0.3,0-0.4c0,0,0-0.4,0-0.4
							c-0.6,0-0.9-0.1-1.4-0.5c-0.6-0.5-0.8-0.7-1.6-0.6c-0.9,0-1.8-0.4-2.8-0.2c-0.6,0.2-1.2,0.6-1.9,0.5c-0.3,0-0.3-0.2-0.6-0.3
							c-0.3-0.1-0.6,0-0.9-0.3c-0.4-0.2-0.5-0.4-0.9-0.5c-0.3,0-0.7,0.1-1-0.1c-0.7-0.6-0.7-2.2-2-2.1c-0.9,0-1.1,0.8-1.8-0.1
							c0,0.2,0,0.3,0,0.5c0-0.2,0-0.4,0.1-0.6c0-0.1,0-0.5,0-0.5c-0.5-0.3-1.2-0.9-1.8-0.9c-1,0-1,0.3-1.9-0.4c0,0.2,0,0.3,0,0.5
							c0.2-0.2,0.5-0.4,0.7-0.6c0,0,0-0.5,0-0.5c-0.8-0.4-1.5-0.1-2.2,0.3c-0.3,0.1-0.6,0.1-1,0.2c-0.4,0.1-0.3,0.2-0.6,0.5
							c-0.3,0.2-0.7,0.4-1,0.4c-0.3,0-0.5-0.3-0.9-0.4c-0.6-0.1-1.3,0.2-1.9,0.4c-0.2,0.1-0.6,0.3-0.8,0.3c-0.5,0-0.4-0.5-0.8-0.8
							c-0.5-0.6-1-0.1-1.6-0.3c-0.5-0.1-0.9-1.2-1.4-0.6c-0.1,0.2,0,1,0.1,1.1c0-0.2,0-0.3,0-0.5c-0.1,0.6-0.4,0.7-0.9,1
							c0,0,0,0.4,0,0.5c0,0.1,0,0.2,0,0.3c0-0.1,0-0.2,0-0.3c0,0.2,0,0.4,0,0.6c0,0.2,0,0.5,0.1,0.7c0.2,0.4,0.6,0.4,0.6,0.9
							c0-0.2,0-0.3,0-0.5c-0.1,0.6-0.5,0.9-1.1,0.7c-0.5-0.2-0.5-0.4-0.6-0.9c0,0.2,0,0.3,0,0.5c0.2-0.4,0.3-0.6,0.3-1
							c0-0.7-0.5-0.9-0.7-1.5c0,0.2,0,0.3,0,0.5c0.3-0.5,1-0.5,1-1.2c0-0.4-0.2-0.6-0.5-0.9c-0.5-0.3-1-0.1-1.3,0.4
							c-0.1,0.2-0.1,0.5-0.2,0.8c-0.3,0.4-0.8,0.8-1.2,1c-0.3,0.2-0.5,0.1-0.8,0.3c-0.5,0.2-0.3,0.5-0.9,0.3
							c-0.2-0.1-0.1-0.5-0.5-0.2c-0.2,0.1-0.3,0.6-0.4,0.8c-0.3,0.8-0.2,1.3,0.1,2.1c0-0.2,0-0.3,0-0.5c-0.2,0.3-0.5,0.5-0.7,0.8
							c-0.2,0.4,0,0.6-0.5,0.9c0,0,0,0.4,0,0.5c0,0.3,0.1,0.5,0.3,0.8c0-0.2,0-0.3,0-0.5c-0.1,0.6-0.4,0.3-0.7,0
							c-0.1-0.2-0.2-0.3-0.3-0.5c-0.2-0.2-0.5-0.3-0.8-0.5c-0.8-0.6-1.2-0.6-2.1-0.4c-0.8,0.2-1.4,0.9-2.2,1.3
							c-0.7,0.3-1.5,0.4-2.2,0.5c0,0.2,0,0.3,0,0.5c0.1-0.3,0-0.7-0.1-0.9c-0.4-0.7-1.2-0.8-1.8-1.1c-0.7-0.2-0.9-0.5-1.1-1.2
							c0,0.2,0,0.3,0,0.5c0.7-1.1,0.3-1.6-0.7-2.5c0,0.2,0,0.3,0,0.5c0.5-0.4,0.8-0.1,0.9-0.8c0-0.8-0.7-1.1-0.8-1.8
							c0,0.2,0,0.3,0,0.5c0.2-0.5,0.5-0.7,0.6-1.2c0-0.4-0.1-0.7-0.2-1.1c-0.3-0.7-0.6-0.6-1.3-0.9c-0.6-0.2-0.9-0.4-1.6-0.3
							c-0.2,0-0.5,0.2-0.8,0.2c-0.2,0-0.5-0.1-0.7-0.1c-0.5,0.1-1,0.4-1.5,0.5c-0.4,0.1-0.8,0.2-1.1,0.2c-0.1,0-0.2-0.2-0.3-0.1
							c-0.6,0.2-0.8,0.8-1.6,0.5c0,0.2,0,0.3,0,0.5c0.3-0.7,0.8-0.8,0.7-1.5c-0.1-1-0.5-1.9-0.5-2.9c0,0.2,0,0.3,0,0.5
							c0.1-0.5,0.7-0.1,1-0.4c0.3-0.3,0.2-0.9,0.2-1.2c0-0.1,0-0.5,0-0.5c-0.2-0.1-0.4-0.3-0.6-0.3c0,0.2,0,0.3,0,0.5
							c0-0.2,0.2-0.5,0.2-0.7c0-0.4-0.1-0.8-0.2-1.1c0,0.2,0,0.3,0,0.5c0.4-0.5,0.7-0.5,0.6-1.1c-0.1-0.4-0.1-0.9-0.6-1
							c-0.4-0.1-1.4,0.2-1.8,0.4c-0.3,0.2-0.5,0.5-0.8,0.6c-0.4,0.2-1,0.2-1.2,0.6c-0.1,0.3,0.1,0.9,0.2,1.2c0-0.2,0-0.3,0-0.5
							c-0.1,0.8-0.2,1.4-0.1,2.2c0-0.2,0-0.3,0-0.5c-0.1,0.5-0.3,0.6-0.7,0.8c0,0,0,0.5,0,0.5c0.1,0.3,0.2,0.5,0.2,0.8
							c0-0.2,0-0.3,0-0.5c-0.3,0.3-1,0.7-1.4,0.6c-0.4-0.1-0.2-0.5-0.8-0.3c-0.6,0.2-1.2,0.6-1.8,0.8c-1.3,0.5-3.7-0.2-4.3-1.5
							c0,0.2,0,0.3,0,0.5c0-1-0.1-1.2-1.3-1.6c0,0.2,0,0.3,0,0.5c0.1-0.6,0.5-1,0.3-1.6c-0.2-0.9-1.2-1.6-1.4-2.5c0,0.2,0,0.3,0,0.5
							c0.1-0.3,0.3-0.9,0.2-1.2c-0.1-0.3-0.4-0.5-0.5-0.7c-0.2-0.4-0.2-0.7-0.2-1.1c0,0.1,0,0.3,0,0.4c0.7,0.2,1,0.1,1.2-0.7
							c0-0.1,0-0.4,0-0.5c-0.2-0.4-0.7-0.6-1.2-0.7c-0.3-0.1-0.7,0-0.9-0.2c-0.2-0.1-0.4-0.5-0.5-0.7c-0.7-1-1.7-1.9-2.5-2.8
							c-0.3-0.3-0.6-0.7-0.9-0.9c-0.4-0.2-1.3,0-1.7,0.3c-0.4,0.3-0.5,0.8-1,1.1c-0.6,0.4-1.2,0.3-1.6-0.2c-0.9-0.9-1.6-1.8-2.8-2.4
							c-0.5-0.3-0.7-0.2-1.3,0c-0.2,0.1-0.7,0.1-0.9,0.2c-0.2,0.1-0.3,0.4-0.5,0.6c-0.4,0.2-1.2,0.2-1.7,0.3
							c-0.6,0.1-1.2,0.3-1.7,0.3c-0.6,0-1.3-0.2-2-0.2c-0.8-0.1-1.8-0.1-2.6-0.3c-0.5-0.1-0.5-0.3-1.1-0.2c-0.8,0.2-1.5,0.3-2.3,0.5
							c0,0,0,0.5,0,0.5c0.2,1,0.5,2.8,1.2,3.6c0.5,0.5,1.5,0.6,2,1c0.3,0.2,0.6,0.5,0.7,0.9c0,0.1,0.1,0.7,0.1,0.7
							c0-0.2,0-0.3,0-0.5c-0.1,0.2-1.3,0.1-1.6,0.3c0,0,0,0.4,0,0.5c0.2,0.8,1.8,1.2,2.5,1c0.1,0,0.1-0.1,0.3-0.1
							c0.2,0,0.8,0.3,0.9,0.4c0.7,0.3,0.8,0.6,0.9,1.3c0-0.2,0-0.3,0-0.5c-0.4,0,0,1.6,0,1.7c0.2,0.3,0.5,0.3,0.8,0.5
							c0.5,0.2,0.9,0.6,1.3,0.9c0.8,0.6,1,1,1.6,0c0,0,0-0.5,0-0.5c-0.4-0.4-0.7-0.7-1.1-0.9c-0.6-0.3-0.8-0.2-1-0.9
							c-0.2-0.5-0.5-1-0.6-1.5c-0.2-0.6-0.2-1.1-0.8-1.4c-0.5-0.3-0.6-0.2-1.1-0.7c-0.4-0.5-0.5-1.1-0.9-1.6
							c-0.5-0.6-1.2-0.9-1.8-1.4c-0.3-0.2-0.2,0-0.4-0.5c-0.1-0.3-0.2-0.9-0.2-1.2c0,0.2,0,0.3,0,0.5c0-0.1,0-0.9,0.1-0.9
							c0,0,0.7,0.3,0.8,0.3c0.7,0,0.9-0.1,1.2,0.8c0-0.2,0-0.3,0-0.5c-0.3-0.2-0.2,0-0.2,0.2c-0.1,0.5,0.6,1.1,0.9,1.4
							c0.4,0.5,0.6,1,1,1.5c0.5,0.7,1.4,0.9,2.1,1.2c0-0.2,0-0.3,0-0.5c-0.3,0.4-0.6,0.5-0.4,1c0.2,0.7,1,0.4,1.5,0.6
							c0.1,0,0,0.1,0.1,0.2c0.1,0.1,0.3,0,0.5,0.1c0.3,0.1,0.3-0.1,0.4,0.3c0-0.2,0-0.3,0-0.5c-0.3,0.6-0.7,0.8-0.5,1.4
							c0.1,0.6,0.3,0.4,0.9,0.3c0.6-0.1,1,0,1.4,0.5c0.4,0.4,0.6,0.7,1,1.1c0.3,0.2,0.6,0.6,0.8,1c0.7,0.8,2.1,1,2.3,2.1
							c0-0.2,0-0.3,0-0.5c0,1.3-0.8,1.8-0.3,3c0.3,0.8,1,1,1.8,1.4c0.4,0.2,0.4,0.1,0.8,0.2c0.5,0.1,0.6,0.3,1,0.6
							c0.6,0.3,1.2,0.1,1.8,0.2c0.6,0.1,1.1,0.3,1.7,0.4c0.4,0.1,0.9,0,1.2,0.2c0.1,0.1,0.1,0.3,0.2,0.3c0.5,0.4,1.4,0.4,2,0.5
							c0.3,0,1.3,0,1.4,0.3c0-0.2,0-0.3,0-0.5c0,0.2-0.1,0.6,0,0.7c0.2,0.2,1.6-0.1,1.9-0.1c0.6-0.1,1.2-0.3,1.6-0.7
							c0.6-0.5,0.6-0.6,1.3-0.6c0.4,0,0.9,0,1.3,0.1c0.3,0.1,0.8,0.4,1,0.6c0.4,0.3,0.6,0.8,1,1.2c0.4,0.5,1.2,0.9,1.8,0.9
							c0.5,0,0.9-0.3,1.4-0.2c0.5,0.1,0.7,0.4,1.1,0.5c0.3,0.1,1-0.1,1.3-0.1c0.4-0.1,1-0.6,1.5-0.5c0.5,0.1,0.5,0.8,0.7,1.2
							c0.5,0.9,1.7,1.4,2.3,2.3c0-0.2,0-0.3,0-0.5c0,0.3-0.2,0.8-0.1,1.1c0.1,0.3,0.6,0.6,1,0.7c0.5,0.1,0.4-0.3,0.7-0.5
							c0.5-0.3,0.6,0,0.9,0.3c0.3,0.3,0.8,0.3,1,0.6c0.2,0.2,0.1,0.7,0.4,0.9c0.4,0.2,0.3-0.5,0.8,0.1c0-0.2,0-0.3,0-0.5
							c0,0.2-0.2,0.7,0,0.8c0.2,0.2,1.5-0.2,1.9-0.3c0.5,0,0.8,0,1.3,0.2c0.3,0.1,0.5,0.3,0.8,0.5c0.4,0.2,0.7,0.2,0.8-0.2
							c0.2-0.5-0.2-1-0.5-1.3c0,0.2,0,0.3,0,0.5c0.1-0.5,0.7-0.4,0.8-0.9c0.1-0.3-0.1-0.6-0.1-0.8c0,0.2,0,0.3,0,0.5
							c0.5-0.7,2-0.7,2.4,0.1c0.2,0.3,0,0.6,0.2,1c0.1,0.3,0.5,0.6,0.6,0.8c0,0,0.2,0.5,0.2,0.5c0.1,0.1,0.2,0.1,0.3,0.2
							c0.8,0.8,0.9,1.6,1,2.7c0-0.2,0-0.3,0-0.5c-0.2,1.1-0.5,1.5,0.6,2.2c0-0.2,0-0.3,0-0.5c-0.1,0.2-0.3,0.3-0.4,0.5
							c-0.3,0.4-0.2,0.3-0.3,0.8c-0.2,0.5-0.4,0.4-0.9,0.6c-0.4,0.2-0.6,0.6-0.5,1.1c0.1,0.4,0.5,0.5,0.6,0.9c0-0.2,0-0.3,0-0.5
							c-0.3,0.4-0.4,0.4-0.5,0.8c0,0.4,0.2,0.7,0.2,1c0-0.2,0-0.3,0-0.5c-0.2,1.4-1.5,0.1-1.7,1.5c-0.1,0.4,0,0.8,0,1.2
							c0-0.2,0-0.3,0-0.5c-0.1,0.6-0.5,1.1-0.6,1.7c-0.1,0.6,0.2,1.2,0.3,1.7c0-0.2,0-0.3,0-0.5c-0.2,0.2-0.1,0.9,0,1.1
							c0.2,0.4,0.4,0.3,0.8,0.2c0.7-0.3,0.7-0.6,1.2,0.2c0-0.2,0-0.3,0-0.5c-0.7,0.7-2.1,1.3-2.4,2.3c0,0.2,0,0.5,0,0.7
							c0.2,1,1,1,1.3,1.9c0-0.2,0-0.3,0-0.5c0,0.4-0.7,0.5-0.6,1c0.1,0.5,0.7,0.6,1.2,0.8c0.6,0.2,1.2,0.4,1.6,0.9
							c0.3,0.3,0.4,0.7,0.7,1c0.4,0.4,0.9,0.5,1.2,0.9c0.8,1,1.2,2.4,1.8,3.6c0.2,0.4,0.5,0.5,0.8,0.8c0.3,0.3,0.3,0.5,0.5,0.8
							c0.3,0.6,1.3,0.8,1.6,1.6c0-0.2,0-0.3,0-0.5c-0.3,1.2-0.6,1.2,0.5,2.1c1.1,0.9,2.2,1.4,3.6,1.7c1.4,0.2,2.4,1,3.5,1.7
							c0.4,0.3,1.2,0.5,1.4,0.9c0.2,0.4,0.3,1.3,0.4,1.7c0.1,0.3,0.2,0.7,0.3,1c0-0.2,0-0.3,0-0.5c-0.1,0.8-0.2,1.6-0.1,2.4
							c0,0.2,0.1,0.5,0.1,0.7c0,0.5-0.2,0.7-0.3,1.1c0,0.1,0,0.2,0,0.2c0,0.7,0.4,1.2,0.4,1.9c0-0.2,0-0.3,0-0.5
							c-0.3,1.1,0,1.5,0.1,2.6c0-0.2,0-0.3,0-0.5c-0.6,0.9-0.2,1.8-0.1,2.9c0-0.2,0-0.3,0-0.5c-0.5,0.6-0.6,0.6-0.6,1.4
							c0,0.6-0.1,1.3-0.2,1.9c0,0.1,0,0.5,0,0.5c0.2,0.1,0.3,0.2,0.3,0.4c0-0.2,0-0.3,0-0.5c0,0.8-0.6,1.1-0.6,1.9
							c0,1.4,0.8,2.5,1,3.8c0-0.2,0-0.3,0-0.5c-0.2,1.3-1,2.4-1.5,3.6c-0.2,0.5-0.2,0.8-0.1,1.4c0-0.2,0-0.3,0-0.5
							c-0.3,0.8-0.5,0.9-0.5,1.7c0-0.2,0-0.3,0-0.5c-0.1,0.4-0.4,0.5-0.6,0.8c0,0.1,0,0.3,0,0.4c0,1.1,0.3,1.9,0.8,2.9
							c0-0.2,0-0.3,0-0.5c-0.1,0.9-0.7,1.7-0.7,2.5c0,0.3,0.1,0.6,0.3,0.9c0.3,0.3,0.5,0.2,0.8,0.3c0.2,0.1,0.4,0.3,0.6,0.4
							c0-0.2,0-0.3,0-0.5c-0.1,0.8-1,3.4-0.2,4c0-0.2,0-0.3,0-0.5c-0.6,0.5-0.5,1-0.4,1.7c0-0.2,0-0.3,0-0.5c-0.4,0.8-0.3,1.1-0.2,2
							c0-0.2,0-0.3,0-0.5c-0.1,0.2-0.3,0.3-0.6,0.2c-0.4-0.2-0.3-0.8-0.8-0.8c-0.3,0-0.9,0.7-1,1c0,0.1,0,0.4,0,0.5
							c0.2,0.4,0.3,0,0.7-0.1c0.4-0.1,0.8,0.3,1.1,0.5c0-0.2,0-0.3,0-0.5c-0.6,0.9-0.6,1-0.4,2.1c0-0.2,0-0.3,0-0.5
							c-0.2,0.3-0.3,0.7-0.4,1c-0.1,0.2-0.4,0.2-0.5,0.4c-0.1,0.3,0,0.9,0,1.1c0,0,0,0,0,0c0.4,0.1,0.8,0,1.2,0c0-0.2,0-0.3,0-0.5
							c-0.1,0.3-0.3,0.6-0.3,1c0,0.1,0,0.2,0.1,0.3c0.2,0.2,0,0.1,0.4,0c0.3-0.1,0.5-0.6,0.6-0.2c0-0.2,0-0.3,0-0.5
							c-0.1,0.6-0.4,0.9-0.4,1.4c0,0.3,0,0.7,0.3,0.8c0.5,0.3,1.1-0.6,1.3-0.1c0-0.2,0-0.3,0-0.5c-0.3,0.4-0.8,0.6-1.1,1
							c0,0.1,0,0.4,0,0.5c0.3,0.7,1,0.5,1.4,1.2c0-0.2,0-0.3,0-0.5c-0.7,0.9,0.8,1.3,1.5,1.4c1,0.1,1.3,0,2.3-0.2
							c0.8-0.2,2.2,0.2,2.7-0.6c0,0,0-0.4,0-0.5c-0.4-0.8-2.4-0.1-2.5-1.2c0,0.2,0,0.3,0,0.5c0-0.2,0.1-0.5,0-0.7
							c-0.3-0.8-0.8-0.4-1.3-0.6c0,0.2,0,0.3,0,0.5c0.2-0.6,0.8-0.6,0.9-1.2c0-0.5-0.4-0.8-0.5-1.3c0,0.2,0,0.3,0,0.5
							c0.4-0.6,1-0.9,1.3-1.5c0.4-0.6,0.2-1.1,0.7-1.5c0.5-0.4,1-0.4,1.4-0.9c0.4-0.5,0.9-1.1,1.2-1.6c0,0,0-0.5,0-0.5
							c-0.8-0.3-2.1-0.8-2.2-1.8c0,0.2,0,0.3,0,0.5c0.4-1.3,1.6-1.1,2.3-1.9c0.6-0.7,0.5-1.1,0.5-2c0,0.1,0,0.2,0,0.3
							c0.2-0.5,0.3-1.1,0.9-1.4c0.4-0.2,0.6,0,0.8-0.4c0.1-0.2,0.1-0.4,0.1-0.6c0-0.1,0-0.4,0-0.5c-0.7-0.3-1.1,0.8-1.6,0
							c0,0.2,0,0.3,0,0.5c0.1-0.4,0.2-0.6,0.2-1c0-0.6-0.3-0.8,0.5-0.8c0.5,0,0.9,0.2,1.3,0.1c0.8-0.2,1.8-1.6,1.9-2.4
							c0.1-0.5-0.2-0.8-0.5-1.2c0,0.2,0,0.3,0,0.5c0.4-0.6,1.2-0.4,1.9-0.7c0.6-0.2,1.2-0.5,1.9-0.8c0.7-0.2,1.2-0.4,1.7-1
							c0.2-0.3,0.2-0.7,0.5-1c0.1-0.2,0.3-0.3,0.5-0.5c0.3-0.3,0.5-0.5,0.6-0.9c0.1-0.6-0.5-0.9-0.6-1.4c0,0.2,0,0.3,0,0.5
							c0.1-0.3,0.2-0.9,0.1-1.3c-0.2-0.5-1.1-0.9-1.6-1.3c0,0.2,0,0.3,0,0.5c0.7-0.4,1.6-0.2,2.4-0.2c0.9,0,2.3,0.1,3.1-0.4
							c1.2-0.7,1.3-2,2.1-3.1c0.7-1,1.7-1.7,2.3-2.8c0.4-0.6,0.4-1.3,0.9-1.9c0.5-0.5,1-1,1.5-1.5c0.6-0.7,1.2-1.3,1.4-2.2
							c0.1-0.3,0.1-0.7,0.1-1.1c0-0.4-0.1-1.1-0.4-1.4c-0.2-0.2-0.5,0-0.5-0.4c0,0.2,0,0.3,0,0.5c0.2-0.9,1.2-1.4,1.7-2.1
							c0.3-0.4,0.5-1,0.9-1.2c0.4-0.2,0.9-0.2,1.3-0.4c0.7-0.3,1.1-1,1.8-1.5c0.8-0.7,1.3-0.9,2.4-1c0.6,0,1.1,0.2,1.5-0.4
							c0.3-0.4,0.6-0.8,1-1.2c0.4-0.5,0.3-0.8,0.4-1.4c0.1-0.6,0.6-0.9,0.9-1.3c0.2-0.4,0.1-0.7,0.2-1.1c0.1-0.3,0.4-0.5,0.5-0.8
							c0.2-0.3,0.3-0.5,0.4-0.8c0.1-0.5-0.1-1-0.2-1.4c0,0.2,0,0.3,0,0.5c0.1-0.8,0.7-1.5,0.9-2.4c0.1-0.3,0.2-0.6,0.2-1
							c0-0.9-0.4-1.8-0.5-2.8c0,0.2,0,0.3,0,0.5c0-0.6,0.3-1.2,0.4-1.8c0-0.6,0-1.2-0.1-1.7c0,0.2,0,0.3,0,0.5
							c0-0.5,0.4-0.5,0.6-0.6c0.3-0.1,0.5-0.1,0.7-0.5c0.3-0.5,0.4-1,0.6-1.6c0.3-1,1.1-1.6,1.6-2.6c0.5-0.9,0.9-1.9,1.4-2.8
							C164.1,92.7,164.1,92.3,163.8,91.6c0.1,0.1-0.1,0.4,0,0.5c0.1,0.2,0.2,0.4,0.2,0.7c0-0.2,0-0.3,0-0.5
							c-0.1,0.5-0.5,0.9-0.7,1.3c-0.3,0.6-0.6,1.2-0.9,1.8c-0.5,1-1.4,1.7-1.7,2.8c-0.2,0.6-0.3,1.3-0.7,1.7c-0.4,0.5-1,0.1-1.2,0.8
							c-0.1,0.6,0.1,1.4,0.1,2c0-0.2,0-0.3,0-0.5c-0.2,0.6-0.4,1.3-0.4,1.9c0,0.9,0.3,1.7,0.5,2.6c0-0.2,0-0.3,0-0.5
							c-0.1,0.4-0.2,0.9-0.3,1.3c-0.2,0.6-0.7,1.1-0.8,1.7c-0.1,0.6,0.2,1,0.2,1.6c0-0.2,0-0.3,0-0.5c-0.2,0.6-0.7,1-0.9,1.5
							c-0.2,0.4,0,0.8-0.2,1.2c-0.1,0.2-0.4,0.4-0.6,0.7c-0.3,0.5-0.1,1.3-0.4,1.7c-0.2,0.3-0.6,0.5-0.9,0.8c-0.6,0.8-0.6,0.9-1.6,1
							c-0.4,0-1.1,0-1.5,0.2c-0.7,0.2-1.4,1-1.9,1.5c-0.4,0.5-0.6,0.7-1.2,0.9c-0.4,0.2-1,0.2-1.4,0.5c-0.4,0.3-0.6,0.9-0.9,1.3
							c-0.2,0.3-0.5,0.5-0.8,0.8c-0.4,0.4-1,0.9-0.8,1.6c0.1,0.3,0.2,0.2,0.4,0.4c0.3,0.4,0.5,0.9,0.6,1.6c0-0.2,0-0.3,0-0.5
							c-0.2,1.6-1.6,2.8-2.7,3.9c-0.8,0.8-1,1.9-1.7,2.9c-0.5,0.6-1.1,1.2-1.6,1.8c-0.7,0.8-0.8,1.9-1.5,2.7c-0.7,0.7-1.3,0.9-2.3,1
							c-1.2,0.1-3-0.3-4,0.2c0,0,0,0.5,0,0.5c0.4,0.3,1.6,0.7,1.6,1.2c0-0.2,0-0.3,0-0.5c0,0.4-0.2,0.7-0.1,1.1
							c0.1,0.5,0.5,0.7,0.6,1.1c0-0.2,0-0.3,0-0.5c-0.1,0.3-0.4,0.6-0.6,0.8c-0.4,0.4-0.5,0.6-0.7,1.1c-0.5,1.1-1.5,1.2-2.5,1.6
							c-0.6,0.3-1.2,0.6-1.9,0.7c-0.6,0.1-1-0.1-1.4,0.5c0,0,0,0.5,0,0.5c0.2,0.2,0.3,0.5,0.5,0.7c0-0.2,0-0.3,0-0.5
							c-0.1,0.7-1.1,2.1-1.8,2.3c-0.6,0.2-1.5-0.1-2.2-0.1c0,0,0,0,0,0c0,0.6,0,1.2,0.1,1.7c0-0.2,0-0.3,0-0.5
							c-0.1,0.3-0.3,0.6-0.2,0.9c0.3,0.9,1-0.2,1.6,0.1c0-0.2,0-0.3,0-0.5c0,1.2-0.5,0.6-1.1,1.2c-0.2,0.2-0.4,0.8-0.5,1.1
							c-0.1,0.4,0,0.9,0,1.3c0-0.1,0-0.2,0-0.3c-0.5,0.8-0.7,1.1-1.6,1.5c-0.6,0.3-1.2,0.6-1.3,1.4c-0.2,1.2,1.3,1.9,2.2,2.2
							c0-0.2,0-0.3,0-0.5c-0.4,0.7-1,1.7-1.8,2.1c-0.3,0.2-0.7,0.2-1,0.6c-0.3,0.4-0.2,0.8-0.4,1.2c-0.3,0.6-1.2,1.1-1.4,1.7
							c-0.2,0.5,0.3,1,0.5,1.4c0-0.2,0-0.3,0-0.5c0,0.3-0.7,0.6-0.9,1c0,0,0,0.5,0,0.5c0.5,0.2,0.9-0.2,1.3,0.5c0-0.2,0-0.3,0-0.5
							c0,0.3-0.1,0.7,0,1c0.5,0.9,2,0.2,2.4,1c0-0.2,0-0.3,0-0.5c-0.4,0.5-1.2,0.5-1.8,0.5c-0.7,0-1.3,0.4-2,0.4
							c-0.7,0.1-2.4-0.1-2.8-0.7c0,0.2,0,0.3,0,0.5c0-0.1,0-0.2,0.1-0.3c0,0,0-0.5,0-0.5c-0.5-0.6-1.1-0.4-1.4-1.2
							c0,0.2,0,0.3,0,0.5c0.3-0.4,1.3-0.7,1.1-1.3c0-0.2,0-0.3-0.3-0.4c-0.4,0-0.5,0.6-1,0.3c-0.2-0.1-0.3-0.5-0.3-0.8
							c0,0.2,0,0.3,0,0.5c0.2-0.3,0.6-0.9,0.4-1.4c-0.1-0.2,0.1-0.2-0.2-0.2c-0.6,0-0.5,0.8-0.8,0c0,0.2,0,0.3,0,0.5
							c0.1-0.2,0.2-0.4,0.3-0.7c0,0,0-0.5,0-0.5c-0.8,0-1.2,0.4-1.2-0.6c0,0.2,0,0.3,0,0.5c1-0.7,0.9-1.6,0.8-2.7c0,0.2,0,0.3,0,0.5
							c0.2-0.3,0.4-0.5,0.6-0.8c0,0,0-0.5,0-0.5c-0.3-0.1-0.7-0.5-1.1-0.5c-0.3,0-0.6,0.6-0.7,0.1c0,0.2,0,0.3,0,0.5
							c0.1-0.3,0.6-1,1-1c0.4,0,0.3,0.3,0.6,0.6c0.2,0.2,0.5,0.3,0.7,0.1c0.2-0.3,0-1.3-0.1-1.5c0,0.2,0,0.3,0,0.5
							c0.3-0.6,0.4-0.9,0.2-1.6c0,0.2,0,0.3,0,0.5c0.1-0.3,0.2-0.5,0.5-0.7c0,0,0-0.5,0-0.5c-0.4-0.3-0.2-0.8-0.2-1.3
							c0,0.2,0,0.3,0,0.5c0.2-0.7,0.6-1.7,0.4-2.5c-0.1-0.3-0.1-0.4-0.5-0.6c-0.2-0.1-0.6-0.1-0.8-0.2c-0.3-0.2-0.4-0.5-0.5-0.8
							c0,0.2,0,0.3,0,0.5c0.3-0.8,1-1.9,0.7-2.8c-0.1-0.2-0.3-0.4-0.4-0.6c-0.2-0.3-0.2-0.7-0.3-1.1c-0.1-0.4-0.1-0.6,0-0.9
							c0.1-0.2,0.3-0.2,0.4-0.5c0.1-0.2,0-0.7,0-0.9c0,0.2,0,0.3,0,0.5c0.4-0.7,0.6-1,0.4-1.8c0,0.2,0,0.3,0,0.5
							c0.4-1.6,2-3,1.6-4.8c-0.2-0.7-0.5-1.3-0.7-2c-0.1-0.5-0.2-0.8,0-1.2c0.1-0.2,0.2-0.3,0.3-0.5c0.2-0.5,0.3-1.3-0.2-1.6
							c0,0.2,0,0.3,0,0.5c0.1-0.7,0.1-1.3,0.2-2c0-0.2,0-0.5,0-0.7c0.1-0.3,0.5-0.4,0.6-0.7c0.2-0.7-0.1-1.8-0.2-2.4
							c0,0.2,0,0.3,0,0.5c0.5-0.8,0.3-1.5,0-2.4c0,0.2,0,0.3,0,0.5c0.1-0.4,0.2-0.7,0.2-1.1c0-0.2,0-0.4,0-0.6
							c-0.1-0.5-0.3-0.8-0.4-1.3c0,0.2,0,0.3,0,0.5c0.4-1.2,0.3-2,0.1-3.3c0,0.2,0,0.3,0,0.5c0.1-1,0.2-1.7-0.1-2.7
							c-0.1-0.4-0.2-0.9-0.3-1.3c-0.1-0.7-0.1-0.7-0.7-1c-0.7-0.3-1.2-0.8-1.8-1.2c-0.5-0.3-1.1-0.7-1.7-0.9
							c-0.6-0.2-1.2-0.1-1.8-0.3c-1.4-0.4-2.5-1.3-3.5-2.2c0,0.2,0,0.3,0,0.5c0.1-0.4,0.4-0.7,0.3-1.2c-0.1-0.5-0.4-0.8-0.9-1.1
							c-0.2-0.1-0.5-0.2-0.6-0.3c-0.2-0.2,0-0.3-0.1-0.5c-0.1-0.3-0.3-0.5-0.6-0.8c-0.4-0.4-0.6-0.4-0.8-0.9
							c-0.1-0.2-0.2-0.5-0.3-0.7c-0.4-0.8-0.8-1.6-1.3-2.3c-0.4-0.6-1.1-0.9-1.6-1.5c-0.5-0.5-0.8-1.1-1.4-1.4
							c-0.5-0.2-1.7-0.2-1.9-0.8c0,0.2,0,0.3,0,0.5c0.2-0.2,0.3-0.3,0.6-0.4c0,0,0,0,0,0c0-0.2,0-0.5,0-0.7
							c-0.1-0.4-0.3-0.6-0.6-0.9c-0.4-0.4-0.5-0.3-0.7-1c0,0.1,0,0.2,0,0.3c0-0.9,1.8-1.7,2.4-2.3c0,0,0-0.5,0-0.5
							c-0.5-0.8-0.5-0.5-1.2-0.2c-0.6,0.3-0.8,0-0.8-0.6c0,0.2,0,0.3,0,0.5c0.3-0.7-0.1-1.5-0.2-2.2c0,0.2,0,0.3,0,0.5
							C96,93.6,96,93,96,92c0,0.1,0,0.2,0,0.3c0.2-1.3,1.4-0.2,1.7-1.5c0.1-0.4-0.1-0.8-0.2-1.2c0,0.2,0,0.3,0,0.5
							c0-0.4,0.5-0.5,0.5-0.9c0-0.4-0.4-0.6-0.6-0.9c0,0.2,0,0.3,0,0.5c0-1,1.1-0.7,1.4-1.3c0.1-0.2,0.1-0.6,0.3-0.9
							c0.1-0.1,0.4-0.3,0.5-0.5c0,0,0-0.5,0-0.5c-0.3-0.2-0.6-0.4-0.8-0.7c0,0.2,0,0.3,0,0.5c0-0.4,0.2-0.8,0.2-1.3
							c0-0.5-0.1-1.1-0.2-1.6c-0.1-0.4-0.2-0.7-0.4-1c-0.1-0.1-0.5-0.2-0.5-0.3c-0.1-0.1-0.1-0.2-0.2-0.4c-0.3-0.4-0.9-1-1-1.6
							c0,0.2,0,0.3,0,0.5c0-0.2,0-0.5,0-0.7c-0.1-0.6-1-1-1.6-0.9c-1.1,0.2-0.8,0.9-0.7,1.6c0-0.2,0-0.3,0-0.5
							c-0.3,0.3-0.8,0.3-0.8,0.9c0,0.5,0.4,0.6,0.5,1.1c0-0.2,0-0.3,0-0.5c-0.1,0.5-0.7,0.4-1,0.2c-0.1-0.1-0.2-0.3-0.3-0.4
							c-0.2-0.1-0.5,0-0.6,0c-0.2,0-0.1-0.2-0.3-0.2c-0.3,0-0.6,0-0.9,0.1c-0.3,0-1.6,0.4-1.7,0.1c0,0.2,0,0.3,0,0.5
							c0-0.2,0.1-0.6,0-0.7c-0.3-0.6-0.4,0-0.6,0c-0.4-0.1-0.3-0.3-0.5-0.7c-0.2-0.3-0.4-0.3-0.7-0.5c-0.3-0.2-0.5-0.6-0.8-0.7
							c-0.5-0.1-0.4,0.3-0.7,0.5c-0.5,0.2-1-0.2-1.3-0.5c0,0.2,0,0.3,0,0.5c0-0.3,0.2-0.8,0.1-1.1c-0.3-1-1.6-1.4-2.2-2.1
							c-0.3-0.4-0.2-0.9-0.5-1.3c-0.5-0.5-1,0.1-1.6,0.2c-0.3,0.1-1.1,0.2-1.4,0.1c-0.3-0.1-0.6-0.3-0.9-0.4
							c-0.7-0.2-0.9,0.1-1.5,0.2c-0.7,0.1-1.5-0.4-2-0.9c-0.3-0.4-0.5-0.9-0.9-1.2c-0.3-0.2-0.8-0.6-1.1-0.7
							c-0.4-0.1-0.9-0.1-1.3-0.1c-0.7,0-0.8,0.1-1.3,0.6c-0.4,0.3-3.4,1.3-3.6,0.7c0,0.2,0,0.3,0,0.5c0.4-1.9-3.5-0.2-3.6-1.8
							c0,0,0,0,0,0c-0.7-0.3-1.7-0.3-2.4-0.5c-0.8-0.2-1.5,0-2.3-0.3c-0.5-0.2-0.7-0.5-1.2-0.6c-0.4-0.1-0.5-0.1-1-0.3
							c-0.3-0.2-0.9-0.3-1.2-0.6c-0.3-0.3-0.4-0.9-0.6-1.3c0,0.2,0,0.3,0,0.5c0.3-0.7,0.6-1.4,0.6-2.2c-0.1-1-0.7-1-1.5-1.5
							c-0.5-0.3-0.8-0.7-1.2-1.1c-0.3-0.4-0.8-0.6-1.1-1c-0.3-0.4-0.5-1-1.1-1.2c-0.7-0.2-1.6,0.7-1.6-0.4c0,0.2,0,0.3,0,0.5
							c0.2-0.3,0.7-0.8,0.5-1.3c-0.2-0.3-0.1-0.1-0.4-0.2c-0.1-0.1-0.3,0-0.5-0.1c-0.1,0,0-0.2-0.1-0.2c-0.5-0.2-1.3,0.1-1.5-0.7
							c0,0.2,0,0.3,0,0.5c0.1-0.2,0.3-0.2,0.4-0.4c0,0,0-0.5,0-0.5c-1-0.5-1.8-0.6-2.4-1.7c-0.5-0.7-1.2-1.4-1.6-2.2
							c0,0.2,0,0.3,0,0.5c0.1-0.1,0.1,0,0.2,0c0,0,0-0.4,0-0.5c-0.1-0.4-0.2-0.7-0.7-0.8c-0.2,0-0.4,0.1-0.6,0.1
							c-0.1,0-0.6-0.2-0.6-0.2c-0.2,0.1-0.2,0.8-0.2,1.1c0,0.5,0,1.4,0.3,1.8c0.2,0.2,0.6,0.4,0.9,0.6c0.4,0.3,1,0.7,1.3,1.1
							c0.5,0.7,0.6,1.7,1.4,2.1c0.2,0.1,0.6,0.1,0.8,0.3c0.4,0.3,0.4,1.1,0.6,1.4c0.2,0.6,0.6,1.6,1,1.9c0.6,0.5,1.2,0.6,1.7,1.2
							c0-0.2,0-0.3,0-0.5c-0.3,0.5-0.4,0.8-1,0.5c-0.4-0.2-0.7-0.6-1-0.8c-0.5-0.3-1-0.5-1.4-0.8c-0.4-0.3-0.4-0.6-0.5-1.2
							c0,0.2,0,0.3,0,0.5c0-0.1,0-0.3,0.2-0.3c0,0,0-0.5,0-0.5c-0.2-0.7-0.3-1-0.9-1.3c-0.1-0.1-0.6-0.3-0.8-0.3
							c-0.2,0-0.3,0.1-0.4,0.1c-0.7,0.2-2.2-0.3-2.5-1c0,0.2,0,0.3,0,0.5c0.3-0.3,1.5-0.1,1.6-0.3c0,0,0-0.5,0-0.5
							c0.2,0-0.6-1.4-0.8-1.5c-0.6-0.5-1.6-0.5-2.2-1.1c-0.7-0.8-1-2.6-1.2-3.6c0,0.2,0,0.3,0,0.5c0.5-0.1,1.1-0.2,1.6-0.3
							c0.3-0.1,0.6-0.2,0.9-0.2c0.1,0,0.2-0.1,0.3-0.1c0.1,0,0.1,0.2,0.2,0.3c1.1,0.3,2.4,0.3,3.5,0.4c1,0.1,1.7,0.1,2.7,0
							c0.6-0.1,1.5-0.1,2-0.3c0.3-0.1,0.4-0.5,0.7-0.6c0.3-0.2,1.3-0.4,1.7-0.4c0.4,0.1,1.1,0.7,1.5,0.9c0.4,0.3,0.7,0.5,1,0.9
							c0.3,0.3,0.7,0.9,1,1.1c1.3,0.6,1.6-1,2.4-1.4c0.4-0.2,1.1-0.3,1.5-0.2c0.3,0.1,0.6,0.5,0.9,0.7c0.9,0.9,1.8,1.8,2.5,2.7
							c0.5,0.7,0.5,0.9,1.3,1c0.5,0.1,1.2,0.3,1.4,0.8c0-0.2,0-0.3,0-0.5c-0.1,0.8-0.5,0.8-1.2,0.7c0,0,0,0.4,0,0.4
							c0,0.9,0.3,1.2,0.7,2c0-0.2,0-0.3,0-0.5c-0.1,0.6-0.2,1-0.1,1.5c0.3,0.9,1,1.5,1.3,2.3c0-0.2,0-0.3,0-0.5
							c-0.1,0.4-0.3,0.7-0.4,1c0,0,0,0.5,0,0.5c0.5,0.2,1,0.3,1.3,0.7c0-0.2,0-0.3,0-0.5c-0.5,2.2,3,2.9,4.5,2.3
							c0.5-0.2,1-0.5,1.5-0.7c0.4-0.1,0.4,0,0.7,0.1c0.4,0.1,0,0.3,0.6,0.1c1.1-0.4,1-0.8,0.7-1.8c0,0.2,0,0.3,0,0.5
							c0.8-0.5,0.8-1,0.6-1.9c0,0.2,0,0.3,0,0.5c0.1-1,0.1-1.4,0-2.3c0,0.2,0,0.3,0,0.5c0.3-0.4,0.8-0.4,1.2-0.6
							c0.3-0.2,0.5-0.5,0.8-0.6c0.4-0.2,1.4-0.5,1.8-0.4c0.5,0.1,0.4,0.5,0.6,1c0-0.2,0-0.3,0-0.5c-0.2,0.4-0.5,0.4-0.6,0.8
							c-0.1,0.4,0.2,0.8,0.2,1.2c0-0.2,0-0.3,0-0.5c-0.1,0.1-0.2,0.3-0.2,0.4c0,0,0,0.5,0,0.5c0.2,0,0.4,0.2,0.6,0.3
							c0-0.2,0-0.3,0-0.5c-0.1,0.7,0,1.2-0.7,1.4c-0.5,0.2-0.5,0-0.5,0.6c0,1.1,0.4,2.1,0.5,3.2c0-0.2,0-0.3,0-0.5
							c-0.3,0.3-0.5,0.6-0.7,1c0,0,0,0.5,0,0.5c0.4,0.2,0.7,0.1,1.1-0.1c0.5-0.3,0.4-0.2,0.9-0.2c0.9,0,1.8-0.6,2.7-0.6
							c0.9,0,1.8-0.3,2.6,0.1c0.4,0.2,0.8,0.2,1.1,0.5c0.4,0.4,0.5,0.9,0.5,1.4c0-0.2,0-0.3,0-0.5c-0.3,0.5-0.7,0.7-0.6,1.3
							c0.1,0.7,0.8,1,0.8,1.8c0-0.2,0-0.3,0-0.5c-0.2,0.3-0.6,0.2-0.8,0.4c0,0,0,0.5,0,0.5c0.4,0.3,1,0.8,1,1.3c0-0.1,0-0.3,0-0.4
							c-0.1,0.5-0.4,0.6-0.4,1.1c0.2,1.7,2.8,1,3.1,2.6c0-0.2,0-0.3,0-0.5c0,0,0,0.1,0,0.1c0,0,0,0.5,0,0.5c1.3-0.2,2.2-0.4,3.3-1.2
							c0.6-0.4,1.4-0.8,2.2-0.7c0.5,0.1,1.6,0.8,1.9,1.2c0.2,0.3,0.4,1.2,0.8,0.5c0.2-0.4-0.2-1-0.3-1.4c0,0.2,0,0.3,0,0.5
							c0.5-0.3,0.3-0.5,0.5-0.9c0.1-0.3,0.6-0.5,0.7-0.9c0.1-0.4-0.2-0.9-0.3-1.3c0,0.2,0,0.3,0,0.5c0.1-0.4,0.3-1.8,1-1.7
							c0,0,0.2,0.4,0.4,0.4c0.2,0,0.1-0.1,0.3-0.2c0.4-0.1,0.8-0.3,1.1-0.5c0.5-0.3,1-0.7,1.3-1.2c0.1-0.3,0.1-0.6,0.4-0.8
							c0.6-0.6,1.3-0.3,1.6,0.4c0-0.2,0-0.3,0-0.5c-0.4,0.5-1.1,0.6-1,1.3c0,0.6,0.6,0.9,0.7,1.6c0-0.2,0-0.3,0-0.5
							c-0.1,0.4-0.3,0.6-0.3,1.1c0.1,0.5,0.1,0.7,0.6,0.9c0.4,0.1,0.8,0,1-0.5c0.1-0.2,0.1-0.8,0-1c-0.1-0.2-0.5-0.3-0.6-0.6
							c-0.1-0.2-0.1-0.5-0.1-0.8c0-0.2,0-0.3,0-0.5c0,0.2,0,0.3,0,0.5c1-0.6,0.9-1.1,0.8-2.1c0,0.2,0,0.3,0,0.5
							c0.6-0.6,0.9,0.3,1.4,0.5c0.5,0.2,1-0.1,1.4,0.1c0.3,0.2,0.3,0.3,0.5,0.6c0.4,0.5,0.3,0.5,0.8,0.3c0.6-0.2,1-0.5,1.6-0.5
							c0.3,0,0.5-0.1,0.8-0.1c0.3,0.1,0.5,0.4,0.8,0.4c0.2,0,0.6-0.1,0.8-0.2c0.3-0.2,0.4-0.6,0.7-0.7c0.2-0.1,0.6,0,0.8-0.1
							c0.3-0.1,0.4-0.2,0.7-0.4c0.6-0.3,1.3-0.4,2-0.1c0-0.2,0-0.3,0-0.5c-0.2,0.3-0.5,0.4-0.7,0.6c0,0,0,0.5,0,0.5
							c0.3,0.3,0.5,0.5,0.9,0.5c0.3,0,0.6-0.2,1-0.2c0.6,0,1.3,0.6,1.8,0.9c0-0.2,0-0.3,0-0.5c0,0.2-0.2,0.8-0.1,1
							c0.3,1,1.2,0.1,1.8,0.1c1.4-0.1,1.3,1.8,2.2,2.2c0.3,0.2,0.7-0.1,1.1,0c0.5,0.1,0.8,0.6,1.3,0.8c0.7,0.2,1.2,0.3,2,0.1
							c0.9-0.3,1.5-0.5,2.5-0.3c0.8,0.2,1.7-0.1,2.3,0.4c0.7,0.5,0.9,0.7,1.8,0.8c0-0.1,0-0.3,0-0.4c0,0.2-0.1,0.6,0,0.8
							c0.1,0.4,0.6,0.8,0.8,1.1c0.3,0.4,0.4,0.9,0.8,1.3c0.4,0.4,0.7,0.6,1.2,0.9c0-0.2,0-0.3,0-0.5c0,0.5-0.1,1.1-0.4,1.5
							c-0.4,0.5-1.1,0.8-1.4,1.4c-0.2,0.4-0.2,0.8-0.3,1.2c-0.2,0.5-0.4,0.8-0.6,1.3c0,0.1,0,0.5,0,0.5c1-0.2,2,0.3,3.1,0
							c1.3-0.4,2.1-0.8,2.9-1.9c0.4-0.5,0.6-0.6,1.3-0.6c0.6,0,1.3-0.1,1.9,0c0.4,0.1,0.3,0.1,0.6,0.3c0.5,0.3,0.3,0.1,0.6,0
							c0.4-0.1,0.4-0.2,0.7,0.1c0.3,0.3,0.5,0.9,0.7,1.2c0-0.2,0-0.3,0-0.5c-0.3,0.4-0.7,0.5-0.8,0.9c-0.1,0.4,0.2,1.2,0.8,0.9
							c0.2-0.1,0.2-0.5,0.4-0.7c0.1-0.1,0.3-0.1,0.4-0.1c0.1-0.1,0.1-0.2,0.2-0.3c0.8-0.6,1.2-0.2,2.1-0.2c0.5,0,1.2,0,1.7-0.1
							c0.7-0.1,1.5-0.5,2.2-0.4c0.5,0,1.5,0.2,1.9,0.5c0.7,0.6,1.5,1.9,2.6,1.9c0.8,0,1.5-0.5,2.2,0.1c0.3,0.2,0.4,0.5,0.6,0.8
							c0.3,0.5,0.7,0.9,0.8,1.4c0-0.2,0-0.3,0-0.5c-0.2,0.6-0.2,1.1,0.1,1.7C163.7,91.9,163.8,91.7,163.8,91.6z"/>
					</g>
				</g>
			</g>
		</g>
	</g>
</g>
</svg>
